<?xml version="1.0" standalone="no"?><!-- Generator: Gravit.io --><svg xmlns="http://www.w3.org/2000/svg" xmlns:xlink="http://www.w3.org/1999/xlink" style="isolation:isolate" viewBox="0 0 1920 1280" width="1920" height="1280"><defs><clipPath id="_clipPath_lTZeY9CZmABeXb2fp9A8OqW5jq8Pgs8g"><rect width="1920" height="1280"/></clipPath></defs><g clip-path="url(#_clipPath_lTZeY9CZmABeXb2fp9A8OqW5jq8Pgs8g)"><g id="Group"><g id="Group"><path d=" M -45 -78.183 L -28.92 -78.183 L -28.92 -62.223 L -45 -62.223 L -45 -78.183 Z " fill="rgb(235,235,235)"/><path d=" M 984.12 -78.183 L 1000.2 -78.183 L 1000.2 -62.223 L 984.12 -62.223 L 984.12 -78.183 Z " fill="rgb(235,235,235)"/><path d=" M 469.56 -78.183 L 485.64 -78.183 L 485.64 -62.223 L 469.56 -62.223 L 469.56 -78.183 Z " fill="rgb(235,235,235)"/><path d=" M 1498.68 -78.183 L 1514.76 -78.183 L 1514.76 -62.223 L 1498.68 -62.223 L 1498.68 -78.183 Z " fill="rgb(235,235,235)"/><path d=" M 212.28 -78.183 L 228.36 -78.183 L 228.36 -62.223 L 212.28 -62.223 L 212.28 -78.183 Z " fill="rgb(235,235,235)"/><path d=" M 1241.4 -78.183 L 1257.48 -78.183 L 1257.48 -62.223 L 1241.4 -62.223 L 1241.4 -78.183 Z " fill="rgb(235,235,235)"/><path d=" M 726.84 -78.183 L 742.92 -78.183 L 742.92 -62.223 L 726.84 -62.223 L 726.84 -78.183 Z " fill="rgb(235,235,235)"/><path d=" M 1755.96 -78.183 L 1772.04 -78.183 L 1772.04 -62.223 L 1755.96 -62.223 L 1755.96 -78.183 Z " fill="rgb(235,235,235)"/><path d=" M 83.64 -78.183 L 99.72 -78.183 L 99.72 -62.223 L 83.64 -62.223 L 83.64 -78.183 Z " fill="rgb(235,235,235)"/><path d=" M 1112.76 -78.183 L 1128.84 -78.183 L 1128.84 -62.223 L 1112.76 -62.223 L 1112.76 -78.183 Z " fill="rgb(235,235,235)"/><path d=" M 598.2 -78.183 L 614.28 -78.183 L 614.28 -62.223 L 598.2 -62.223 L 598.2 -78.183 Z " fill="rgb(235,235,235)"/><path d=" M 1627.32 -78.183 L 1643.4 -78.183 L 1643.4 -62.223 L 1627.32 -62.223 L 1627.32 -78.183 Z " fill="rgb(235,235,235)"/><path d=" M 340.92 -78.183 L 357 -78.183 L 357 -62.223 L 340.92 -62.223 L 340.92 -78.183 Z " fill="rgb(235,235,235)"/><path d=" M 1370.04 -78.183 L 1386.12 -78.183 L 1386.12 -62.223 L 1370.04 -62.223 L 1370.04 -78.183 Z " fill="rgb(235,235,235)"/><path d=" M 855.48 -78.183 L 871.56 -78.183 L 871.56 -62.223 L 855.48 -62.223 L 855.48 -78.183 Z " fill="rgb(235,235,235)"/><path d=" M 1884.6 -78.183 L 1900.68 -78.183 L 1900.68 -62.223 L 1884.6 -62.223 L 1884.6 -78.183 Z " fill="rgb(235,235,235)"/><path d=" M 19.32 -78.183 L 35.4 -78.183 L 35.4 -62.223 L 19.32 -62.223 L 19.32 -78.183 Z " fill="rgb(235,235,235)"/><path d=" M 1048.44 -78.183 L 1064.52 -78.183 L 1064.52 -62.223 L 1048.44 -62.223 L 1048.44 -78.183 Z " fill="rgb(235,235,235)"/><path d=" M 533.88 -78.183 L 549.96 -78.183 L 549.96 -62.223 L 533.88 -62.223 L 533.88 -78.183 Z " fill="rgb(235,235,235)"/><path d=" M 1563 -78.183 L 1579.08 -78.183 L 1579.08 -62.223 L 1563 -62.223 L 1563 -78.183 Z " fill="rgb(235,235,235)"/><path d=" M 276.6 -78.183 L 292.68 -78.183 L 292.68 -62.223 L 276.6 -62.223 L 276.6 -78.183 Z " fill="rgb(235,235,235)"/><path d=" M 1305.72 -78.183 L 1321.8 -78.183 L 1321.8 -62.223 L 1305.72 -62.223 L 1305.72 -78.183 Z " fill="rgb(235,235,235)"/><path d=" M 791.16 -78.183 L 807.24 -78.183 L 807.24 -62.223 L 791.16 -62.223 L 791.16 -78.183 Z " fill="rgb(235,235,235)"/><path d=" M 1820.28 -78.183 L 1836.36 -78.183 L 1836.36 -62.223 L 1820.28 -62.223 L 1820.28 -78.183 Z " fill="rgb(235,235,235)"/><path d=" M 147.96 -78.183 L 164.04 -78.183 L 164.04 -62.223 L 147.96 -62.223 L 147.96 -78.183 Z " fill="rgb(235,235,235)"/><path d=" M 1177.08 -78.183 L 1193.16 -78.183 L 1193.16 -62.223 L 1177.08 -62.223 L 1177.08 -78.183 Z " fill="rgb(235,235,235)"/><path d=" M 662.52 -78.183 L 678.6 -78.183 L 678.6 -62.223 L 662.52 -62.223 L 662.52 -78.183 Z " fill="rgb(235,235,235)"/><path d=" M 1691.64 -78.183 L 1707.72 -78.183 L 1707.72 -62.223 L 1691.64 -62.223 L 1691.64 -78.183 Z " fill="rgb(235,235,235)"/><path d=" M 405.24 -78.183 L 421.32 -78.183 L 421.32 -62.223 L 405.24 -62.223 L 405.24 -78.183 Z " fill="rgb(235,235,235)"/><path d=" M 1434.36 -78.183 L 1450.44 -78.183 L 1450.44 -62.223 L 1434.36 -62.223 L 1434.36 -78.183 Z " fill="rgb(235,235,235)"/><path d=" M 919.8 -78.183 L 935.88 -78.183 L 935.88 -62.223 L 919.8 -62.223 L 919.8 -78.183 Z " fill="rgb(235,235,235)"/><path d=" M 1948.92 -78.183 L 1965 -78.183 L 1965 -62.223 L 1948.92 -62.223 L 1948.92 -78.183 Z " fill="rgb(235,235,235)"/></g><g id="Group"><path d=" M -45 416.565 L -28.92 416.565 L -28.92 432.525 L -45 432.525 L -45 416.565 Z " fill="rgb(235,235,235)"/><path d=" M 984.12 416.565 L 1000.2 416.565 L 1000.2 432.525 L 984.12 432.525 L 984.12 416.565 Z " fill="rgb(235,235,235)"/><path d=" M 469.56 416.565 L 485.64 416.565 L 485.64 432.525 L 469.56 432.525 L 469.56 416.565 Z " fill="rgb(235,235,235)"/><path d=" M 1498.68 416.565 L 1514.76 416.565 L 1514.76 432.525 L 1498.68 432.525 L 1498.68 416.565 Z " fill="rgb(235,235,235)"/><path d=" M 212.28 416.565 L 228.36 416.565 L 228.36 432.525 L 212.28 432.525 L 212.28 416.565 Z " fill="rgb(235,235,235)"/><path d=" M 1241.4 416.565 L 1257.48 416.565 L 1257.48 432.525 L 1241.4 432.525 L 1241.4 416.565 Z " fill="rgb(235,235,235)"/><path d=" M 726.84 416.565 L 742.92 416.565 L 742.92 432.525 L 726.84 432.525 L 726.84 416.565 Z " fill="rgb(235,235,235)"/><path d=" M 1755.96 416.565 L 1772.04 416.565 L 1772.04 432.525 L 1755.96 432.525 L 1755.96 416.565 Z " fill="rgb(235,235,235)"/><path d=" M 83.64 416.565 L 99.72 416.565 L 99.72 432.525 L 83.64 432.525 L 83.64 416.565 Z " fill="rgb(235,235,235)"/><path d=" M 1112.76 416.565 L 1128.84 416.565 L 1128.84 432.525 L 1112.76 432.525 L 1112.76 416.565 Z " fill="rgb(235,235,235)"/><path d=" M 598.2 416.565 L 614.28 416.565 L 614.28 432.525 L 598.2 432.525 L 598.2 416.565 Z " fill="rgb(235,235,235)"/><path d=" M 1627.32 416.565 L 1643.4 416.565 L 1643.4 432.525 L 1627.32 432.525 L 1627.32 416.565 Z " fill="rgb(235,235,235)"/><path d=" M 340.92 416.565 L 357 416.565 L 357 432.525 L 340.92 432.525 L 340.92 416.565 Z " fill="rgb(235,235,235)"/><path d=" M 1370.04 416.565 L 1386.12 416.565 L 1386.12 432.525 L 1370.04 432.525 L 1370.04 416.565 Z " fill="rgb(235,235,235)"/><path d=" M 855.48 416.565 L 871.56 416.565 L 871.56 432.525 L 855.48 432.525 L 855.48 416.565 Z " fill="rgb(235,235,235)"/><path d=" M 1884.6 416.565 L 1900.68 416.565 L 1900.68 432.525 L 1884.6 432.525 L 1884.6 416.565 Z " fill="rgb(235,235,235)"/><path d=" M 19.32 416.565 L 35.4 416.565 L 35.4 432.525 L 19.32 432.525 L 19.32 416.565 Z " fill="rgb(235,235,235)"/><path d=" M 1048.44 416.565 L 1064.52 416.565 L 1064.52 432.525 L 1048.44 432.525 L 1048.44 416.565 Z " fill="rgb(235,235,235)"/><path d=" M 533.88 416.565 L 549.96 416.565 L 549.96 432.525 L 533.88 432.525 L 533.88 416.565 Z " fill="rgb(235,235,235)"/><path d=" M 1563 416.565 L 1579.08 416.565 L 1579.08 432.525 L 1563 432.525 L 1563 416.565 Z " fill="rgb(235,235,235)"/><path d=" M 276.6 416.565 L 292.68 416.565 L 292.68 432.525 L 276.6 432.525 L 276.6 416.565 Z " fill="rgb(235,235,235)"/><path d=" M 1305.72 416.565 L 1321.8 416.565 L 1321.8 432.525 L 1305.72 432.525 L 1305.72 416.565 Z " fill="rgb(235,235,235)"/><path d=" M 791.16 416.565 L 807.24 416.565 L 807.24 432.525 L 791.16 432.525 L 791.16 416.565 Z " fill="rgb(235,235,235)"/><path d=" M 1820.28 416.565 L 1836.36 416.565 L 1836.36 432.525 L 1820.28 432.525 L 1820.28 416.565 Z " fill="rgb(235,235,235)"/><path d=" M 147.96 416.565 L 164.04 416.565 L 164.04 432.525 L 147.96 432.525 L 147.96 416.565 Z " fill="rgb(235,235,235)"/><path d=" M 1177.08 416.565 L 1193.16 416.565 L 1193.16 432.525 L 1177.08 432.525 L 1177.08 416.565 Z " fill="rgb(235,235,235)"/><path d=" M 662.52 416.565 L 678.6 416.565 L 678.6 432.525 L 662.52 432.525 L 662.52 416.565 Z " fill="rgb(235,235,235)"/><path d=" M 1691.64 416.565 L 1707.72 416.565 L 1707.72 432.525 L 1691.64 432.525 L 1691.64 416.565 Z " fill="rgb(235,235,235)"/><path d=" M 405.24 416.565 L 421.32 416.565 L 421.32 432.525 L 405.24 432.525 L 405.24 416.565 Z " fill="rgb(235,235,235)"/><path d=" M 1434.36 416.565 L 1450.44 416.565 L 1450.44 432.525 L 1434.36 432.525 L 1434.36 416.565 Z " fill="rgb(235,235,235)"/><path d=" M 919.8 416.565 L 935.88 416.565 L 935.88 432.525 L 919.8 432.525 L 919.8 416.565 Z " fill="rgb(235,235,235)"/><path d=" M 1948.92 416.565 L 1965 416.565 L 1965 432.525 L 1948.92 432.525 L 1948.92 416.565 Z " fill="rgb(235,235,235)"/></g><g id="Group"><path d=" M -45 911.314 L -28.92 911.314 L -28.92 927.273 L -45 927.273 L -45 911.314 Z " fill="rgb(235,235,235)"/><path d=" M 984.12 911.314 L 1000.2 911.314 L 1000.2 927.273 L 984.12 927.273 L 984.12 911.314 Z " fill="rgb(235,235,235)"/><path d=" M 469.56 911.314 L 485.64 911.314 L 485.64 927.273 L 469.56 927.273 L 469.56 911.314 Z " fill="rgb(235,235,235)"/><path d=" M 1498.68 911.314 L 1514.76 911.314 L 1514.76 927.273 L 1498.68 927.273 L 1498.68 911.314 Z " fill="rgb(235,235,235)"/><path d=" M 212.28 911.314 L 228.36 911.314 L 228.36 927.273 L 212.28 927.273 L 212.28 911.314 Z " fill="rgb(235,235,235)"/><path d=" M 1241.4 911.314 L 1257.48 911.314 L 1257.48 927.273 L 1241.4 927.273 L 1241.4 911.314 Z " fill="rgb(235,235,235)"/><path d=" M 726.84 911.314 L 742.92 911.314 L 742.92 927.273 L 726.84 927.273 L 726.84 911.314 Z " fill="rgb(235,235,235)"/><path d=" M 1755.96 911.314 L 1772.04 911.314 L 1772.04 927.273 L 1755.96 927.273 L 1755.96 911.314 Z " fill="rgb(235,235,235)"/><path d=" M 83.64 911.314 L 99.72 911.314 L 99.72 927.273 L 83.64 927.273 L 83.64 911.314 Z " fill="rgb(235,235,235)"/><path d=" M 1112.76 911.314 L 1128.84 911.314 L 1128.84 927.273 L 1112.76 927.273 L 1112.76 911.314 Z " fill="rgb(235,235,235)"/><path d=" M 598.2 911.314 L 614.28 911.314 L 614.28 927.273 L 598.2 927.273 L 598.2 911.314 Z " fill="rgb(235,235,235)"/><path d=" M 1627.32 911.314 L 1643.4 911.314 L 1643.4 927.273 L 1627.32 927.273 L 1627.32 911.314 Z " fill="rgb(235,235,235)"/><path d=" M 340.92 911.314 L 357 911.314 L 357 927.273 L 340.92 927.273 L 340.92 911.314 Z " fill="rgb(235,235,235)"/><path d=" M 1370.04 911.314 L 1386.12 911.314 L 1386.12 927.273 L 1370.04 927.273 L 1370.04 911.314 Z " fill="rgb(235,235,235)"/><path d=" M 855.48 911.314 L 871.56 911.314 L 871.56 927.273 L 855.48 927.273 L 855.48 911.314 Z " fill="rgb(235,235,235)"/><path d=" M 1884.6 911.314 L 1900.68 911.314 L 1900.68 927.273 L 1884.6 927.273 L 1884.6 911.314 Z " fill="rgb(235,235,235)"/><path d=" M 19.32 911.314 L 35.4 911.314 L 35.4 927.273 L 19.32 927.273 L 19.32 911.314 Z " fill="rgb(235,235,235)"/><path d=" M 1048.44 911.314 L 1064.52 911.314 L 1064.52 927.273 L 1048.44 927.273 L 1048.44 911.314 Z " fill="rgb(235,235,235)"/><path d=" M 533.88 911.314 L 549.96 911.314 L 549.96 927.273 L 533.88 927.273 L 533.88 911.314 Z " fill="rgb(235,235,235)"/><path d=" M 1563 911.314 L 1579.08 911.314 L 1579.08 927.273 L 1563 927.273 L 1563 911.314 Z " fill="rgb(235,235,235)"/><path d=" M 276.6 911.314 L 292.68 911.314 L 292.68 927.273 L 276.6 927.273 L 276.6 911.314 Z " fill="rgb(235,235,235)"/><path d=" M 1305.72 911.314 L 1321.8 911.314 L 1321.8 927.273 L 1305.72 927.273 L 1305.72 911.314 Z " fill="rgb(235,235,235)"/><path d=" M 791.16 911.314 L 807.24 911.314 L 807.24 927.273 L 791.16 927.273 L 791.16 911.314 Z " fill="rgb(235,235,235)"/><path d=" M 1820.28 911.314 L 1836.36 911.314 L 1836.36 927.273 L 1820.28 927.273 L 1820.28 911.314 Z " fill="rgb(235,235,235)"/><path d=" M 147.96 911.314 L 164.04 911.314 L 164.04 927.273 L 147.96 927.273 L 147.96 911.314 Z " fill="rgb(235,235,235)"/><path d=" M 1177.08 911.314 L 1193.16 911.314 L 1193.16 927.273 L 1177.08 927.273 L 1177.08 911.314 Z " fill="rgb(235,235,235)"/><path d=" M 662.52 911.314 L 678.6 911.314 L 678.6 927.273 L 662.52 927.273 L 662.52 911.314 Z " fill="rgb(235,235,235)"/><path d=" M 1691.64 911.314 L 1707.72 911.314 L 1707.72 927.273 L 1691.64 927.273 L 1691.64 911.314 Z " fill="rgb(235,235,235)"/><path d=" M 405.24 911.314 L 421.32 911.314 L 421.32 927.273 L 405.24 927.273 L 405.24 911.314 Z " fill="rgb(235,235,235)"/><path d=" M 1434.36 911.314 L 1450.44 911.314 L 1450.44 927.273 L 1434.36 927.273 L 1434.36 911.314 Z " fill="rgb(235,235,235)"/><path d=" M 919.8 911.314 L 935.88 911.314 L 935.88 927.273 L 919.8 927.273 L 919.8 911.314 Z " fill="rgb(235,235,235)"/><path d=" M 1948.92 911.314 L 1965 911.314 L 1965 927.273 L 1948.92 927.273 L 1948.92 911.314 Z " fill="rgb(235,235,235)"/></g><g id="Group"><path d=" M -45 161.211 L -28.92 161.211 L -28.92 177.171 L -45 177.171 L -45 161.211 Z " fill="rgb(235,235,235)"/><path d=" M 984.12 161.211 L 1000.2 161.211 L 1000.2 177.171 L 984.12 177.171 L 984.12 161.211 Z " fill="rgb(235,235,235)"/><path d=" M 469.56 161.211 L 485.64 161.211 L 485.64 177.171 L 469.56 177.171 L 469.56 161.211 Z " fill="rgb(235,235,235)"/><path d=" M 1498.68 161.211 L 1514.76 161.211 L 1514.76 177.171 L 1498.68 177.171 L 1498.68 161.211 Z " fill="rgb(235,235,235)"/><path d=" M 212.28 161.211 L 228.36 161.211 L 228.36 177.171 L 212.28 177.171 L 212.28 161.211 Z " fill="rgb(235,235,235)"/><path d=" M 1241.4 161.211 L 1257.48 161.211 L 1257.48 177.171 L 1241.4 177.171 L 1241.4 161.211 Z " fill="rgb(235,235,235)"/><path d=" M 726.84 161.211 L 742.92 161.211 L 742.92 177.171 L 726.84 177.171 L 726.84 161.211 Z " fill="rgb(235,235,235)"/><path d=" M 1755.96 161.211 L 1772.04 161.211 L 1772.04 177.171 L 1755.96 177.171 L 1755.96 161.211 Z " fill="rgb(235,235,235)"/><path d=" M 83.64 161.211 L 99.72 161.211 L 99.72 177.171 L 83.64 177.171 L 83.64 161.211 Z " fill="rgb(235,235,235)"/><path d=" M 1112.76 161.211 L 1128.84 161.211 L 1128.84 177.171 L 1112.76 177.171 L 1112.76 161.211 Z " fill="rgb(235,235,235)"/><path d=" M 598.2 161.211 L 614.28 161.211 L 614.28 177.171 L 598.2 177.171 L 598.2 161.211 Z " fill="rgb(235,235,235)"/><path d=" M 1627.32 161.211 L 1643.4 161.211 L 1643.4 177.171 L 1627.32 177.171 L 1627.32 161.211 Z " fill="rgb(235,235,235)"/><path d=" M 340.92 161.211 L 357 161.211 L 357 177.171 L 340.92 177.171 L 340.92 161.211 Z " fill="rgb(235,235,235)"/><path d=" M 1370.04 161.211 L 1386.12 161.211 L 1386.12 177.171 L 1370.04 177.171 L 1370.04 161.211 Z " fill="rgb(235,235,235)"/><path d=" M 855.48 161.211 L 871.56 161.211 L 871.56 177.171 L 855.48 177.171 L 855.48 161.211 Z " fill="rgb(235,235,235)"/><path d=" M 1884.6 161.211 L 1900.68 161.211 L 1900.68 177.171 L 1884.6 177.171 L 1884.6 161.211 Z " fill="rgb(235,235,235)"/><path d=" M 19.32 161.211 L 35.4 161.211 L 35.4 177.171 L 19.32 177.171 L 19.32 161.211 Z " fill="rgb(235,235,235)"/><path d=" M 1048.44 161.211 L 1064.52 161.211 L 1064.52 177.171 L 1048.44 177.171 L 1048.44 161.211 Z " fill="rgb(235,235,235)"/><path d=" M 533.88 161.211 L 549.96 161.211 L 549.96 177.171 L 533.88 177.171 L 533.88 161.211 Z " fill="rgb(235,235,235)"/><path d=" M 1563 161.211 L 1579.08 161.211 L 1579.08 177.171 L 1563 177.171 L 1563 161.211 Z " fill="rgb(235,235,235)"/><path d=" M 276.6 161.211 L 292.68 161.211 L 292.68 177.171 L 276.6 177.171 L 276.6 161.211 Z " fill="rgb(235,235,235)"/><path d=" M 1305.72 161.211 L 1321.8 161.211 L 1321.8 177.171 L 1305.72 177.171 L 1305.72 161.211 Z " fill="rgb(235,235,235)"/><path d=" M 791.16 161.211 L 807.24 161.211 L 807.24 177.171 L 791.16 177.171 L 791.16 161.211 Z " fill="rgb(235,235,235)"/><path d=" M 1820.28 161.211 L 1836.36 161.211 L 1836.36 177.171 L 1820.28 177.171 L 1820.28 161.211 Z " fill="rgb(235,235,235)"/><path d=" M 147.96 161.211 L 164.04 161.211 L 164.04 177.171 L 147.96 177.171 L 147.96 161.211 Z " fill="rgb(235,235,235)"/><path d=" M 1177.08 161.211 L 1193.16 161.211 L 1193.16 177.171 L 1177.08 177.171 L 1177.08 161.211 Z " fill="rgb(235,235,235)"/><path d=" M 662.52 161.211 L 678.6 161.211 L 678.6 177.171 L 662.52 177.171 L 662.52 161.211 Z " fill="rgb(235,235,235)"/><path d=" M 1691.64 161.211 L 1707.72 161.211 L 1707.72 177.171 L 1691.64 177.171 L 1691.64 161.211 Z " fill="rgb(235,235,235)"/><path d=" M 405.24 161.211 L 421.32 161.211 L 421.32 177.171 L 405.24 177.171 L 405.24 161.211 Z " fill="rgb(235,235,235)"/><path d=" M 1434.36 161.211 L 1450.44 161.211 L 1450.44 177.171 L 1434.36 177.171 L 1434.36 161.211 Z " fill="rgb(235,235,235)"/><path d=" M 919.8 161.211 L 935.88 161.211 L 935.88 177.171 L 919.8 177.171 L 919.8 161.211 Z " fill="rgb(235,235,235)"/><path d=" M 1948.92 161.211 L 1965 161.211 L 1965 177.171 L 1948.92 177.171 L 1948.92 161.211 Z " fill="rgb(235,235,235)"/></g><g id="Group"><path d=" M -45 655.96 L -28.92 655.96 L -28.92 671.919 L -45 671.919 L -45 655.96 Z " fill="rgb(235,235,235)"/><path d=" M 984.12 655.96 L 1000.2 655.96 L 1000.2 671.919 L 984.12 671.919 L 984.12 655.96 Z " fill="rgb(235,235,235)"/><path d=" M 469.56 655.96 L 485.64 655.96 L 485.64 671.919 L 469.56 671.919 L 469.56 655.96 Z " fill="rgb(235,235,235)"/><path d=" M 1498.68 655.96 L 1514.76 655.96 L 1514.76 671.919 L 1498.68 671.919 L 1498.68 655.96 Z " fill="rgb(235,235,235)"/><path d=" M 212.28 655.96 L 228.36 655.96 L 228.36 671.919 L 212.28 671.919 L 212.28 655.96 Z " fill="rgb(235,235,235)"/><path d=" M 1241.4 655.96 L 1257.48 655.96 L 1257.48 671.919 L 1241.4 671.919 L 1241.4 655.96 Z " fill="rgb(235,235,235)"/><path d=" M 726.84 655.96 L 742.92 655.96 L 742.92 671.919 L 726.84 671.919 L 726.84 655.96 Z " fill="rgb(235,235,235)"/><path d=" M 1755.96 655.96 L 1772.04 655.96 L 1772.04 671.919 L 1755.96 671.919 L 1755.96 655.96 Z " fill="rgb(235,235,235)"/><path d=" M 83.64 655.96 L 99.72 655.96 L 99.72 671.919 L 83.64 671.919 L 83.64 655.96 Z " fill="rgb(235,235,235)"/><path d=" M 1112.76 655.96 L 1128.84 655.96 L 1128.84 671.919 L 1112.76 671.919 L 1112.76 655.96 Z " fill="rgb(235,235,235)"/><path d=" M 598.2 655.96 L 614.28 655.96 L 614.28 671.919 L 598.2 671.919 L 598.2 655.96 Z " fill="rgb(235,235,235)"/><path d=" M 1627.32 655.96 L 1643.4 655.96 L 1643.4 671.919 L 1627.32 671.919 L 1627.32 655.96 Z " fill="rgb(235,235,235)"/><path d=" M 340.92 655.96 L 357 655.96 L 357 671.919 L 340.92 671.919 L 340.92 655.96 Z " fill="rgb(235,235,235)"/><path d=" M 1370.04 655.96 L 1386.12 655.96 L 1386.12 671.919 L 1370.04 671.919 L 1370.04 655.96 Z " fill="rgb(235,235,235)"/><path d=" M 855.48 655.96 L 871.56 655.96 L 871.56 671.919 L 855.48 671.919 L 855.48 655.96 Z " fill="rgb(235,235,235)"/><path d=" M 1884.6 655.96 L 1900.68 655.96 L 1900.68 671.919 L 1884.6 671.919 L 1884.6 655.96 Z " fill="rgb(235,235,235)"/><path d=" M 19.32 655.96 L 35.4 655.96 L 35.4 671.919 L 19.32 671.919 L 19.32 655.96 Z " fill="rgb(235,235,235)"/><path d=" M 1048.44 655.96 L 1064.52 655.96 L 1064.52 671.919 L 1048.44 671.919 L 1048.44 655.96 Z " fill="rgb(235,235,235)"/><path d=" M 533.88 655.96 L 549.96 655.96 L 549.96 671.919 L 533.88 671.919 L 533.88 655.96 Z " fill="rgb(235,235,235)"/><path d=" M 1563 655.96 L 1579.08 655.96 L 1579.08 671.919 L 1563 671.919 L 1563 655.96 Z " fill="rgb(235,235,235)"/><path d=" M 276.6 655.96 L 292.68 655.96 L 292.68 671.919 L 276.6 671.919 L 276.6 655.96 Z " fill="rgb(235,235,235)"/><path d=" M 1305.72 655.96 L 1321.8 655.96 L 1321.8 671.919 L 1305.72 671.919 L 1305.72 655.96 Z " fill="rgb(235,235,235)"/><path d=" M 791.16 655.96 L 807.24 655.96 L 807.24 671.919 L 791.16 671.919 L 791.16 655.96 Z " fill="rgb(235,235,235)"/><path d=" M 1820.28 655.96 L 1836.36 655.96 L 1836.36 671.919 L 1820.28 671.919 L 1820.28 655.96 Z " fill="rgb(235,235,235)"/><path d=" M 147.96 655.96 L 164.04 655.96 L 164.04 671.919 L 147.96 671.919 L 147.96 655.96 Z " fill="rgb(235,235,235)"/><path d=" M 1177.08 655.96 L 1193.16 655.96 L 1193.16 671.919 L 1177.08 671.919 L 1177.08 655.96 Z " fill="rgb(235,235,235)"/><path d=" M 662.52 655.96 L 678.6 655.96 L 678.6 671.919 L 662.52 671.919 L 662.52 655.96 Z " fill="rgb(235,235,235)"/><path d=" M 1691.64 655.96 L 1707.72 655.96 L 1707.72 671.919 L 1691.64 671.919 L 1691.64 655.96 Z " fill="rgb(235,235,235)"/><path d=" M 405.24 655.96 L 421.32 655.96 L 421.32 671.919 L 405.24 671.919 L 405.24 655.96 Z " fill="rgb(235,235,235)"/><path d=" M 1434.36 655.96 L 1450.44 655.96 L 1450.44 671.919 L 1434.36 671.919 L 1434.36 655.96 Z " fill="rgb(235,235,235)"/><path d=" M 919.8 655.96 L 935.88 655.96 L 935.88 671.919 L 919.8 671.919 L 919.8 655.96 Z " fill="rgb(235,235,235)"/><path d=" M 1948.92 655.96 L 1965 655.96 L 1965 671.919 L 1948.92 671.919 L 1948.92 655.96 Z " fill="rgb(235,235,235)"/></g><g id="Group"><path d=" M -45 1150.708 L -28.92 1150.708 L -28.92 1166.668 L -45 1166.668 L -45 1150.708 Z " fill="rgb(235,235,235)"/><path d=" M 984.12 1150.708 L 1000.2 1150.708 L 1000.2 1166.668 L 984.12 1166.668 L 984.12 1150.708 Z " fill="rgb(235,235,235)"/><path d=" M 469.56 1150.708 L 485.64 1150.708 L 485.64 1166.668 L 469.56 1166.668 L 469.56 1150.708 Z " fill="rgb(235,235,235)"/><path d=" M 1498.68 1150.708 L 1514.76 1150.708 L 1514.76 1166.668 L 1498.68 1166.668 L 1498.68 1150.708 Z " fill="rgb(235,235,235)"/><path d=" M 212.28 1150.708 L 228.36 1150.708 L 228.36 1166.668 L 212.28 1166.668 L 212.28 1150.708 Z " fill="rgb(235,235,235)"/><path d=" M 1241.4 1150.708 L 1257.48 1150.708 L 1257.48 1166.668 L 1241.4 1166.668 L 1241.4 1150.708 Z " fill="rgb(235,235,235)"/><path d=" M 726.84 1150.708 L 742.92 1150.708 L 742.92 1166.668 L 726.84 1166.668 L 726.84 1150.708 Z " fill="rgb(235,235,235)"/><path d=" M 1755.96 1150.708 L 1772.04 1150.708 L 1772.04 1166.668 L 1755.96 1166.668 L 1755.96 1150.708 Z " fill="rgb(235,235,235)"/><path d=" M 83.64 1150.708 L 99.72 1150.708 L 99.72 1166.668 L 83.64 1166.668 L 83.64 1150.708 Z " fill="rgb(235,235,235)"/><path d=" M 1112.76 1150.708 L 1128.84 1150.708 L 1128.84 1166.668 L 1112.76 1166.668 L 1112.76 1150.708 Z " fill="rgb(235,235,235)"/><path d=" M 598.2 1150.708 L 614.28 1150.708 L 614.28 1166.668 L 598.2 1166.668 L 598.2 1150.708 Z " fill="rgb(235,235,235)"/><path d=" M 1627.32 1150.708 L 1643.4 1150.708 L 1643.4 1166.668 L 1627.32 1166.668 L 1627.32 1150.708 Z " fill="rgb(235,235,235)"/><path d=" M 340.92 1150.708 L 357 1150.708 L 357 1166.668 L 340.92 1166.668 L 340.92 1150.708 Z " fill="rgb(235,235,235)"/><path d=" M 1370.04 1150.708 L 1386.12 1150.708 L 1386.12 1166.668 L 1370.04 1166.668 L 1370.04 1150.708 Z " fill="rgb(235,235,235)"/><path d=" M 855.48 1150.708 L 871.56 1150.708 L 871.56 1166.668 L 855.48 1166.668 L 855.48 1150.708 Z " fill="rgb(235,235,235)"/><path d=" M 1884.6 1150.708 L 1900.68 1150.708 L 1900.68 1166.668 L 1884.6 1166.668 L 1884.6 1150.708 Z " fill="rgb(235,235,235)"/><path d=" M 19.32 1150.708 L 35.4 1150.708 L 35.4 1166.668 L 19.32 1166.668 L 19.32 1150.708 Z " fill="rgb(235,235,235)"/><path d=" M 1048.44 1150.708 L 1064.52 1150.708 L 1064.52 1166.668 L 1048.44 1166.668 L 1048.44 1150.708 Z " fill="rgb(235,235,235)"/><path d=" M 533.88 1150.708 L 549.96 1150.708 L 549.96 1166.668 L 533.88 1166.668 L 533.88 1150.708 Z " fill="rgb(235,235,235)"/><path d=" M 1563 1150.708 L 1579.08 1150.708 L 1579.08 1166.668 L 1563 1166.668 L 1563 1150.708 Z " fill="rgb(235,235,235)"/><path d=" M 276.6 1150.708 L 292.68 1150.708 L 292.68 1166.668 L 276.6 1166.668 L 276.6 1150.708 Z " fill="rgb(235,235,235)"/><path d=" M 1305.72 1150.708 L 1321.8 1150.708 L 1321.8 1166.668 L 1305.72 1166.668 L 1305.72 1150.708 Z " fill="rgb(235,235,235)"/><path d=" M 791.16 1150.708 L 807.24 1150.708 L 807.24 1166.668 L 791.16 1166.668 L 791.16 1150.708 Z " fill="rgb(235,235,235)"/><path d=" M 1820.28 1150.708 L 1836.36 1150.708 L 1836.36 1166.668 L 1820.28 1166.668 L 1820.28 1150.708 Z " fill="rgb(235,235,235)"/><path d=" M 147.96 1150.708 L 164.04 1150.708 L 164.04 1166.668 L 147.96 1166.668 L 147.96 1150.708 Z " fill="rgb(235,235,235)"/><path d=" M 1177.08 1150.708 L 1193.16 1150.708 L 1193.16 1166.668 L 1177.08 1166.668 L 1177.08 1150.708 Z " fill="rgb(235,235,235)"/><path d=" M 662.52 1150.708 L 678.6 1150.708 L 678.6 1166.668 L 662.52 1166.668 L 662.52 1150.708 Z " fill="rgb(235,235,235)"/><path d=" M 1691.64 1150.708 L 1707.72 1150.708 L 1707.72 1166.668 L 1691.64 1166.668 L 1691.64 1150.708 Z " fill="rgb(235,235,235)"/><path d=" M 405.24 1150.708 L 421.32 1150.708 L 421.32 1166.668 L 405.24 1166.668 L 405.24 1150.708 Z " fill="rgb(235,235,235)"/><path d=" M 1434.36 1150.708 L 1450.44 1150.708 L 1450.44 1166.668 L 1434.36 1166.668 L 1434.36 1150.708 Z " fill="rgb(235,235,235)"/><path d=" M 919.8 1150.708 L 935.88 1150.708 L 935.88 1166.668 L 919.8 1166.668 L 919.8 1150.708 Z " fill="rgb(235,235,235)"/><path d=" M 1948.92 1150.708 L 1965 1150.708 L 1965 1166.668 L 1948.92 1166.668 L 1948.92 1150.708 Z " fill="rgb(235,235,235)"/></g><g id="Group"><path d=" M -45 49.494 L -28.92 49.494 L -28.92 65.454 L -45 65.454 L -45 49.494 Z " fill="rgb(235,235,235)"/><path d=" M 984.12 49.494 L 1000.2 49.494 L 1000.2 65.454 L 984.12 65.454 L 984.12 49.494 Z " fill="rgb(235,235,235)"/><path d=" M 469.56 49.494 L 485.64 49.494 L 485.64 65.454 L 469.56 65.454 L 469.56 49.494 Z " fill="rgb(235,235,235)"/><path d=" M 1498.68 49.494 L 1514.76 49.494 L 1514.76 65.454 L 1498.68 65.454 L 1498.68 49.494 Z " fill="rgb(235,235,235)"/><path d=" M 212.28 49.494 L 228.36 49.494 L 228.36 65.454 L 212.28 65.454 L 212.28 49.494 Z " fill="rgb(235,235,235)"/><path d=" M 1241.4 49.494 L 1257.48 49.494 L 1257.48 65.454 L 1241.4 65.454 L 1241.4 49.494 Z " fill="rgb(235,235,235)"/><path d=" M 726.84 49.494 L 742.92 49.494 L 742.92 65.454 L 726.84 65.454 L 726.84 49.494 Z " fill="rgb(235,235,235)"/><path d=" M 1755.96 49.494 L 1772.04 49.494 L 1772.04 65.454 L 1755.96 65.454 L 1755.96 49.494 Z " fill="rgb(235,235,235)"/><path d=" M 83.64 49.494 L 99.72 49.494 L 99.72 65.454 L 83.64 65.454 L 83.64 49.494 Z " fill="rgb(235,235,235)"/><path d=" M 1112.76 49.494 L 1128.84 49.494 L 1128.84 65.454 L 1112.76 65.454 L 1112.76 49.494 Z " fill="rgb(235,235,235)"/><path d=" M 598.2 49.494 L 614.28 49.494 L 614.28 65.454 L 598.2 65.454 L 598.2 49.494 Z " fill="rgb(235,235,235)"/><path d=" M 1627.32 49.494 L 1643.4 49.494 L 1643.4 65.454 L 1627.32 65.454 L 1627.32 49.494 Z " fill="rgb(235,235,235)"/><path d=" M 340.92 49.494 L 357 49.494 L 357 65.454 L 340.92 65.454 L 340.92 49.494 Z " fill="rgb(235,235,235)"/><path d=" M 1370.04 49.494 L 1386.12 49.494 L 1386.12 65.454 L 1370.04 65.454 L 1370.04 49.494 Z " fill="rgb(235,235,235)"/><path d=" M 855.48 49.494 L 871.56 49.494 L 871.56 65.454 L 855.48 65.454 L 855.48 49.494 Z " fill="rgb(235,235,235)"/><path d=" M 1884.6 49.494 L 1900.68 49.494 L 1900.68 65.454 L 1884.6 65.454 L 1884.6 49.494 Z " fill="rgb(235,235,235)"/><path d=" M 19.32 49.494 L 35.4 49.494 L 35.4 65.454 L 19.32 65.454 L 19.32 49.494 Z " fill="rgb(235,235,235)"/><path d=" M 1048.44 49.494 L 1064.52 49.494 L 1064.52 65.454 L 1048.44 65.454 L 1048.44 49.494 Z " fill="rgb(235,235,235)"/><path d=" M 533.88 49.494 L 549.96 49.494 L 549.96 65.454 L 533.88 65.454 L 533.88 49.494 Z " fill="rgb(235,235,235)"/><path d=" M 1563 49.494 L 1579.08 49.494 L 1579.08 65.454 L 1563 65.454 L 1563 49.494 Z " fill="rgb(235,235,235)"/><path d=" M 276.6 49.494 L 292.68 49.494 L 292.68 65.454 L 276.6 65.454 L 276.6 49.494 Z " fill="rgb(235,235,235)"/><path d=" M 1305.72 49.494 L 1321.8 49.494 L 1321.8 65.454 L 1305.72 65.454 L 1305.72 49.494 Z " fill="rgb(235,235,235)"/><path d=" M 791.16 49.494 L 807.24 49.494 L 807.24 65.454 L 791.16 65.454 L 791.16 49.494 Z " fill="rgb(235,235,235)"/><path d=" M 1820.28 49.494 L 1836.36 49.494 L 1836.36 65.454 L 1820.28 65.454 L 1820.28 49.494 Z " fill="rgb(235,235,235)"/><path d=" M 147.96 49.494 L 164.04 49.494 L 164.04 65.454 L 147.96 65.454 L 147.96 49.494 Z " fill="rgb(235,235,235)"/><path d=" M 1177.08 49.494 L 1193.16 49.494 L 1193.16 65.454 L 1177.08 65.454 L 1177.08 49.494 Z " fill="rgb(235,235,235)"/><path d=" M 662.52 49.494 L 678.6 49.494 L 678.6 65.454 L 662.52 65.454 L 662.52 49.494 Z " fill="rgb(235,235,235)"/><path d=" M 1691.64 49.494 L 1707.72 49.494 L 1707.72 65.454 L 1691.64 65.454 L 1691.64 49.494 Z " fill="rgb(235,235,235)"/><path d=" M 405.24 49.494 L 421.32 49.494 L 421.32 65.454 L 405.24 65.454 L 405.24 49.494 Z " fill="rgb(235,235,235)"/><path d=" M 1434.36 49.494 L 1450.44 49.494 L 1450.44 65.454 L 1434.36 65.454 L 1434.36 49.494 Z " fill="rgb(235,235,235)"/><path d=" M 919.8 49.494 L 935.88 49.494 L 935.88 65.454 L 919.8 65.454 L 919.8 49.494 Z " fill="rgb(235,235,235)"/><path d=" M 1948.92 49.494 L 1965 49.494 L 1965 65.454 L 1948.92 65.454 L 1948.92 49.494 Z " fill="rgb(235,235,235)"/></g><g id="Group"><path d=" M -45 544.242 L -28.92 544.242 L -28.92 560.202 L -45 560.202 L -45 544.242 Z " fill="rgb(235,235,235)"/><path d=" M 984.12 544.242 L 1000.2 544.242 L 1000.2 560.202 L 984.12 560.202 L 984.12 544.242 Z " fill="rgb(235,235,235)"/><path d=" M 469.56 544.242 L 485.64 544.242 L 485.64 560.202 L 469.56 560.202 L 469.56 544.242 Z " fill="rgb(235,235,235)"/><path d=" M 1498.68 544.242 L 1514.76 544.242 L 1514.76 560.202 L 1498.68 560.202 L 1498.68 544.242 Z " fill="rgb(235,235,235)"/><path d=" M 212.28 544.242 L 228.36 544.242 L 228.36 560.202 L 212.28 560.202 L 212.28 544.242 Z " fill="rgb(235,235,235)"/><path d=" M 1241.4 544.242 L 1257.48 544.242 L 1257.48 560.202 L 1241.4 560.202 L 1241.4 544.242 Z " fill="rgb(235,235,235)"/><path d=" M 726.84 544.242 L 742.92 544.242 L 742.92 560.202 L 726.84 560.202 L 726.84 544.242 Z " fill="rgb(235,235,235)"/><path d=" M 1755.96 544.242 L 1772.04 544.242 L 1772.04 560.202 L 1755.96 560.202 L 1755.96 544.242 Z " fill="rgb(235,235,235)"/><path d=" M 83.64 544.242 L 99.72 544.242 L 99.72 560.202 L 83.64 560.202 L 83.64 544.242 Z " fill="rgb(235,235,235)"/><path d=" M 1112.76 544.242 L 1128.84 544.242 L 1128.84 560.202 L 1112.76 560.202 L 1112.76 544.242 Z " fill="rgb(235,235,235)"/><path d=" M 598.2 544.242 L 614.28 544.242 L 614.28 560.202 L 598.2 560.202 L 598.2 544.242 Z " fill="rgb(235,235,235)"/><path d=" M 1627.32 544.242 L 1643.4 544.242 L 1643.4 560.202 L 1627.32 560.202 L 1627.32 544.242 Z " fill="rgb(235,235,235)"/><path d=" M 340.92 544.242 L 357 544.242 L 357 560.202 L 340.92 560.202 L 340.92 544.242 Z " fill="rgb(235,235,235)"/><path d=" M 1370.04 544.242 L 1386.12 544.242 L 1386.12 560.202 L 1370.04 560.202 L 1370.04 544.242 Z " fill="rgb(235,235,235)"/><path d=" M 855.48 544.242 L 871.56 544.242 L 871.56 560.202 L 855.48 560.202 L 855.48 544.242 Z " fill="rgb(235,235,235)"/><path d=" M 1884.6 544.242 L 1900.68 544.242 L 1900.68 560.202 L 1884.6 560.202 L 1884.6 544.242 Z " fill="rgb(235,235,235)"/><path d=" M 19.32 544.242 L 35.4 544.242 L 35.4 560.202 L 19.32 560.202 L 19.32 544.242 Z " fill="rgb(235,235,235)"/><path d=" M 1048.44 544.242 L 1064.52 544.242 L 1064.52 560.202 L 1048.44 560.202 L 1048.44 544.242 Z " fill="rgb(235,235,235)"/><path d=" M 533.88 544.242 L 549.96 544.242 L 549.96 560.202 L 533.88 560.202 L 533.88 544.242 Z " fill="rgb(235,235,235)"/><path d=" M 1563 544.242 L 1579.08 544.242 L 1579.08 560.202 L 1563 560.202 L 1563 544.242 Z " fill="rgb(235,235,235)"/><path d=" M 276.6 544.242 L 292.68 544.242 L 292.68 560.202 L 276.6 560.202 L 276.6 544.242 Z " fill="rgb(235,235,235)"/><path d=" M 1305.72 544.242 L 1321.8 544.242 L 1321.8 560.202 L 1305.72 560.202 L 1305.72 544.242 Z " fill="rgb(235,235,235)"/><path d=" M 791.16 544.242 L 807.24 544.242 L 807.24 560.202 L 791.16 560.202 L 791.16 544.242 Z " fill="rgb(235,235,235)"/><path d=" M 1820.28 544.242 L 1836.36 544.242 L 1836.36 560.202 L 1820.28 560.202 L 1820.28 544.242 Z " fill="rgb(235,235,235)"/><path d=" M 147.96 544.242 L 164.04 544.242 L 164.04 560.202 L 147.96 560.202 L 147.96 544.242 Z " fill="rgb(235,235,235)"/><path d=" M 1177.08 544.242 L 1193.16 544.242 L 1193.16 560.202 L 1177.08 560.202 L 1177.08 544.242 Z " fill="rgb(235,235,235)"/><path d=" M 662.52 544.242 L 678.6 544.242 L 678.6 560.202 L 662.52 560.202 L 662.52 544.242 Z " fill="rgb(235,235,235)"/><path d=" M 1691.64 544.242 L 1707.72 544.242 L 1707.72 560.202 L 1691.64 560.202 L 1691.64 544.242 Z " fill="rgb(235,235,235)"/><path d=" M 405.24 544.242 L 421.32 544.242 L 421.32 560.202 L 405.24 560.202 L 405.24 544.242 Z " fill="rgb(235,235,235)"/><path d=" M 1434.36 544.242 L 1450.44 544.242 L 1450.44 560.202 L 1434.36 560.202 L 1434.36 544.242 Z " fill="rgb(235,235,235)"/><path d=" M 919.8 544.242 L 935.88 544.242 L 935.88 560.202 L 919.8 560.202 L 919.8 544.242 Z " fill="rgb(235,235,235)"/><path d=" M 1948.92 544.242 L 1965 544.242 L 1965 560.202 L 1948.92 560.202 L 1948.92 544.242 Z " fill="rgb(235,235,235)"/></g><g id="Group"><path d=" M -45 1038.991 L -28.92 1038.991 L -28.92 1054.95 L -45 1054.95 L -45 1038.991 Z " fill="rgb(235,235,235)"/><path d=" M 984.12 1038.991 L 1000.2 1038.991 L 1000.2 1054.95 L 984.12 1054.95 L 984.12 1038.991 Z " fill="rgb(235,235,235)"/><path d=" M 469.56 1038.991 L 485.64 1038.991 L 485.64 1054.95 L 469.56 1054.95 L 469.56 1038.991 Z " fill="rgb(235,235,235)"/><path d=" M 1498.68 1038.991 L 1514.76 1038.991 L 1514.76 1054.95 L 1498.68 1054.95 L 1498.68 1038.991 Z " fill="rgb(235,235,235)"/><path d=" M 212.28 1038.991 L 228.36 1038.991 L 228.36 1054.95 L 212.28 1054.95 L 212.28 1038.991 Z " fill="rgb(235,235,235)"/><path d=" M 1241.4 1038.991 L 1257.48 1038.991 L 1257.48 1054.95 L 1241.4 1054.95 L 1241.4 1038.991 Z " fill="rgb(235,235,235)"/><path d=" M 726.84 1038.991 L 742.92 1038.991 L 742.92 1054.95 L 726.84 1054.95 L 726.84 1038.991 Z " fill="rgb(235,235,235)"/><path d=" M 1755.96 1038.991 L 1772.04 1038.991 L 1772.04 1054.95 L 1755.96 1054.95 L 1755.96 1038.991 Z " fill="rgb(235,235,235)"/><path d=" M 83.64 1038.991 L 99.72 1038.991 L 99.72 1054.95 L 83.64 1054.95 L 83.64 1038.991 Z " fill="rgb(235,235,235)"/><path d=" M 1112.76 1038.991 L 1128.84 1038.991 L 1128.84 1054.95 L 1112.76 1054.95 L 1112.76 1038.991 Z " fill="rgb(235,235,235)"/><path d=" M 598.2 1038.991 L 614.28 1038.991 L 614.28 1054.95 L 598.2 1054.95 L 598.2 1038.991 Z " fill="rgb(235,235,235)"/><path d=" M 1627.32 1038.991 L 1643.4 1038.991 L 1643.4 1054.95 L 1627.32 1054.95 L 1627.32 1038.991 Z " fill="rgb(235,235,235)"/><path d=" M 340.92 1038.991 L 357 1038.991 L 357 1054.95 L 340.92 1054.95 L 340.92 1038.991 Z " fill="rgb(235,235,235)"/><path d=" M 1370.04 1038.991 L 1386.12 1038.991 L 1386.12 1054.95 L 1370.04 1054.95 L 1370.04 1038.991 Z " fill="rgb(235,235,235)"/><path d=" M 855.48 1038.991 L 871.56 1038.991 L 871.56 1054.95 L 855.48 1054.95 L 855.48 1038.991 Z " fill="rgb(235,235,235)"/><path d=" M 1884.6 1038.991 L 1900.68 1038.991 L 1900.68 1054.95 L 1884.6 1054.95 L 1884.6 1038.991 Z " fill="rgb(235,235,235)"/><path d=" M 19.32 1038.991 L 35.4 1038.991 L 35.4 1054.95 L 19.32 1054.95 L 19.32 1038.991 Z " fill="rgb(235,235,235)"/><path d=" M 1048.44 1038.991 L 1064.52 1038.991 L 1064.52 1054.95 L 1048.44 1054.95 L 1048.44 1038.991 Z " fill="rgb(235,235,235)"/><path d=" M 533.88 1038.991 L 549.96 1038.991 L 549.96 1054.95 L 533.88 1054.95 L 533.88 1038.991 Z " fill="rgb(235,235,235)"/><path d=" M 1563 1038.991 L 1579.08 1038.991 L 1579.08 1054.95 L 1563 1054.95 L 1563 1038.991 Z " fill="rgb(235,235,235)"/><path d=" M 276.6 1038.991 L 292.68 1038.991 L 292.68 1054.95 L 276.6 1054.95 L 276.6 1038.991 Z " fill="rgb(235,235,235)"/><path d=" M 1305.72 1038.991 L 1321.8 1038.991 L 1321.8 1054.95 L 1305.72 1054.95 L 1305.72 1038.991 Z " fill="rgb(235,235,235)"/><path d=" M 791.16 1038.991 L 807.24 1038.991 L 807.24 1054.95 L 791.16 1054.95 L 791.16 1038.991 Z " fill="rgb(235,235,235)"/><path d=" M 1820.28 1038.991 L 1836.36 1038.991 L 1836.36 1054.95 L 1820.28 1054.95 L 1820.28 1038.991 Z " fill="rgb(235,235,235)"/><path d=" M 147.96 1038.991 L 164.04 1038.991 L 164.04 1054.95 L 147.96 1054.95 L 147.96 1038.991 Z " fill="rgb(235,235,235)"/><path d=" M 1177.08 1038.991 L 1193.16 1038.991 L 1193.16 1054.95 L 1177.08 1054.95 L 1177.08 1038.991 Z " fill="rgb(235,235,235)"/><path d=" M 662.52 1038.991 L 678.6 1038.991 L 678.6 1054.95 L 662.52 1054.95 L 662.52 1038.991 Z " fill="rgb(235,235,235)"/><path d=" M 1691.64 1038.991 L 1707.72 1038.991 L 1707.72 1054.95 L 1691.64 1054.95 L 1691.64 1038.991 Z " fill="rgb(235,235,235)"/><path d=" M 405.24 1038.991 L 421.32 1038.991 L 421.32 1054.95 L 405.24 1054.95 L 405.24 1038.991 Z " fill="rgb(235,235,235)"/><path d=" M 1434.36 1038.991 L 1450.44 1038.991 L 1450.44 1054.95 L 1434.36 1054.95 L 1434.36 1038.991 Z " fill="rgb(235,235,235)"/><path d=" M 919.8 1038.991 L 935.88 1038.991 L 935.88 1054.95 L 919.8 1054.95 L 919.8 1038.991 Z " fill="rgb(235,235,235)"/><path d=" M 1948.92 1038.991 L 1965 1038.991 L 1965 1054.95 L 1948.92 1054.95 L 1948.92 1038.991 Z " fill="rgb(235,235,235)"/></g><g id="Group"><path d=" M -45 288.888 L -28.92 288.888 L -28.92 304.848 L -45 304.848 L -45 288.888 Z " fill="rgb(235,235,235)"/><path d=" M 984.12 288.888 L 1000.2 288.888 L 1000.2 304.848 L 984.12 304.848 L 984.12 288.888 Z " fill="rgb(235,235,235)"/><path d=" M 469.56 288.888 L 485.64 288.888 L 485.64 304.848 L 469.56 304.848 L 469.56 288.888 Z " fill="rgb(235,235,235)"/><path d=" M 1498.68 288.888 L 1514.76 288.888 L 1514.76 304.848 L 1498.68 304.848 L 1498.68 288.888 Z " fill="rgb(235,235,235)"/><path d=" M 212.28 288.888 L 228.36 288.888 L 228.36 304.848 L 212.28 304.848 L 212.28 288.888 Z " fill="rgb(235,235,235)"/><path d=" M 1241.4 288.888 L 1257.48 288.888 L 1257.48 304.848 L 1241.4 304.848 L 1241.4 288.888 Z " fill="rgb(235,235,235)"/><path d=" M 726.84 288.888 L 742.92 288.888 L 742.92 304.848 L 726.84 304.848 L 726.84 288.888 Z " fill="rgb(235,235,235)"/><path d=" M 1755.96 288.888 L 1772.04 288.888 L 1772.04 304.848 L 1755.96 304.848 L 1755.96 288.888 Z " fill="rgb(235,235,235)"/><path d=" M 83.64 288.888 L 99.72 288.888 L 99.72 304.848 L 83.64 304.848 L 83.64 288.888 Z " fill="rgb(235,235,235)"/><path d=" M 1112.76 288.888 L 1128.84 288.888 L 1128.84 304.848 L 1112.76 304.848 L 1112.76 288.888 Z " fill="rgb(235,235,235)"/><path d=" M 598.2 288.888 L 614.28 288.888 L 614.28 304.848 L 598.2 304.848 L 598.2 288.888 Z " fill="rgb(235,235,235)"/><path d=" M 1627.32 288.888 L 1643.4 288.888 L 1643.4 304.848 L 1627.32 304.848 L 1627.32 288.888 Z " fill="rgb(235,235,235)"/><path d=" M 340.92 288.888 L 357 288.888 L 357 304.848 L 340.92 304.848 L 340.92 288.888 Z " fill="rgb(235,235,235)"/><path d=" M 1370.04 288.888 L 1386.12 288.888 L 1386.12 304.848 L 1370.04 304.848 L 1370.04 288.888 Z " fill="rgb(235,235,235)"/><path d=" M 855.48 288.888 L 871.56 288.888 L 871.56 304.848 L 855.48 304.848 L 855.48 288.888 Z " fill="rgb(235,235,235)"/><path d=" M 1884.6 288.888 L 1900.68 288.888 L 1900.68 304.848 L 1884.6 304.848 L 1884.6 288.888 Z " fill="rgb(235,235,235)"/><path d=" M 19.32 288.888 L 35.4 288.888 L 35.4 304.848 L 19.32 304.848 L 19.32 288.888 Z " fill="rgb(235,235,235)"/><path d=" M 1048.44 288.888 L 1064.52 288.888 L 1064.52 304.848 L 1048.44 304.848 L 1048.44 288.888 Z " fill="rgb(235,235,235)"/><path d=" M 533.88 288.888 L 549.96 288.888 L 549.96 304.848 L 533.88 304.848 L 533.88 288.888 Z " fill="rgb(235,235,235)"/><path d=" M 1563 288.888 L 1579.08 288.888 L 1579.08 304.848 L 1563 304.848 L 1563 288.888 Z " fill="rgb(235,235,235)"/><path d=" M 276.6 288.888 L 292.68 288.888 L 292.68 304.848 L 276.6 304.848 L 276.6 288.888 Z " fill="rgb(235,235,235)"/><path d=" M 1305.72 288.888 L 1321.8 288.888 L 1321.8 304.848 L 1305.72 304.848 L 1305.72 288.888 Z " fill="rgb(235,235,235)"/><path d=" M 791.16 288.888 L 807.24 288.888 L 807.24 304.848 L 791.16 304.848 L 791.16 288.888 Z " fill="rgb(235,235,235)"/><path d=" M 1820.28 288.888 L 1836.36 288.888 L 1836.36 304.848 L 1820.28 304.848 L 1820.28 288.888 Z " fill="rgb(235,235,235)"/><path d=" M 147.96 288.888 L 164.04 288.888 L 164.04 304.848 L 147.96 304.848 L 147.96 288.888 Z " fill="rgb(235,235,235)"/><path d=" M 1177.08 288.888 L 1193.16 288.888 L 1193.16 304.848 L 1177.08 304.848 L 1177.08 288.888 Z " fill="rgb(235,235,235)"/><path d=" M 662.52 288.888 L 678.6 288.888 L 678.6 304.848 L 662.52 304.848 L 662.52 288.888 Z " fill="rgb(235,235,235)"/><path d=" M 1691.64 288.888 L 1707.72 288.888 L 1707.72 304.848 L 1691.64 304.848 L 1691.64 288.888 Z " fill="rgb(235,235,235)"/><path d=" M 405.24 288.888 L 421.32 288.888 L 421.32 304.848 L 405.24 304.848 L 405.24 288.888 Z " fill="rgb(235,235,235)"/><path d=" M 1434.36 288.888 L 1450.44 288.888 L 1450.44 304.848 L 1434.36 304.848 L 1434.36 288.888 Z " fill="rgb(235,235,235)"/><path d=" M 919.8 288.888 L 935.88 288.888 L 935.88 304.848 L 919.8 304.848 L 919.8 288.888 Z " fill="rgb(235,235,235)"/><path d=" M 1948.92 288.888 L 1965 288.888 L 1965 304.848 L 1948.92 304.848 L 1948.92 288.888 Z " fill="rgb(235,235,235)"/></g><g id="Group"><path d=" M -45 783.637 L -28.92 783.637 L -28.92 799.596 L -45 799.596 L -45 783.637 Z " fill="rgb(235,235,235)"/><path d=" M 984.12 783.637 L 1000.2 783.637 L 1000.2 799.596 L 984.12 799.596 L 984.12 783.637 Z " fill="rgb(235,235,235)"/><path d=" M 469.56 783.637 L 485.64 783.637 L 485.64 799.596 L 469.56 799.596 L 469.56 783.637 Z " fill="rgb(235,235,235)"/><path d=" M 1498.68 783.637 L 1514.76 783.637 L 1514.76 799.596 L 1498.68 799.596 L 1498.68 783.637 Z " fill="rgb(235,235,235)"/><path d=" M 212.28 783.637 L 228.36 783.637 L 228.36 799.596 L 212.28 799.596 L 212.28 783.637 Z " fill="rgb(235,235,235)"/><path d=" M 1241.4 783.637 L 1257.48 783.637 L 1257.48 799.596 L 1241.4 799.596 L 1241.4 783.637 Z " fill="rgb(235,235,235)"/><path d=" M 726.84 783.637 L 742.92 783.637 L 742.92 799.596 L 726.84 799.596 L 726.84 783.637 Z " fill="rgb(235,235,235)"/><path d=" M 1755.96 783.637 L 1772.04 783.637 L 1772.04 799.596 L 1755.96 799.596 L 1755.96 783.637 Z " fill="rgb(235,235,235)"/><path d=" M 83.64 783.637 L 99.72 783.637 L 99.72 799.596 L 83.64 799.596 L 83.64 783.637 Z " fill="rgb(235,235,235)"/><path d=" M 1112.76 783.637 L 1128.84 783.637 L 1128.84 799.596 L 1112.76 799.596 L 1112.76 783.637 Z " fill="rgb(235,235,235)"/><path d=" M 598.2 783.637 L 614.28 783.637 L 614.28 799.596 L 598.2 799.596 L 598.2 783.637 Z " fill="rgb(235,235,235)"/><path d=" M 1627.32 783.637 L 1643.4 783.637 L 1643.4 799.596 L 1627.32 799.596 L 1627.32 783.637 Z " fill="rgb(235,235,235)"/><path d=" M 340.92 783.637 L 357 783.637 L 357 799.596 L 340.92 799.596 L 340.92 783.637 Z " fill="rgb(235,235,235)"/><path d=" M 1370.04 783.637 L 1386.12 783.637 L 1386.12 799.596 L 1370.04 799.596 L 1370.04 783.637 Z " fill="rgb(235,235,235)"/><path d=" M 855.48 783.637 L 871.56 783.637 L 871.56 799.596 L 855.48 799.596 L 855.48 783.637 Z " fill="rgb(235,235,235)"/><path d=" M 1884.6 783.637 L 1900.68 783.637 L 1900.68 799.596 L 1884.6 799.596 L 1884.6 783.637 Z " fill="rgb(235,235,235)"/><path d=" M 19.32 783.637 L 35.4 783.637 L 35.4 799.596 L 19.32 799.596 L 19.32 783.637 Z " fill="rgb(235,235,235)"/><path d=" M 1048.44 783.637 L 1064.52 783.637 L 1064.52 799.596 L 1048.44 799.596 L 1048.44 783.637 Z " fill="rgb(235,235,235)"/><path d=" M 533.88 783.637 L 549.96 783.637 L 549.96 799.596 L 533.88 799.596 L 533.88 783.637 Z " fill="rgb(235,235,235)"/><path d=" M 1563 783.637 L 1579.08 783.637 L 1579.08 799.596 L 1563 799.596 L 1563 783.637 Z " fill="rgb(235,235,235)"/><path d=" M 276.6 783.637 L 292.68 783.637 L 292.68 799.596 L 276.6 799.596 L 276.6 783.637 Z " fill="rgb(235,235,235)"/><path d=" M 1305.72 783.637 L 1321.8 783.637 L 1321.8 799.596 L 1305.72 799.596 L 1305.72 783.637 Z " fill="rgb(235,235,235)"/><path d=" M 791.16 783.637 L 807.24 783.637 L 807.24 799.596 L 791.16 799.596 L 791.16 783.637 Z " fill="rgb(235,235,235)"/><path d=" M 1820.28 783.637 L 1836.36 783.637 L 1836.36 799.596 L 1820.28 799.596 L 1820.28 783.637 Z " fill="rgb(235,235,235)"/><path d=" M 147.96 783.637 L 164.04 783.637 L 164.04 799.596 L 147.96 799.596 L 147.96 783.637 Z " fill="rgb(235,235,235)"/><path d=" M 1177.08 783.637 L 1193.16 783.637 L 1193.16 799.596 L 1177.08 799.596 L 1177.08 783.637 Z " fill="rgb(235,235,235)"/><path d=" M 662.52 783.637 L 678.6 783.637 L 678.6 799.596 L 662.52 799.596 L 662.52 783.637 Z " fill="rgb(235,235,235)"/><path d=" M 1691.64 783.637 L 1707.72 783.637 L 1707.72 799.596 L 1691.64 799.596 L 1691.64 783.637 Z " fill="rgb(235,235,235)"/><path d=" M 405.24 783.637 L 421.32 783.637 L 421.32 799.596 L 405.24 799.596 L 405.24 783.637 Z " fill="rgb(235,235,235)"/><path d=" M 1434.36 783.637 L 1450.44 783.637 L 1450.44 799.596 L 1434.36 799.596 L 1434.36 783.637 Z " fill="rgb(235,235,235)"/><path d=" M 919.8 783.637 L 935.88 783.637 L 935.88 799.596 L 919.8 799.596 L 919.8 783.637 Z " fill="rgb(235,235,235)"/><path d=" M 1948.92 783.637 L 1965 783.637 L 1965 799.596 L 1948.92 799.596 L 1948.92 783.637 Z " fill="rgb(235,235,235)"/></g><g id="Group"><path d=" M -45 1278.385 L -28.92 1278.385 L -28.92 1294.345 L -45 1294.345 L -45 1278.385 Z " fill="rgb(235,235,235)"/><path d=" M 984.12 1278.385 L 1000.2 1278.385 L 1000.2 1294.345 L 984.12 1294.345 L 984.12 1278.385 Z " fill="rgb(235,235,235)"/><path d=" M 469.56 1278.385 L 485.64 1278.385 L 485.64 1294.345 L 469.56 1294.345 L 469.56 1278.385 Z " fill="rgb(235,235,235)"/><path d=" M 1498.68 1278.385 L 1514.76 1278.385 L 1514.76 1294.345 L 1498.68 1294.345 L 1498.68 1278.385 Z " fill="rgb(235,235,235)"/><path d=" M 212.28 1278.385 L 228.36 1278.385 L 228.36 1294.345 L 212.28 1294.345 L 212.28 1278.385 Z " fill="rgb(235,235,235)"/><path d=" M 1241.4 1278.385 L 1257.48 1278.385 L 1257.48 1294.345 L 1241.4 1294.345 L 1241.4 1278.385 Z " fill="rgb(235,235,235)"/><path d=" M 726.84 1278.385 L 742.92 1278.385 L 742.92 1294.345 L 726.84 1294.345 L 726.84 1278.385 Z " fill="rgb(235,235,235)"/><path d=" M 1755.96 1278.385 L 1772.04 1278.385 L 1772.04 1294.345 L 1755.96 1294.345 L 1755.96 1278.385 Z " fill="rgb(235,235,235)"/><path d=" M 83.64 1278.385 L 99.72 1278.385 L 99.72 1294.345 L 83.64 1294.345 L 83.64 1278.385 Z " fill="rgb(235,235,235)"/><path d=" M 1112.76 1278.385 L 1128.84 1278.385 L 1128.84 1294.345 L 1112.76 1294.345 L 1112.76 1278.385 Z " fill="rgb(235,235,235)"/><path d=" M 598.2 1278.385 L 614.28 1278.385 L 614.28 1294.345 L 598.2 1294.345 L 598.2 1278.385 Z " fill="rgb(235,235,235)"/><path d=" M 1627.32 1278.385 L 1643.4 1278.385 L 1643.4 1294.345 L 1627.32 1294.345 L 1627.32 1278.385 Z " fill="rgb(235,235,235)"/><path d=" M 340.92 1278.385 L 357 1278.385 L 357 1294.345 L 340.92 1294.345 L 340.92 1278.385 Z " fill="rgb(235,235,235)"/><path d=" M 1370.04 1278.385 L 1386.12 1278.385 L 1386.12 1294.345 L 1370.04 1294.345 L 1370.04 1278.385 Z " fill="rgb(235,235,235)"/><path d=" M 855.48 1278.385 L 871.56 1278.385 L 871.56 1294.345 L 855.48 1294.345 L 855.48 1278.385 Z " fill="rgb(235,235,235)"/><path d=" M 1884.6 1278.385 L 1900.68 1278.385 L 1900.68 1294.345 L 1884.6 1294.345 L 1884.6 1278.385 Z " fill="rgb(235,235,235)"/><path d=" M 19.32 1278.385 L 35.4 1278.385 L 35.4 1294.345 L 19.32 1294.345 L 19.32 1278.385 Z " fill="rgb(235,235,235)"/><path d=" M 1048.44 1278.385 L 1064.52 1278.385 L 1064.52 1294.345 L 1048.44 1294.345 L 1048.44 1278.385 Z " fill="rgb(235,235,235)"/><path d=" M 533.88 1278.385 L 549.96 1278.385 L 549.96 1294.345 L 533.88 1294.345 L 533.88 1278.385 Z " fill="rgb(235,235,235)"/><path d=" M 1563 1278.385 L 1579.08 1278.385 L 1579.08 1294.345 L 1563 1294.345 L 1563 1278.385 Z " fill="rgb(235,235,235)"/><path d=" M 276.6 1278.385 L 292.68 1278.385 L 292.68 1294.345 L 276.6 1294.345 L 276.6 1278.385 Z " fill="rgb(235,235,235)"/><path d=" M 1305.72 1278.385 L 1321.8 1278.385 L 1321.8 1294.345 L 1305.72 1294.345 L 1305.72 1278.385 Z " fill="rgb(235,235,235)"/><path d=" M 791.16 1278.385 L 807.24 1278.385 L 807.24 1294.345 L 791.16 1294.345 L 791.16 1278.385 Z " fill="rgb(235,235,235)"/><path d=" M 1820.28 1278.385 L 1836.36 1278.385 L 1836.36 1294.345 L 1820.28 1294.345 L 1820.28 1278.385 Z " fill="rgb(235,235,235)"/><path d=" M 147.96 1278.385 L 164.04 1278.385 L 164.04 1294.345 L 147.96 1294.345 L 147.96 1278.385 Z " fill="rgb(235,235,235)"/><path d=" M 1177.08 1278.385 L 1193.16 1278.385 L 1193.16 1294.345 L 1177.08 1294.345 L 1177.08 1278.385 Z " fill="rgb(235,235,235)"/><path d=" M 662.52 1278.385 L 678.6 1278.385 L 678.6 1294.345 L 662.52 1294.345 L 662.52 1278.385 Z " fill="rgb(235,235,235)"/><path d=" M 1691.64 1278.385 L 1707.72 1278.385 L 1707.72 1294.345 L 1691.64 1294.345 L 1691.64 1278.385 Z " fill="rgb(235,235,235)"/><path d=" M 405.24 1278.385 L 421.32 1278.385 L 421.32 1294.345 L 405.24 1294.345 L 405.24 1278.385 Z " fill="rgb(235,235,235)"/><path d=" M 1434.36 1278.385 L 1450.44 1278.385 L 1450.44 1294.345 L 1434.36 1294.345 L 1434.36 1278.385 Z " fill="rgb(235,235,235)"/><path d=" M 919.8 1278.385 L 935.88 1278.385 L 935.88 1294.345 L 919.8 1294.345 L 919.8 1278.385 Z " fill="rgb(235,235,235)"/><path d=" M 1948.92 1278.385 L 1965 1278.385 L 1965 1294.345 L 1948.92 1294.345 L 1948.92 1278.385 Z " fill="rgb(235,235,235)"/></g><g id="Group"><path d=" M 887.64 -14.345 L 903.72 -14.345 L 903.72 1.615 L 887.64 1.615 L 887.64 -14.345 Z " fill="rgb(235,235,235)"/><path d=" M 373.08 -14.345 L 389.16 -14.345 L 389.16 1.615 L 373.08 1.615 L 373.08 -14.345 Z " fill="rgb(235,235,235)"/><path d=" M 1402.2 -14.345 L 1418.28 -14.345 L 1418.28 1.615 L 1402.2 1.615 L 1402.2 -14.345 Z " fill="rgb(235,235,235)"/><path d=" M 115.8 -14.345 L 131.88 -14.345 L 131.88 1.615 L 115.8 1.615 L 115.8 -14.345 Z " fill="rgb(235,235,235)"/><path d=" M 1144.92 -14.345 L 1161 -14.345 L 1161 1.615 L 1144.92 1.615 L 1144.92 -14.345 Z " fill="rgb(235,235,235)"/><path d=" M 630.36 -14.345 L 646.44 -14.345 L 646.44 1.615 L 630.36 1.615 L 630.36 -14.345 Z " fill="rgb(235,235,235)"/><path d=" M 1659.48 -14.345 L 1675.56 -14.345 L 1675.56 1.615 L 1659.48 1.615 L 1659.48 -14.345 Z " fill="rgb(235,235,235)"/><path d=" M 1016.28 -14.345 L 1032.36 -14.345 L 1032.36 1.615 L 1016.28 1.615 L 1016.28 -14.345 Z " fill="rgb(235,235,235)"/><path d=" M 501.72 -14.345 L 517.8 -14.345 L 517.8 1.615 L 501.72 1.615 L 501.72 -14.345 Z " fill="rgb(235,235,235)"/><path d=" M 1530.84 -14.345 L 1546.92 -14.345 L 1546.92 1.615 L 1530.84 1.615 L 1530.84 -14.345 Z " fill="rgb(235,235,235)"/><path d=" M 244.44 -14.345 L 260.52 -14.345 L 260.52 1.615 L 244.44 1.615 L 244.44 -14.345 Z " fill="rgb(235,235,235)"/><path d=" M 1273.56 -14.345 L 1289.64 -14.345 L 1289.64 1.615 L 1273.56 1.615 L 1273.56 -14.345 Z " fill="rgb(235,235,235)"/><path d=" M 759 -14.345 L 775.08 -14.345 L 775.08 1.615 L 759 1.615 L 759 -14.345 Z " fill="rgb(235,235,235)"/><path d=" M 1788.12 -14.345 L 1804.2 -14.345 L 1804.2 1.615 L 1788.12 1.615 L 1788.12 -14.345 Z " fill="rgb(235,235,235)"/><path d=" M 951.96 -14.345 L 968.04 -14.345 L 968.04 1.615 L 951.96 1.615 L 951.96 -14.345 Z " fill="rgb(235,235,235)"/><path d=" M 437.4 -14.345 L 453.48 -14.345 L 453.48 1.615 L 437.4 1.615 L 437.4 -14.345 Z " fill="rgb(235,235,235)"/><path d=" M 1466.52 -14.345 L 1482.6 -14.345 L 1482.6 1.615 L 1466.52 1.615 L 1466.52 -14.345 Z " fill="rgb(235,235,235)"/><path d=" M 180.12 -14.345 L 196.2 -14.345 L 196.2 1.615 L 180.12 1.615 L 180.12 -14.345 Z " fill="rgb(235,235,235)"/><path d=" M 1209.24 -14.345 L 1225.32 -14.345 L 1225.32 1.615 L 1209.24 1.615 L 1209.24 -14.345 Z " fill="rgb(235,235,235)"/><path d=" M 694.68 -14.345 L 710.76 -14.345 L 710.76 1.615 L 694.68 1.615 L 694.68 -14.345 Z " fill="rgb(235,235,235)"/><path d=" M 1723.8 -14.345 L 1739.88 -14.345 L 1739.88 1.615 L 1723.8 1.615 L 1723.8 -14.345 Z " fill="rgb(235,235,235)"/><path d=" M 51.48 -14.345 L 67.56 -14.345 L 67.56 1.615 L 51.48 1.615 L 51.48 -14.345 Z " fill="rgb(235,235,235)"/><path d=" M 1080.6 -14.345 L 1096.68 -14.345 L 1096.68 1.615 L 1080.6 1.615 L 1080.6 -14.345 Z " fill="rgb(235,235,235)"/><path d=" M 566.04 -14.345 L 582.12 -14.345 L 582.12 1.615 L 566.04 1.615 L 566.04 -14.345 Z " fill="rgb(235,235,235)"/><path d=" M 1595.16 -14.345 L 1611.24 -14.345 L 1611.24 1.615 L 1595.16 1.615 L 1595.16 -14.345 Z " fill="rgb(235,235,235)"/><path d=" M 308.76 -14.345 L 324.84 -14.345 L 324.84 1.615 L 308.76 1.615 L 308.76 -14.345 Z " fill="rgb(235,235,235)"/><path d=" M 1337.88 -14.345 L 1353.96 -14.345 L 1353.96 1.615 L 1337.88 1.615 L 1337.88 -14.345 Z " fill="rgb(235,235,235)"/><path d=" M 823.32 -14.345 L 839.4 -14.345 L 839.4 1.615 L 823.32 1.615 L 823.32 -14.345 Z " fill="rgb(235,235,235)"/><path d=" M 1852.44 -14.345 L 1868.52 -14.345 L 1868.52 1.615 L 1852.44 1.615 L 1852.44 -14.345 Z " fill="rgb(235,235,235)"/></g><g id="Group"><path d=" M 887.64 480.404 L 903.72 480.404 L 903.72 496.363 L 887.64 496.363 L 887.64 480.404 Z " fill="rgb(235,235,235)"/><path d=" M 373.08 480.404 L 389.16 480.404 L 389.16 496.363 L 373.08 496.363 L 373.08 480.404 Z " fill="rgb(235,235,235)"/><path d=" M 1402.2 480.404 L 1418.28 480.404 L 1418.28 496.363 L 1402.2 496.363 L 1402.2 480.404 Z " fill="rgb(235,235,235)"/><path d=" M 115.8 480.404 L 131.88 480.404 L 131.88 496.363 L 115.8 496.363 L 115.8 480.404 Z " fill="rgb(235,235,235)"/><path d=" M 1144.92 480.404 L 1161 480.404 L 1161 496.363 L 1144.92 496.363 L 1144.92 480.404 Z " fill="rgb(235,235,235)"/><path d=" M 630.36 480.404 L 646.44 480.404 L 646.44 496.363 L 630.36 496.363 L 630.36 480.404 Z " fill="rgb(235,235,235)"/><path d=" M 1659.48 480.404 L 1675.56 480.404 L 1675.56 496.363 L 1659.48 496.363 L 1659.48 480.404 Z " fill="rgb(235,235,235)"/><path d=" M 1016.28 480.404 L 1032.36 480.404 L 1032.36 496.363 L 1016.28 496.363 L 1016.28 480.404 Z " fill="rgb(235,235,235)"/><path d=" M 501.72 480.404 L 517.8 480.404 L 517.8 496.363 L 501.72 496.363 L 501.72 480.404 Z " fill="rgb(235,235,235)"/><path d=" M 1530.84 480.404 L 1546.92 480.404 L 1546.92 496.363 L 1530.84 496.363 L 1530.84 480.404 Z " fill="rgb(235,235,235)"/><path d=" M 244.44 480.404 L 260.52 480.404 L 260.52 496.363 L 244.44 496.363 L 244.44 480.404 Z " fill="rgb(235,235,235)"/><path d=" M 1273.56 480.404 L 1289.64 480.404 L 1289.64 496.363 L 1273.56 496.363 L 1273.56 480.404 Z " fill="rgb(235,235,235)"/><path d=" M 759 480.404 L 775.08 480.404 L 775.08 496.363 L 759 496.363 L 759 480.404 Z " fill="rgb(235,235,235)"/><path d=" M 1788.12 480.404 L 1804.2 480.404 L 1804.2 496.363 L 1788.12 496.363 L 1788.12 480.404 Z " fill="rgb(235,235,235)"/><path d=" M 951.96 480.404 L 968.04 480.404 L 968.04 496.363 L 951.96 496.363 L 951.96 480.404 Z " fill="rgb(235,235,235)"/><path d=" M 437.4 480.404 L 453.48 480.404 L 453.48 496.363 L 437.4 496.363 L 437.4 480.404 Z " fill="rgb(235,235,235)"/><path d=" M 1466.52 480.404 L 1482.6 480.404 L 1482.6 496.363 L 1466.52 496.363 L 1466.52 480.404 Z " fill="rgb(235,235,235)"/><path d=" M 180.12 480.404 L 196.2 480.404 L 196.2 496.363 L 180.12 496.363 L 180.12 480.404 Z " fill="rgb(235,235,235)"/><path d=" M 1209.24 480.404 L 1225.32 480.404 L 1225.32 496.363 L 1209.24 496.363 L 1209.24 480.404 Z " fill="rgb(235,235,235)"/><path d=" M 694.68 480.404 L 710.76 480.404 L 710.76 496.363 L 694.68 496.363 L 694.68 480.404 Z " fill="rgb(235,235,235)"/><path d=" M 1723.8 480.404 L 1739.88 480.404 L 1739.88 496.363 L 1723.8 496.363 L 1723.8 480.404 Z " fill="rgb(235,235,235)"/><path d=" M 51.48 480.404 L 67.56 480.404 L 67.56 496.363 L 51.48 496.363 L 51.48 480.404 Z " fill="rgb(235,235,235)"/><path d=" M 1080.6 480.404 L 1096.68 480.404 L 1096.68 496.363 L 1080.6 496.363 L 1080.6 480.404 Z " fill="rgb(235,235,235)"/><path d=" M 566.04 480.404 L 582.12 480.404 L 582.12 496.363 L 566.04 496.363 L 566.04 480.404 Z " fill="rgb(235,235,235)"/><path d=" M 1595.16 480.404 L 1611.24 480.404 L 1611.24 496.363 L 1595.16 496.363 L 1595.16 480.404 Z " fill="rgb(235,235,235)"/><path d=" M 308.76 480.404 L 324.84 480.404 L 324.84 496.363 L 308.76 496.363 L 308.76 480.404 Z " fill="rgb(235,235,235)"/><path d=" M 1337.88 480.404 L 1353.96 480.404 L 1353.96 496.363 L 1337.88 496.363 L 1337.88 480.404 Z " fill="rgb(235,235,235)"/><path d=" M 823.32 480.404 L 839.4 480.404 L 839.4 496.363 L 823.32 496.363 L 823.32 480.404 Z " fill="rgb(235,235,235)"/><path d=" M 1852.44 480.404 L 1868.52 480.404 L 1868.52 496.363 L 1852.44 496.363 L 1852.44 480.404 Z " fill="rgb(235,235,235)"/></g><g id="Group"><path d=" M 887.64 975.152 L 903.72 975.152 L 903.72 991.112 L 887.64 991.112 L 887.64 975.152 Z " fill="rgb(235,235,235)"/><path d=" M 373.08 975.152 L 389.16 975.152 L 389.16 991.112 L 373.08 991.112 L 373.08 975.152 Z " fill="rgb(235,235,235)"/><path d=" M 1402.2 975.152 L 1418.28 975.152 L 1418.28 991.112 L 1402.2 991.112 L 1402.2 975.152 Z " fill="rgb(235,235,235)"/><path d=" M 115.8 975.152 L 131.88 975.152 L 131.88 991.112 L 115.8 991.112 L 115.8 975.152 Z " fill="rgb(235,235,235)"/><path d=" M 1144.92 975.152 L 1161 975.152 L 1161 991.112 L 1144.92 991.112 L 1144.92 975.152 Z " fill="rgb(235,235,235)"/><path d=" M 630.36 975.152 L 646.44 975.152 L 646.44 991.112 L 630.36 991.112 L 630.36 975.152 Z " fill="rgb(235,235,235)"/><path d=" M 1659.48 975.152 L 1675.56 975.152 L 1675.56 991.112 L 1659.48 991.112 L 1659.48 975.152 Z " fill="rgb(235,235,235)"/><path d=" M 1016.28 975.152 L 1032.36 975.152 L 1032.36 991.112 L 1016.28 991.112 L 1016.28 975.152 Z " fill="rgb(235,235,235)"/><path d=" M 501.72 975.152 L 517.8 975.152 L 517.8 991.112 L 501.72 991.112 L 501.72 975.152 Z " fill="rgb(235,235,235)"/><path d=" M 1530.84 975.152 L 1546.92 975.152 L 1546.92 991.112 L 1530.84 991.112 L 1530.84 975.152 Z " fill="rgb(235,235,235)"/><path d=" M 244.44 975.152 L 260.52 975.152 L 260.52 991.112 L 244.44 991.112 L 244.44 975.152 Z " fill="rgb(235,235,235)"/><path d=" M 1273.56 975.152 L 1289.64 975.152 L 1289.64 991.112 L 1273.56 991.112 L 1273.56 975.152 Z " fill="rgb(235,235,235)"/><path d=" M 759 975.152 L 775.08 975.152 L 775.08 991.112 L 759 991.112 L 759 975.152 Z " fill="rgb(235,235,235)"/><path d=" M 1788.12 975.152 L 1804.2 975.152 L 1804.2 991.112 L 1788.12 991.112 L 1788.12 975.152 Z " fill="rgb(235,235,235)"/><path d=" M 951.96 975.152 L 968.04 975.152 L 968.04 991.112 L 951.96 991.112 L 951.96 975.152 Z " fill="rgb(235,235,235)"/><path d=" M 437.4 975.152 L 453.48 975.152 L 453.48 991.112 L 437.4 991.112 L 437.4 975.152 Z " fill="rgb(235,235,235)"/><path d=" M 1466.52 975.152 L 1482.6 975.152 L 1482.6 991.112 L 1466.52 991.112 L 1466.52 975.152 Z " fill="rgb(235,235,235)"/><path d=" M 180.12 975.152 L 196.2 975.152 L 196.2 991.112 L 180.12 991.112 L 180.12 975.152 Z " fill="rgb(235,235,235)"/><path d=" M 1209.24 975.152 L 1225.32 975.152 L 1225.32 991.112 L 1209.24 991.112 L 1209.24 975.152 Z " fill="rgb(235,235,235)"/><path d=" M 694.68 975.152 L 710.76 975.152 L 710.76 991.112 L 694.68 991.112 L 694.68 975.152 Z " fill="rgb(235,235,235)"/><path d=" M 1723.8 975.152 L 1739.88 975.152 L 1739.88 991.112 L 1723.8 991.112 L 1723.8 975.152 Z " fill="rgb(235,235,235)"/><path d=" M 51.48 975.152 L 67.56 975.152 L 67.56 991.112 L 51.48 991.112 L 51.48 975.152 Z " fill="rgb(235,235,235)"/><path d=" M 1080.6 975.152 L 1096.68 975.152 L 1096.68 991.112 L 1080.6 991.112 L 1080.6 975.152 Z " fill="rgb(235,235,235)"/><path d=" M 566.04 975.152 L 582.12 975.152 L 582.12 991.112 L 566.04 991.112 L 566.04 975.152 Z " fill="rgb(235,235,235)"/><path d=" M 1595.16 975.152 L 1611.24 975.152 L 1611.24 991.112 L 1595.16 991.112 L 1595.16 975.152 Z " fill="rgb(235,235,235)"/><path d=" M 308.76 975.152 L 324.84 975.152 L 324.84 991.112 L 308.76 991.112 L 308.76 975.152 Z " fill="rgb(235,235,235)"/><path d=" M 1337.88 975.152 L 1353.96 975.152 L 1353.96 991.112 L 1337.88 991.112 L 1337.88 975.152 Z " fill="rgb(235,235,235)"/><path d=" M 823.32 975.152 L 839.4 975.152 L 839.4 991.112 L 823.32 991.112 L 823.32 975.152 Z " fill="rgb(235,235,235)"/><path d=" M 1852.44 975.152 L 1868.52 975.152 L 1868.52 991.112 L 1852.44 991.112 L 1852.44 975.152 Z " fill="rgb(235,235,235)"/></g><g id="Group"><path d=" M 887.64 225.05 L 903.72 225.05 L 903.72 241.009 L 887.64 241.009 L 887.64 225.05 Z " fill="rgb(235,235,235)"/><path d=" M 373.08 225.05 L 389.16 225.05 L 389.16 241.009 L 373.08 241.009 L 373.08 225.05 Z " fill="rgb(235,235,235)"/><path d=" M 1402.2 225.05 L 1418.28 225.05 L 1418.28 241.009 L 1402.2 241.009 L 1402.2 225.05 Z " fill="rgb(235,235,235)"/><path d=" M 115.8 225.05 L 131.88 225.05 L 131.88 241.009 L 115.8 241.009 L 115.8 225.05 Z " fill="rgb(235,235,235)"/><path d=" M 1144.92 225.05 L 1161 225.05 L 1161 241.009 L 1144.92 241.009 L 1144.92 225.05 Z " fill="rgb(235,235,235)"/><path d=" M 630.36 225.05 L 646.44 225.05 L 646.44 241.009 L 630.36 241.009 L 630.36 225.05 Z " fill="rgb(235,235,235)"/><path d=" M 1659.48 225.05 L 1675.56 225.05 L 1675.56 241.009 L 1659.48 241.009 L 1659.48 225.05 Z " fill="rgb(235,235,235)"/><path d=" M 1016.28 225.05 L 1032.36 225.05 L 1032.36 241.009 L 1016.28 241.009 L 1016.28 225.05 Z " fill="rgb(235,235,235)"/><path d=" M 501.72 225.05 L 517.8 225.05 L 517.8 241.009 L 501.72 241.009 L 501.72 225.05 Z " fill="rgb(235,235,235)"/><path d=" M 1530.84 225.05 L 1546.92 225.05 L 1546.92 241.009 L 1530.84 241.009 L 1530.84 225.05 Z " fill="rgb(235,235,235)"/><path d=" M 244.44 225.05 L 260.52 225.05 L 260.52 241.009 L 244.44 241.009 L 244.44 225.05 Z " fill="rgb(235,235,235)"/><path d=" M 1273.56 225.05 L 1289.64 225.05 L 1289.64 241.009 L 1273.56 241.009 L 1273.56 225.05 Z " fill="rgb(235,235,235)"/><path d=" M 759 225.05 L 775.08 225.05 L 775.08 241.009 L 759 241.009 L 759 225.05 Z " fill="rgb(235,235,235)"/><path d=" M 1788.12 225.05 L 1804.2 225.05 L 1804.2 241.009 L 1788.12 241.009 L 1788.12 225.05 Z " fill="rgb(235,235,235)"/><path d=" M 951.96 225.05 L 968.04 225.05 L 968.04 241.009 L 951.96 241.009 L 951.96 225.05 Z " fill="rgb(235,235,235)"/><path d=" M 437.4 225.05 L 453.48 225.05 L 453.48 241.009 L 437.4 241.009 L 437.4 225.05 Z " fill="rgb(235,235,235)"/><path d=" M 1466.52 225.05 L 1482.6 225.05 L 1482.6 241.009 L 1466.52 241.009 L 1466.52 225.05 Z " fill="rgb(235,235,235)"/><path d=" M 180.12 225.05 L 196.2 225.05 L 196.2 241.009 L 180.12 241.009 L 180.12 225.05 Z " fill="rgb(235,235,235)"/><path d=" M 1209.24 225.05 L 1225.32 225.05 L 1225.32 241.009 L 1209.24 241.009 L 1209.24 225.05 Z " fill="rgb(235,235,235)"/><path d=" M 694.68 225.05 L 710.76 225.05 L 710.76 241.009 L 694.68 241.009 L 694.68 225.05 Z " fill="rgb(235,235,235)"/><path d=" M 1723.8 225.05 L 1739.88 225.05 L 1739.88 241.009 L 1723.8 241.009 L 1723.8 225.05 Z " fill="rgb(235,235,235)"/><path d=" M 51.48 225.05 L 67.56 225.05 L 67.56 241.009 L 51.48 241.009 L 51.48 225.05 Z " fill="rgb(235,235,235)"/><path d=" M 1080.6 225.05 L 1096.68 225.05 L 1096.68 241.009 L 1080.6 241.009 L 1080.6 225.05 Z " fill="rgb(235,235,235)"/><path d=" M 566.04 225.05 L 582.12 225.05 L 582.12 241.009 L 566.04 241.009 L 566.04 225.05 Z " fill="rgb(235,235,235)"/><path d=" M 1595.16 225.05 L 1611.24 225.05 L 1611.24 241.009 L 1595.16 241.009 L 1595.16 225.05 Z " fill="rgb(235,235,235)"/><path d=" M 308.76 225.05 L 324.84 225.05 L 324.84 241.009 L 308.76 241.009 L 308.76 225.05 Z " fill="rgb(235,235,235)"/><path d=" M 1337.88 225.05 L 1353.96 225.05 L 1353.96 241.009 L 1337.88 241.009 L 1337.88 225.05 Z " fill="rgb(235,235,235)"/><path d=" M 823.32 225.05 L 839.4 225.05 L 839.4 241.009 L 823.32 241.009 L 823.32 225.05 Z " fill="rgb(235,235,235)"/><path d=" M 1852.44 225.05 L 1868.52 225.05 L 1868.52 241.009 L 1852.44 241.009 L 1852.44 225.05 Z " fill="rgb(235,235,235)"/></g><g id="Group"><path d=" M 887.64 719.798 L 903.72 719.798 L 903.72 735.758 L 887.64 735.758 L 887.64 719.798 Z " fill="rgb(235,235,235)"/><path d=" M 373.08 719.798 L 389.16 719.798 L 389.16 735.758 L 373.08 735.758 L 373.08 719.798 Z " fill="rgb(235,235,235)"/><path d=" M 1402.2 719.798 L 1418.28 719.798 L 1418.28 735.758 L 1402.2 735.758 L 1402.2 719.798 Z " fill="rgb(235,235,235)"/><path d=" M 115.8 719.798 L 131.88 719.798 L 131.88 735.758 L 115.8 735.758 L 115.8 719.798 Z " fill="rgb(235,235,235)"/><path d=" M 1144.92 719.798 L 1161 719.798 L 1161 735.758 L 1144.92 735.758 L 1144.92 719.798 Z " fill="rgb(235,235,235)"/><path d=" M 630.36 719.798 L 646.44 719.798 L 646.44 735.758 L 630.36 735.758 L 630.36 719.798 Z " fill="rgb(235,235,235)"/><path d=" M 1659.48 719.798 L 1675.56 719.798 L 1675.56 735.758 L 1659.48 735.758 L 1659.48 719.798 Z " fill="rgb(235,235,235)"/><path d=" M 1016.28 719.798 L 1032.36 719.798 L 1032.36 735.758 L 1016.28 735.758 L 1016.28 719.798 Z " fill="rgb(235,235,235)"/><path d=" M 501.72 719.798 L 517.8 719.798 L 517.8 735.758 L 501.72 735.758 L 501.72 719.798 Z " fill="rgb(235,235,235)"/><path d=" M 1530.84 719.798 L 1546.92 719.798 L 1546.92 735.758 L 1530.84 735.758 L 1530.84 719.798 Z " fill="rgb(235,235,235)"/><path d=" M 244.44 719.798 L 260.52 719.798 L 260.52 735.758 L 244.44 735.758 L 244.44 719.798 Z " fill="rgb(235,235,235)"/><path d=" M 1273.56 719.798 L 1289.64 719.798 L 1289.64 735.758 L 1273.56 735.758 L 1273.56 719.798 Z " fill="rgb(235,235,235)"/><path d=" M 759 719.798 L 775.08 719.798 L 775.08 735.758 L 759 735.758 L 759 719.798 Z " fill="rgb(235,235,235)"/><path d=" M 1788.12 719.798 L 1804.2 719.798 L 1804.2 735.758 L 1788.12 735.758 L 1788.12 719.798 Z " fill="rgb(235,235,235)"/><path d=" M 951.96 719.798 L 968.04 719.798 L 968.04 735.758 L 951.96 735.758 L 951.96 719.798 Z " fill="rgb(235,235,235)"/><path d=" M 437.4 719.798 L 453.48 719.798 L 453.48 735.758 L 437.4 735.758 L 437.4 719.798 Z " fill="rgb(235,235,235)"/><path d=" M 1466.52 719.798 L 1482.6 719.798 L 1482.6 735.758 L 1466.52 735.758 L 1466.52 719.798 Z " fill="rgb(235,235,235)"/><path d=" M 180.12 719.798 L 196.2 719.798 L 196.2 735.758 L 180.12 735.758 L 180.12 719.798 Z " fill="rgb(235,235,235)"/><path d=" M 1209.24 719.798 L 1225.32 719.798 L 1225.32 735.758 L 1209.24 735.758 L 1209.24 719.798 Z " fill="rgb(235,235,235)"/><path d=" M 694.68 719.798 L 710.76 719.798 L 710.76 735.758 L 694.68 735.758 L 694.68 719.798 Z " fill="rgb(235,235,235)"/><path d=" M 1723.8 719.798 L 1739.88 719.798 L 1739.88 735.758 L 1723.8 735.758 L 1723.8 719.798 Z " fill="rgb(235,235,235)"/><path d=" M 51.48 719.798 L 67.56 719.798 L 67.56 735.758 L 51.48 735.758 L 51.48 719.798 Z " fill="rgb(235,235,235)"/><path d=" M 1080.6 719.798 L 1096.68 719.798 L 1096.68 735.758 L 1080.6 735.758 L 1080.6 719.798 Z " fill="rgb(235,235,235)"/><path d=" M 566.04 719.798 L 582.12 719.798 L 582.12 735.758 L 566.04 735.758 L 566.04 719.798 Z " fill="rgb(235,235,235)"/><path d=" M 1595.16 719.798 L 1611.24 719.798 L 1611.24 735.758 L 1595.16 735.758 L 1595.16 719.798 Z " fill="rgb(235,235,235)"/><path d=" M 308.76 719.798 L 324.84 719.798 L 324.84 735.758 L 308.76 735.758 L 308.76 719.798 Z " fill="rgb(235,235,235)"/><path d=" M 1337.88 719.798 L 1353.96 719.798 L 1353.96 735.758 L 1337.88 735.758 L 1337.88 719.798 Z " fill="rgb(235,235,235)"/><path d=" M 823.32 719.798 L 839.4 719.798 L 839.4 735.758 L 823.32 735.758 L 823.32 719.798 Z " fill="rgb(235,235,235)"/><path d=" M 1852.44 719.798 L 1868.52 719.798 L 1868.52 735.758 L 1852.44 735.758 L 1852.44 719.798 Z " fill="rgb(235,235,235)"/></g><g id="Group"><path d=" M 887.64 1214.546 L 903.72 1214.546 L 903.72 1230.506 L 887.64 1230.506 L 887.64 1214.546 Z " fill="rgb(235,235,235)"/><path d=" M 373.08 1214.546 L 389.16 1214.546 L 389.16 1230.506 L 373.08 1230.506 L 373.08 1214.546 Z " fill="rgb(235,235,235)"/><path d=" M 1402.2 1214.546 L 1418.28 1214.546 L 1418.28 1230.506 L 1402.2 1230.506 L 1402.2 1214.546 Z " fill="rgb(235,235,235)"/><path d=" M 115.8 1214.546 L 131.88 1214.546 L 131.88 1230.506 L 115.8 1230.506 L 115.8 1214.546 Z " fill="rgb(235,235,235)"/><path d=" M 1144.92 1214.546 L 1161 1214.546 L 1161 1230.506 L 1144.92 1230.506 L 1144.92 1214.546 Z " fill="rgb(235,235,235)"/><path d=" M 630.36 1214.546 L 646.44 1214.546 L 646.44 1230.506 L 630.36 1230.506 L 630.36 1214.546 Z " fill="rgb(235,235,235)"/><path d=" M 1659.48 1214.546 L 1675.56 1214.546 L 1675.56 1230.506 L 1659.48 1230.506 L 1659.48 1214.546 Z " fill="rgb(235,235,235)"/><path d=" M 1016.28 1214.546 L 1032.36 1214.546 L 1032.36 1230.506 L 1016.28 1230.506 L 1016.28 1214.546 Z " fill="rgb(235,235,235)"/><path d=" M 501.72 1214.546 L 517.8 1214.546 L 517.8 1230.506 L 501.72 1230.506 L 501.72 1214.546 Z " fill="rgb(235,235,235)"/><path d=" M 1530.84 1214.546 L 1546.92 1214.546 L 1546.92 1230.506 L 1530.84 1230.506 L 1530.84 1214.546 Z " fill="rgb(235,235,235)"/><path d=" M 244.44 1214.546 L 260.52 1214.546 L 260.52 1230.506 L 244.44 1230.506 L 244.44 1214.546 Z " fill="rgb(235,235,235)"/><path d=" M 1273.56 1214.546 L 1289.64 1214.546 L 1289.64 1230.506 L 1273.56 1230.506 L 1273.56 1214.546 Z " fill="rgb(235,235,235)"/><path d=" M 759 1214.546 L 775.08 1214.546 L 775.08 1230.506 L 759 1230.506 L 759 1214.546 Z " fill="rgb(235,235,235)"/><path d=" M 1788.12 1214.546 L 1804.2 1214.546 L 1804.2 1230.506 L 1788.12 1230.506 L 1788.12 1214.546 Z " fill="rgb(235,235,235)"/><path d=" M 951.96 1214.546 L 968.04 1214.546 L 968.04 1230.506 L 951.96 1230.506 L 951.96 1214.546 Z " fill="rgb(235,235,235)"/><path d=" M 437.4 1214.546 L 453.48 1214.546 L 453.48 1230.506 L 437.4 1230.506 L 437.4 1214.546 Z " fill="rgb(235,235,235)"/><path d=" M 1466.52 1214.546 L 1482.6 1214.546 L 1482.6 1230.506 L 1466.52 1230.506 L 1466.52 1214.546 Z " fill="rgb(235,235,235)"/><path d=" M 180.12 1214.546 L 196.2 1214.546 L 196.2 1230.506 L 180.12 1230.506 L 180.12 1214.546 Z " fill="rgb(235,235,235)"/><path d=" M 1209.24 1214.546 L 1225.32 1214.546 L 1225.32 1230.506 L 1209.24 1230.506 L 1209.24 1214.546 Z " fill="rgb(235,235,235)"/><path d=" M 694.68 1214.546 L 710.76 1214.546 L 710.76 1230.506 L 694.68 1230.506 L 694.68 1214.546 Z " fill="rgb(235,235,235)"/><path d=" M 1723.8 1214.546 L 1739.88 1214.546 L 1739.88 1230.506 L 1723.8 1230.506 L 1723.8 1214.546 Z " fill="rgb(235,235,235)"/><path d=" M 51.48 1214.546 L 67.56 1214.546 L 67.56 1230.506 L 51.48 1230.506 L 51.48 1214.546 Z " fill="rgb(235,235,235)"/><path d=" M 1080.6 1214.546 L 1096.68 1214.546 L 1096.68 1230.506 L 1080.6 1230.506 L 1080.6 1214.546 Z " fill="rgb(235,235,235)"/><path d=" M 566.04 1214.546 L 582.12 1214.546 L 582.12 1230.506 L 566.04 1230.506 L 566.04 1214.546 Z " fill="rgb(235,235,235)"/><path d=" M 1595.16 1214.546 L 1611.24 1214.546 L 1611.24 1230.506 L 1595.16 1230.506 L 1595.16 1214.546 Z " fill="rgb(235,235,235)"/><path d=" M 308.76 1214.546 L 324.84 1214.546 L 324.84 1230.506 L 308.76 1230.506 L 308.76 1214.546 Z " fill="rgb(235,235,235)"/><path d=" M 1337.88 1214.546 L 1353.96 1214.546 L 1353.96 1230.506 L 1337.88 1230.506 L 1337.88 1214.546 Z " fill="rgb(235,235,235)"/><path d=" M 823.32 1214.546 L 839.4 1214.546 L 839.4 1230.506 L 823.32 1230.506 L 823.32 1214.546 Z " fill="rgb(235,235,235)"/><path d=" M 1852.44 1214.546 L 1868.52 1214.546 L 1868.52 1230.506 L 1852.44 1230.506 L 1852.44 1214.546 Z " fill="rgb(235,235,235)"/></g><g id="Group"><path d=" M 887.64 113.332 L 903.72 113.332 L 903.72 129.292 L 887.64 129.292 L 887.64 113.332 Z " fill="rgb(235,235,235)"/><path d=" M 373.08 113.332 L 389.16 113.332 L 389.16 129.292 L 373.08 129.292 L 373.08 113.332 Z " fill="rgb(235,235,235)"/><path d=" M 1402.2 113.332 L 1418.28 113.332 L 1418.28 129.292 L 1402.2 129.292 L 1402.2 113.332 Z " fill="rgb(235,235,235)"/><path d=" M 115.8 113.332 L 131.88 113.332 L 131.88 129.292 L 115.8 129.292 L 115.8 113.332 Z " fill="rgb(235,235,235)"/><path d=" M 1144.92 113.332 L 1161 113.332 L 1161 129.292 L 1144.92 129.292 L 1144.92 113.332 Z " fill="rgb(235,235,235)"/><path d=" M 630.36 113.332 L 646.44 113.332 L 646.44 129.292 L 630.36 129.292 L 630.36 113.332 Z " fill="rgb(235,235,235)"/><path d=" M 1659.48 113.332 L 1675.56 113.332 L 1675.56 129.292 L 1659.48 129.292 L 1659.48 113.332 Z " fill="rgb(235,235,235)"/><path d=" M 1016.28 113.332 L 1032.36 113.332 L 1032.36 129.292 L 1016.28 129.292 L 1016.28 113.332 Z " fill="rgb(235,235,235)"/><path d=" M 501.72 113.332 L 517.8 113.332 L 517.8 129.292 L 501.72 129.292 L 501.72 113.332 Z " fill="rgb(235,235,235)"/><path d=" M 1530.84 113.332 L 1546.92 113.332 L 1546.92 129.292 L 1530.84 129.292 L 1530.84 113.332 Z " fill="rgb(235,235,235)"/><path d=" M 244.44 113.332 L 260.52 113.332 L 260.52 129.292 L 244.44 129.292 L 244.44 113.332 Z " fill="rgb(235,235,235)"/><path d=" M 1273.56 113.332 L 1289.64 113.332 L 1289.64 129.292 L 1273.56 129.292 L 1273.56 113.332 Z " fill="rgb(235,235,235)"/><path d=" M 759 113.332 L 775.08 113.332 L 775.08 129.292 L 759 129.292 L 759 113.332 Z " fill="rgb(235,235,235)"/><path d=" M 1788.12 113.332 L 1804.2 113.332 L 1804.2 129.292 L 1788.12 129.292 L 1788.12 113.332 Z " fill="rgb(235,235,235)"/><path d=" M 951.96 113.332 L 968.04 113.332 L 968.04 129.292 L 951.96 129.292 L 951.96 113.332 Z " fill="rgb(235,235,235)"/><path d=" M 437.4 113.332 L 453.48 113.332 L 453.48 129.292 L 437.4 129.292 L 437.4 113.332 Z " fill="rgb(235,235,235)"/><path d=" M 1466.52 113.332 L 1482.6 113.332 L 1482.6 129.292 L 1466.52 129.292 L 1466.52 113.332 Z " fill="rgb(235,235,235)"/><path d=" M 180.12 113.332 L 196.2 113.332 L 196.2 129.292 L 180.12 129.292 L 180.12 113.332 Z " fill="rgb(235,235,235)"/><path d=" M 1209.24 113.332 L 1225.32 113.332 L 1225.32 129.292 L 1209.24 129.292 L 1209.24 113.332 Z " fill="rgb(235,235,235)"/><path d=" M 694.68 113.332 L 710.76 113.332 L 710.76 129.292 L 694.68 129.292 L 694.68 113.332 Z " fill="rgb(235,235,235)"/><path d=" M 1723.8 113.332 L 1739.88 113.332 L 1739.88 129.292 L 1723.8 129.292 L 1723.8 113.332 Z " fill="rgb(235,235,235)"/><path d=" M 51.48 113.332 L 67.56 113.332 L 67.56 129.292 L 51.48 129.292 L 51.48 113.332 Z " fill="rgb(235,235,235)"/><path d=" M 1080.6 113.332 L 1096.68 113.332 L 1096.68 129.292 L 1080.6 129.292 L 1080.6 113.332 Z " fill="rgb(235,235,235)"/><path d=" M 566.04 113.332 L 582.12 113.332 L 582.12 129.292 L 566.04 129.292 L 566.04 113.332 Z " fill="rgb(235,235,235)"/><path d=" M 1595.16 113.332 L 1611.24 113.332 L 1611.24 129.292 L 1595.16 129.292 L 1595.16 113.332 Z " fill="rgb(235,235,235)"/><path d=" M 308.76 113.332 L 324.84 113.332 L 324.84 129.292 L 308.76 129.292 L 308.76 113.332 Z " fill="rgb(235,235,235)"/><path d=" M 1337.88 113.332 L 1353.96 113.332 L 1353.96 129.292 L 1337.88 129.292 L 1337.88 113.332 Z " fill="rgb(235,235,235)"/><path d=" M 823.32 113.332 L 839.4 113.332 L 839.4 129.292 L 823.32 129.292 L 823.32 113.332 Z " fill="rgb(235,235,235)"/><path d=" M 1852.44 113.332 L 1868.52 113.332 L 1868.52 129.292 L 1852.44 129.292 L 1852.44 113.332 Z " fill="rgb(235,235,235)"/></g><g id="Group"><path d=" M 887.64 608.081 L 903.72 608.081 L 903.72 624.04 L 887.64 624.04 L 887.64 608.081 Z " fill="rgb(235,235,235)"/><path d=" M 373.08 608.081 L 389.16 608.081 L 389.16 624.04 L 373.08 624.04 L 373.08 608.081 Z " fill="rgb(235,235,235)"/><path d=" M 1402.2 608.081 L 1418.28 608.081 L 1418.28 624.04 L 1402.2 624.04 L 1402.2 608.081 Z " fill="rgb(235,235,235)"/><path d=" M 115.8 608.081 L 131.88 608.081 L 131.88 624.04 L 115.8 624.04 L 115.8 608.081 Z " fill="rgb(235,235,235)"/><path d=" M 1144.92 608.081 L 1161 608.081 L 1161 624.04 L 1144.92 624.04 L 1144.92 608.081 Z " fill="rgb(235,235,235)"/><path d=" M 630.36 608.081 L 646.44 608.081 L 646.44 624.04 L 630.36 624.04 L 630.36 608.081 Z " fill="rgb(235,235,235)"/><path d=" M 1659.48 608.081 L 1675.56 608.081 L 1675.56 624.04 L 1659.48 624.04 L 1659.48 608.081 Z " fill="rgb(235,235,235)"/><path d=" M 1016.28 608.081 L 1032.36 608.081 L 1032.36 624.04 L 1016.28 624.04 L 1016.28 608.081 Z " fill="rgb(235,235,235)"/><path d=" M 501.72 608.081 L 517.8 608.081 L 517.8 624.04 L 501.72 624.04 L 501.72 608.081 Z " fill="rgb(235,235,235)"/><path d=" M 1530.84 608.081 L 1546.92 608.081 L 1546.92 624.04 L 1530.84 624.04 L 1530.84 608.081 Z " fill="rgb(235,235,235)"/><path d=" M 244.44 608.081 L 260.52 608.081 L 260.52 624.04 L 244.44 624.04 L 244.44 608.081 Z " fill="rgb(235,235,235)"/><path d=" M 1273.56 608.081 L 1289.64 608.081 L 1289.64 624.04 L 1273.56 624.04 L 1273.56 608.081 Z " fill="rgb(235,235,235)"/><path d=" M 759 608.081 L 775.08 608.081 L 775.08 624.04 L 759 624.04 L 759 608.081 Z " fill="rgb(235,235,235)"/><path d=" M 1788.12 608.081 L 1804.2 608.081 L 1804.2 624.04 L 1788.12 624.04 L 1788.12 608.081 Z " fill="rgb(235,235,235)"/><path d=" M 951.96 608.081 L 968.04 608.081 L 968.04 624.04 L 951.96 624.04 L 951.96 608.081 Z " fill="rgb(235,235,235)"/><path d=" M 437.4 608.081 L 453.48 608.081 L 453.48 624.04 L 437.4 624.04 L 437.4 608.081 Z " fill="rgb(235,235,235)"/><path d=" M 1466.52 608.081 L 1482.6 608.081 L 1482.6 624.04 L 1466.52 624.04 L 1466.52 608.081 Z " fill="rgb(235,235,235)"/><path d=" M 180.12 608.081 L 196.2 608.081 L 196.2 624.04 L 180.12 624.04 L 180.12 608.081 Z " fill="rgb(235,235,235)"/><path d=" M 1209.24 608.081 L 1225.32 608.081 L 1225.32 624.04 L 1209.24 624.04 L 1209.24 608.081 Z " fill="rgb(235,235,235)"/><path d=" M 694.68 608.081 L 710.76 608.081 L 710.76 624.04 L 694.68 624.04 L 694.68 608.081 Z " fill="rgb(235,235,235)"/><path d=" M 1723.8 608.081 L 1739.88 608.081 L 1739.88 624.04 L 1723.8 624.04 L 1723.8 608.081 Z " fill="rgb(235,235,235)"/><path d=" M 51.48 608.081 L 67.56 608.081 L 67.56 624.04 L 51.48 624.04 L 51.48 608.081 Z " fill="rgb(235,235,235)"/><path d=" M 1080.6 608.081 L 1096.68 608.081 L 1096.68 624.04 L 1080.6 624.04 L 1080.6 608.081 Z " fill="rgb(235,235,235)"/><path d=" M 566.04 608.081 L 582.12 608.081 L 582.12 624.04 L 566.04 624.04 L 566.04 608.081 Z " fill="rgb(235,235,235)"/><path d=" M 1595.16 608.081 L 1611.24 608.081 L 1611.24 624.04 L 1595.16 624.04 L 1595.16 608.081 Z " fill="rgb(235,235,235)"/><path d=" M 308.76 608.081 L 324.84 608.081 L 324.84 624.04 L 308.76 624.04 L 308.76 608.081 Z " fill="rgb(235,235,235)"/><path d=" M 1337.88 608.081 L 1353.96 608.081 L 1353.96 624.04 L 1337.88 624.04 L 1337.88 608.081 Z " fill="rgb(235,235,235)"/><path d=" M 823.32 608.081 L 839.4 608.081 L 839.4 624.04 L 823.32 624.04 L 823.32 608.081 Z " fill="rgb(235,235,235)"/><path d=" M 1852.44 608.081 L 1868.52 608.081 L 1868.52 624.04 L 1852.44 624.04 L 1852.44 608.081 Z " fill="rgb(235,235,235)"/></g><g id="Group"><path d=" M 887.64 1102.829 L 903.72 1102.829 L 903.72 1118.789 L 887.64 1118.789 L 887.64 1102.829 Z " fill="rgb(235,235,235)"/><path d=" M 373.08 1102.829 L 389.16 1102.829 L 389.16 1118.789 L 373.08 1118.789 L 373.08 1102.829 Z " fill="rgb(235,235,235)"/><path d=" M 1402.2 1102.829 L 1418.28 1102.829 L 1418.28 1118.789 L 1402.2 1118.789 L 1402.2 1102.829 Z " fill="rgb(235,235,235)"/><path d=" M 115.8 1102.829 L 131.88 1102.829 L 131.88 1118.789 L 115.8 1118.789 L 115.8 1102.829 Z " fill="rgb(235,235,235)"/><path d=" M 1144.92 1102.829 L 1161 1102.829 L 1161 1118.789 L 1144.92 1118.789 L 1144.92 1102.829 Z " fill="rgb(235,235,235)"/><path d=" M 630.36 1102.829 L 646.44 1102.829 L 646.44 1118.789 L 630.36 1118.789 L 630.36 1102.829 Z " fill="rgb(235,235,235)"/><path d=" M 1659.48 1102.829 L 1675.56 1102.829 L 1675.56 1118.789 L 1659.48 1118.789 L 1659.48 1102.829 Z " fill="rgb(235,235,235)"/><path d=" M 1016.28 1102.829 L 1032.36 1102.829 L 1032.36 1118.789 L 1016.28 1118.789 L 1016.28 1102.829 Z " fill="rgb(235,235,235)"/><path d=" M 501.72 1102.829 L 517.8 1102.829 L 517.8 1118.789 L 501.72 1118.789 L 501.72 1102.829 Z " fill="rgb(235,235,235)"/><path d=" M 1530.84 1102.829 L 1546.92 1102.829 L 1546.92 1118.789 L 1530.84 1118.789 L 1530.84 1102.829 Z " fill="rgb(235,235,235)"/><path d=" M 244.44 1102.829 L 260.52 1102.829 L 260.52 1118.789 L 244.44 1118.789 L 244.44 1102.829 Z " fill="rgb(235,235,235)"/><path d=" M 1273.56 1102.829 L 1289.64 1102.829 L 1289.64 1118.789 L 1273.56 1118.789 L 1273.56 1102.829 Z " fill="rgb(235,235,235)"/><path d=" M 759 1102.829 L 775.08 1102.829 L 775.08 1118.789 L 759 1118.789 L 759 1102.829 Z " fill="rgb(235,235,235)"/><path d=" M 1788.12 1102.829 L 1804.2 1102.829 L 1804.2 1118.789 L 1788.12 1118.789 L 1788.12 1102.829 Z " fill="rgb(235,235,235)"/><path d=" M 951.96 1102.829 L 968.04 1102.829 L 968.04 1118.789 L 951.96 1118.789 L 951.96 1102.829 Z " fill="rgb(235,235,235)"/><path d=" M 437.4 1102.829 L 453.48 1102.829 L 453.48 1118.789 L 437.4 1118.789 L 437.4 1102.829 Z " fill="rgb(235,235,235)"/><path d=" M 1466.52 1102.829 L 1482.6 1102.829 L 1482.6 1118.789 L 1466.52 1118.789 L 1466.52 1102.829 Z " fill="rgb(235,235,235)"/><path d=" M 180.12 1102.829 L 196.2 1102.829 L 196.2 1118.789 L 180.12 1118.789 L 180.12 1102.829 Z " fill="rgb(235,235,235)"/><path d=" M 1209.24 1102.829 L 1225.32 1102.829 L 1225.32 1118.789 L 1209.24 1118.789 L 1209.24 1102.829 Z " fill="rgb(235,235,235)"/><path d=" M 694.68 1102.829 L 710.76 1102.829 L 710.76 1118.789 L 694.68 1118.789 L 694.68 1102.829 Z " fill="rgb(235,235,235)"/><path d=" M 1723.8 1102.829 L 1739.88 1102.829 L 1739.88 1118.789 L 1723.8 1118.789 L 1723.8 1102.829 Z " fill="rgb(235,235,235)"/><path d=" M 51.48 1102.829 L 67.56 1102.829 L 67.56 1118.789 L 51.48 1118.789 L 51.48 1102.829 Z " fill="rgb(235,235,235)"/><path d=" M 1080.6 1102.829 L 1096.68 1102.829 L 1096.68 1118.789 L 1080.6 1118.789 L 1080.6 1102.829 Z " fill="rgb(235,235,235)"/><path d=" M 566.04 1102.829 L 582.12 1102.829 L 582.12 1118.789 L 566.04 1118.789 L 566.04 1102.829 Z " fill="rgb(235,235,235)"/><path d=" M 1595.16 1102.829 L 1611.24 1102.829 L 1611.24 1118.789 L 1595.16 1118.789 L 1595.16 1102.829 Z " fill="rgb(235,235,235)"/><path d=" M 308.76 1102.829 L 324.84 1102.829 L 324.84 1118.789 L 308.76 1118.789 L 308.76 1102.829 Z " fill="rgb(235,235,235)"/><path d=" M 1337.88 1102.829 L 1353.96 1102.829 L 1353.96 1118.789 L 1337.88 1118.789 L 1337.88 1102.829 Z " fill="rgb(235,235,235)"/><path d=" M 823.32 1102.829 L 839.4 1102.829 L 839.4 1118.789 L 823.32 1118.789 L 823.32 1102.829 Z " fill="rgb(235,235,235)"/><path d=" M 1852.44 1102.829 L 1868.52 1102.829 L 1868.52 1118.789 L 1852.44 1118.789 L 1852.44 1102.829 Z " fill="rgb(235,235,235)"/></g><g id="Group"><path d=" M 887.64 352.727 L 903.72 352.727 L 903.72 368.686 L 887.64 368.686 L 887.64 352.727 Z " fill="rgb(235,235,235)"/><path d=" M 373.08 352.727 L 389.16 352.727 L 389.16 368.686 L 373.08 368.686 L 373.08 352.727 Z " fill="rgb(235,235,235)"/><path d=" M 1402.2 352.727 L 1418.28 352.727 L 1418.28 368.686 L 1402.2 368.686 L 1402.2 352.727 Z " fill="rgb(235,235,235)"/><path d=" M 115.8 352.727 L 131.88 352.727 L 131.88 368.686 L 115.8 368.686 L 115.8 352.727 Z " fill="rgb(235,235,235)"/><path d=" M 1144.92 352.727 L 1161 352.727 L 1161 368.686 L 1144.92 368.686 L 1144.92 352.727 Z " fill="rgb(235,235,235)"/><path d=" M 630.36 352.727 L 646.44 352.727 L 646.44 368.686 L 630.36 368.686 L 630.36 352.727 Z " fill="rgb(235,235,235)"/><path d=" M 1659.48 352.727 L 1675.56 352.727 L 1675.56 368.686 L 1659.48 368.686 L 1659.48 352.727 Z " fill="rgb(235,235,235)"/><path d=" M 1016.28 352.727 L 1032.36 352.727 L 1032.36 368.686 L 1016.28 368.686 L 1016.28 352.727 Z " fill="rgb(235,235,235)"/><path d=" M 501.72 352.727 L 517.8 352.727 L 517.8 368.686 L 501.72 368.686 L 501.72 352.727 Z " fill="rgb(235,235,235)"/><path d=" M 1530.84 352.727 L 1546.92 352.727 L 1546.92 368.686 L 1530.84 368.686 L 1530.84 352.727 Z " fill="rgb(235,235,235)"/><path d=" M 244.44 352.727 L 260.52 352.727 L 260.52 368.686 L 244.44 368.686 L 244.44 352.727 Z " fill="rgb(235,235,235)"/><path d=" M 1273.56 352.727 L 1289.64 352.727 L 1289.64 368.686 L 1273.56 368.686 L 1273.56 352.727 Z " fill="rgb(235,235,235)"/><path d=" M 759 352.727 L 775.08 352.727 L 775.08 368.686 L 759 368.686 L 759 352.727 Z " fill="rgb(235,235,235)"/><path d=" M 1788.12 352.727 L 1804.2 352.727 L 1804.2 368.686 L 1788.12 368.686 L 1788.12 352.727 Z " fill="rgb(235,235,235)"/><path d=" M 951.96 352.727 L 968.04 352.727 L 968.04 368.686 L 951.96 368.686 L 951.96 352.727 Z " fill="rgb(235,235,235)"/><path d=" M 437.4 352.727 L 453.48 352.727 L 453.48 368.686 L 437.4 368.686 L 437.4 352.727 Z " fill="rgb(235,235,235)"/><path d=" M 1466.52 352.727 L 1482.6 352.727 L 1482.6 368.686 L 1466.52 368.686 L 1466.52 352.727 Z " fill="rgb(235,235,235)"/><path d=" M 180.12 352.727 L 196.2 352.727 L 196.2 368.686 L 180.12 368.686 L 180.12 352.727 Z " fill="rgb(235,235,235)"/><path d=" M 1209.24 352.727 L 1225.32 352.727 L 1225.32 368.686 L 1209.24 368.686 L 1209.24 352.727 Z " fill="rgb(235,235,235)"/><path d=" M 694.68 352.727 L 710.76 352.727 L 710.76 368.686 L 694.68 368.686 L 694.68 352.727 Z " fill="rgb(235,235,235)"/><path d=" M 1723.8 352.727 L 1739.88 352.727 L 1739.88 368.686 L 1723.8 368.686 L 1723.8 352.727 Z " fill="rgb(235,235,235)"/><path d=" M 51.48 352.727 L 67.56 352.727 L 67.56 368.686 L 51.48 368.686 L 51.48 352.727 Z " fill="rgb(235,235,235)"/><path d=" M 1080.6 352.727 L 1096.68 352.727 L 1096.68 368.686 L 1080.6 368.686 L 1080.6 352.727 Z " fill="rgb(235,235,235)"/><path d=" M 566.04 352.727 L 582.12 352.727 L 582.12 368.686 L 566.04 368.686 L 566.04 352.727 Z " fill="rgb(235,235,235)"/><path d=" M 1595.16 352.727 L 1611.24 352.727 L 1611.24 368.686 L 1595.16 368.686 L 1595.16 352.727 Z " fill="rgb(235,235,235)"/><path d=" M 308.76 352.727 L 324.84 352.727 L 324.84 368.686 L 308.76 368.686 L 308.76 352.727 Z " fill="rgb(235,235,235)"/><path d=" M 1337.88 352.727 L 1353.96 352.727 L 1353.96 368.686 L 1337.88 368.686 L 1337.88 352.727 Z " fill="rgb(235,235,235)"/><path d=" M 823.32 352.727 L 839.4 352.727 L 839.4 368.686 L 823.32 368.686 L 823.32 352.727 Z " fill="rgb(235,235,235)"/><path d=" M 1852.44 352.727 L 1868.52 352.727 L 1868.52 368.686 L 1852.44 368.686 L 1852.44 352.727 Z " fill="rgb(235,235,235)"/></g><g id="Group"><path d=" M 887.64 847.475 L 903.72 847.475 L 903.72 863.435 L 887.64 863.435 L 887.64 847.475 Z " fill="rgb(235,235,235)"/><path d=" M 373.08 847.475 L 389.16 847.475 L 389.16 863.435 L 373.08 863.435 L 373.08 847.475 Z " fill="rgb(235,235,235)"/><path d=" M 1402.2 847.475 L 1418.28 847.475 L 1418.28 863.435 L 1402.2 863.435 L 1402.2 847.475 Z " fill="rgb(235,235,235)"/><path d=" M 115.8 847.475 L 131.88 847.475 L 131.88 863.435 L 115.8 863.435 L 115.8 847.475 Z " fill="rgb(235,235,235)"/><path d=" M 1144.92 847.475 L 1161 847.475 L 1161 863.435 L 1144.92 863.435 L 1144.92 847.475 Z " fill="rgb(235,235,235)"/><path d=" M 630.36 847.475 L 646.44 847.475 L 646.44 863.435 L 630.36 863.435 L 630.36 847.475 Z " fill="rgb(235,235,235)"/><path d=" M 1659.48 847.475 L 1675.56 847.475 L 1675.56 863.435 L 1659.48 863.435 L 1659.48 847.475 Z " fill="rgb(235,235,235)"/><path d=" M 1016.28 847.475 L 1032.36 847.475 L 1032.36 863.435 L 1016.28 863.435 L 1016.28 847.475 Z " fill="rgb(235,235,235)"/><path d=" M 501.72 847.475 L 517.8 847.475 L 517.8 863.435 L 501.72 863.435 L 501.72 847.475 Z " fill="rgb(235,235,235)"/><path d=" M 1530.84 847.475 L 1546.92 847.475 L 1546.92 863.435 L 1530.84 863.435 L 1530.84 847.475 Z " fill="rgb(235,235,235)"/><path d=" M 244.44 847.475 L 260.52 847.475 L 260.52 863.435 L 244.44 863.435 L 244.44 847.475 Z " fill="rgb(235,235,235)"/><path d=" M 1273.56 847.475 L 1289.64 847.475 L 1289.64 863.435 L 1273.56 863.435 L 1273.56 847.475 Z " fill="rgb(235,235,235)"/><path d=" M 759 847.475 L 775.08 847.475 L 775.08 863.435 L 759 863.435 L 759 847.475 Z " fill="rgb(235,235,235)"/><path d=" M 1788.12 847.475 L 1804.2 847.475 L 1804.2 863.435 L 1788.12 863.435 L 1788.12 847.475 Z " fill="rgb(235,235,235)"/><path d=" M 951.96 847.475 L 968.04 847.475 L 968.04 863.435 L 951.96 863.435 L 951.96 847.475 Z " fill="rgb(235,235,235)"/><path d=" M 437.4 847.475 L 453.48 847.475 L 453.48 863.435 L 437.4 863.435 L 437.4 847.475 Z " fill="rgb(235,235,235)"/><path d=" M 1466.52 847.475 L 1482.6 847.475 L 1482.6 863.435 L 1466.52 863.435 L 1466.52 847.475 Z " fill="rgb(235,235,235)"/><path d=" M 180.12 847.475 L 196.2 847.475 L 196.2 863.435 L 180.12 863.435 L 180.12 847.475 Z " fill="rgb(235,235,235)"/><path d=" M 1209.24 847.475 L 1225.32 847.475 L 1225.32 863.435 L 1209.24 863.435 L 1209.24 847.475 Z " fill="rgb(235,235,235)"/><path d=" M 694.68 847.475 L 710.76 847.475 L 710.76 863.435 L 694.68 863.435 L 694.68 847.475 Z " fill="rgb(235,235,235)"/><path d=" M 1723.8 847.475 L 1739.88 847.475 L 1739.88 863.435 L 1723.8 863.435 L 1723.8 847.475 Z " fill="rgb(235,235,235)"/><path d=" M 51.48 847.475 L 67.56 847.475 L 67.56 863.435 L 51.48 863.435 L 51.48 847.475 Z " fill="rgb(235,235,235)"/><path d=" M 1080.6 847.475 L 1096.68 847.475 L 1096.68 863.435 L 1080.6 863.435 L 1080.6 847.475 Z " fill="rgb(235,235,235)"/><path d=" M 566.04 847.475 L 582.12 847.475 L 582.12 863.435 L 566.04 863.435 L 566.04 847.475 Z " fill="rgb(235,235,235)"/><path d=" M 1595.16 847.475 L 1611.24 847.475 L 1611.24 863.435 L 1595.16 863.435 L 1595.16 847.475 Z " fill="rgb(235,235,235)"/><path d=" M 308.76 847.475 L 324.84 847.475 L 324.84 863.435 L 308.76 863.435 L 308.76 847.475 Z " fill="rgb(235,235,235)"/><path d=" M 1337.88 847.475 L 1353.96 847.475 L 1353.96 863.435 L 1337.88 863.435 L 1337.88 847.475 Z " fill="rgb(235,235,235)"/><path d=" M 823.32 847.475 L 839.4 847.475 L 839.4 863.435 L 823.32 863.435 L 823.32 847.475 Z " fill="rgb(235,235,235)"/><path d=" M 1852.44 847.475 L 1868.52 847.475 L 1868.52 863.435 L 1852.44 863.435 L 1852.44 847.475 Z " fill="rgb(235,235,235)"/></g><g id="Group"><path d=" M 887.64 1342.223 L 903.72 1342.223 L 903.72 1358.183 L 887.64 1358.183 L 887.64 1342.223 Z " fill="rgb(235,235,235)"/><path d=" M 373.08 1342.223 L 389.16 1342.223 L 389.16 1358.183 L 373.08 1358.183 L 373.08 1342.223 Z " fill="rgb(235,235,235)"/><path d=" M 1402.2 1342.223 L 1418.28 1342.223 L 1418.28 1358.183 L 1402.2 1358.183 L 1402.2 1342.223 Z " fill="rgb(235,235,235)"/><path d=" M 115.8 1342.223 L 131.88 1342.223 L 131.88 1358.183 L 115.8 1358.183 L 115.8 1342.223 Z " fill="rgb(235,235,235)"/><path d=" M 1144.92 1342.223 L 1161 1342.223 L 1161 1358.183 L 1144.92 1358.183 L 1144.92 1342.223 Z " fill="rgb(235,235,235)"/><path d=" M 630.36 1342.223 L 646.44 1342.223 L 646.44 1358.183 L 630.36 1358.183 L 630.36 1342.223 Z " fill="rgb(235,235,235)"/><path d=" M 1659.48 1342.223 L 1675.56 1342.223 L 1675.56 1358.183 L 1659.48 1358.183 L 1659.48 1342.223 Z " fill="rgb(235,235,235)"/><path d=" M 1016.28 1342.223 L 1032.36 1342.223 L 1032.36 1358.183 L 1016.28 1358.183 L 1016.28 1342.223 Z " fill="rgb(235,235,235)"/><path d=" M 501.72 1342.223 L 517.8 1342.223 L 517.8 1358.183 L 501.72 1358.183 L 501.72 1342.223 Z " fill="rgb(235,235,235)"/><path d=" M 1530.84 1342.223 L 1546.92 1342.223 L 1546.92 1358.183 L 1530.84 1358.183 L 1530.84 1342.223 Z " fill="rgb(235,235,235)"/><path d=" M 244.44 1342.223 L 260.52 1342.223 L 260.52 1358.183 L 244.44 1358.183 L 244.44 1342.223 Z " fill="rgb(235,235,235)"/><path d=" M 1273.56 1342.223 L 1289.64 1342.223 L 1289.64 1358.183 L 1273.56 1358.183 L 1273.56 1342.223 Z " fill="rgb(235,235,235)"/><path d=" M 759 1342.223 L 775.08 1342.223 L 775.08 1358.183 L 759 1358.183 L 759 1342.223 Z " fill="rgb(235,235,235)"/><path d=" M 1788.12 1342.223 L 1804.2 1342.223 L 1804.2 1358.183 L 1788.12 1358.183 L 1788.12 1342.223 Z " fill="rgb(235,235,235)"/><path d=" M 951.96 1342.223 L 968.04 1342.223 L 968.04 1358.183 L 951.96 1358.183 L 951.96 1342.223 Z " fill="rgb(235,235,235)"/><path d=" M 437.4 1342.223 L 453.48 1342.223 L 453.48 1358.183 L 437.4 1358.183 L 437.4 1342.223 Z " fill="rgb(235,235,235)"/><path d=" M 1466.52 1342.223 L 1482.6 1342.223 L 1482.6 1358.183 L 1466.52 1358.183 L 1466.52 1342.223 Z " fill="rgb(235,235,235)"/><path d=" M 180.12 1342.223 L 196.2 1342.223 L 196.2 1358.183 L 180.12 1358.183 L 180.12 1342.223 Z " fill="rgb(235,235,235)"/><path d=" M 1209.24 1342.223 L 1225.32 1342.223 L 1225.32 1358.183 L 1209.24 1358.183 L 1209.24 1342.223 Z " fill="rgb(235,235,235)"/><path d=" M 694.68 1342.223 L 710.76 1342.223 L 710.76 1358.183 L 694.68 1358.183 L 694.68 1342.223 Z " fill="rgb(235,235,235)"/><path d=" M 1723.8 1342.223 L 1739.88 1342.223 L 1739.88 1358.183 L 1723.8 1358.183 L 1723.8 1342.223 Z " fill="rgb(235,235,235)"/><path d=" M 51.48 1342.223 L 67.56 1342.223 L 67.56 1358.183 L 51.48 1358.183 L 51.48 1342.223 Z " fill="rgb(235,235,235)"/><path d=" M 1080.6 1342.223 L 1096.68 1342.223 L 1096.68 1358.183 L 1080.6 1358.183 L 1080.6 1342.223 Z " fill="rgb(235,235,235)"/><path d=" M 566.04 1342.223 L 582.12 1342.223 L 582.12 1358.183 L 566.04 1358.183 L 566.04 1342.223 Z " fill="rgb(235,235,235)"/><path d=" M 1595.16 1342.223 L 1611.24 1342.223 L 1611.24 1358.183 L 1595.16 1358.183 L 1595.16 1342.223 Z " fill="rgb(235,235,235)"/><path d=" M 308.76 1342.223 L 324.84 1342.223 L 324.84 1358.183 L 308.76 1358.183 L 308.76 1342.223 Z " fill="rgb(235,235,235)"/><path d=" M 1337.88 1342.223 L 1353.96 1342.223 L 1353.96 1358.183 L 1337.88 1358.183 L 1337.88 1342.223 Z " fill="rgb(235,235,235)"/><path d=" M 823.32 1342.223 L 839.4 1342.223 L 839.4 1358.183 L 823.32 1358.183 L 823.32 1342.223 Z " fill="rgb(235,235,235)"/><path d=" M 1852.44 1342.223 L 1868.52 1342.223 L 1868.52 1358.183 L 1852.44 1358.183 L 1852.44 1342.223 Z " fill="rgb(235,235,235)"/></g></g></g></svg>