<?xml version="1.0" standalone="no"?><!-- Generator: Gravit.io --><svg xmlns="http://www.w3.org/2000/svg" xmlns:xlink="http://www.w3.org/1999/xlink" style="isolation:isolate" viewBox="0 0 360 580" width="360" height="580"><defs><clipPath id="_clipPath_DzsGABGgWnagvpWcYaAYd98TevCpBCQc"><rect width="360" height="580"/></clipPath></defs><g clip-path="url(#_clipPath_DzsGABGgWnagvpWcYaAYd98TevCpBCQc)"><g id="Group"><g id="Group"><path d=" M 40 555 L 45 555 L 45 560 L 40 560 L 40 555 Z " fill="rgb(74,222,128)"/><path d=" M 85 555 L 90 555 L 90 560 L 85 560 L 85 555 Z " fill="rgb(74,222,128)"/><path d=" M 130 555 L 135 555 L 135 560 L 130 560 L 130 555 Z " fill="rgb(74,222,128)"/><path d=" M 175 555 L 180 555 L 180 560 L 175 560 L 175 555 Z " fill="rgb(74,222,128)"/><path d=" M 220 555 L 225 555 L 225 560 L 220 560 L 220 555 Z " fill="rgb(74,222,128)"/><path d=" M 265 555 L 270 555 L 270 560 L 265 560 L 265 555 Z " fill="rgb(74,222,128)"/><path d=" M 310 555 L 315 555 L 315 560 L 310 560 L 310 555 Z " fill="rgb(74,222,128)"/></g><g id="Group"><g id="Group"><path d=" M 315 330.714 L 310 330.714 L 310 325.714 L 315 325.714 L 315 330.714 Z " fill="rgb(74,222,128)"/><path d=" M 270 330.714 L 265 330.714 L 265 325.714 L 270 325.714 L 270 330.714 Z " fill="rgb(74,222,128)"/><path d=" M 225 330.714 L 220 330.714 L 220 325.714 L 225 325.714 L 225 330.714 Z " fill="rgb(74,222,128)"/><path d=" M 180 330.714 L 175 330.714 L 175 325.714 L 180 325.714 L 180 330.714 Z " fill="rgb(74,222,128)"/><path d=" M 135 330.714 L 130 330.714 L 130 325.714 L 135 325.714 L 135 330.714 Z " fill="rgb(74,222,128)"/><path d=" M 90 330.714 L 85 330.714 L 85 325.714 L 90 325.714 L 90 330.714 Z " fill="rgb(74,222,128)"/><path d=" M 45 330.714 L 40 330.714 L 40 325.714 L 45 325.714 L 45 330.714 Z " fill="rgb(74,222,128)"/></g><g id="Group"><path d=" M 335 368.929 L 330 368.929 L 330 363.929 L 335 363.929 L 335 368.929 Z " fill="rgb(74,222,128)"/><path d=" M 290.714 368.929 L 285.714 368.929 L 285.714 363.929 L 290.714 363.929 L 290.714 368.929 Z " fill="rgb(74,222,128)"/><path d=" M 246.429 368.929 L 241.429 368.929 L 241.429 363.929 L 246.429 363.929 L 246.429 368.929 Z " fill="rgb(74,222,128)"/><path d=" M 202.143 368.929 L 197.143 368.929 L 197.143 363.929 L 202.143 363.929 L 202.143 368.929 Z " fill="rgb(74,222,128)"/><path d=" M 157.857 368.929 L 152.857 368.929 L 152.857 363.929 L 157.857 363.929 L 157.857 368.929 Z " fill="rgb(74,222,128)"/><path d=" M 113.571 368.929 L 108.571 368.929 L 108.571 363.929 L 113.571 363.929 L 113.571 368.929 Z " fill="rgb(74,222,128)"/><path d=" M 69.286 368.929 L 64.286 368.929 L 64.286 363.929 L 69.286 363.929 L 69.286 368.929 Z " fill="rgb(74,222,128)"/><path d=" M 25 368.929 L 20 368.929 L 20 363.929 L 25 363.929 L 25 368.929 Z " fill="rgb(74,222,128)"/></g><g id="Group"><path d=" M 315 407.143 L 310 407.143 L 310 402.143 L 315 402.143 L 315 407.143 Z " fill="rgb(74,222,128)"/><path d=" M 270 407.143 L 265 407.143 L 265 402.143 L 270 402.143 L 270 407.143 Z " fill="rgb(74,222,128)"/><path d=" M 225 407.143 L 220 407.143 L 220 402.143 L 225 402.143 L 225 407.143 Z " fill="rgb(74,222,128)"/><path d=" M 180 407.143 L 175 407.143 L 175 402.143 L 180 402.143 L 180 407.143 Z " fill="rgb(74,222,128)"/><path d=" M 135 407.143 L 130 407.143 L 130 402.143 L 135 402.143 L 135 407.143 Z " fill="rgb(74,222,128)"/><path d=" M 90 407.143 L 85 407.143 L 85 402.143 L 90 402.143 L 90 407.143 Z " fill="rgb(74,222,128)"/><path d=" M 45 407.143 L 40 407.143 L 40 402.143 L 45 402.143 L 45 407.143 Z " fill="rgb(74,222,128)"/></g><g id="Group"><path d=" M 335 445.357 L 330 445.357 L 330 440.357 L 335 440.357 L 335 445.357 Z " fill="rgb(74,222,128)"/><path d=" M 290.714 445.357 L 285.714 445.357 L 285.714 440.357 L 290.714 440.357 L 290.714 445.357 Z " fill="rgb(74,222,128)"/><path d=" M 246.429 445.357 L 241.429 445.357 L 241.429 440.357 L 246.429 440.357 L 246.429 445.357 Z " fill="rgb(74,222,128)"/><path d=" M 202.143 445.357 L 197.143 445.357 L 197.143 440.357 L 202.143 440.357 L 202.143 445.357 Z " fill="rgb(74,222,128)"/><path d=" M 157.857 445.357 L 152.857 445.357 L 152.857 440.357 L 157.857 440.357 L 157.857 445.357 Z " fill="rgb(74,222,128)"/><path d=" M 113.571 445.357 L 108.571 445.357 L 108.571 440.357 L 113.571 440.357 L 113.571 445.357 Z " fill="rgb(74,222,128)"/><path d=" M 69.286 445.357 L 64.286 445.357 L 64.286 440.357 L 69.286 440.357 L 69.286 445.357 Z " fill="rgb(74,222,128)"/><path d=" M 25 445.357 L 20 445.357 L 20 440.357 L 25 440.357 L 25 445.357 Z " fill="rgb(74,222,128)"/></g><g id="Group"><path d=" M 315 483.571 L 310 483.571 L 310 478.571 L 315 478.571 L 315 483.571 Z " fill="rgb(74,222,128)"/><path d=" M 270 483.571 L 265 483.571 L 265 478.571 L 270 478.571 L 270 483.571 Z " fill="rgb(74,222,128)"/><path d=" M 225 483.571 L 220 483.571 L 220 478.571 L 225 478.571 L 225 483.571 Z " fill="rgb(74,222,128)"/><path d=" M 180 483.571 L 175 483.571 L 175 478.571 L 180 478.571 L 180 483.571 Z " fill="rgb(74,222,128)"/><path d=" M 135 483.571 L 130 483.571 L 130 478.571 L 135 478.571 L 135 483.571 Z " fill="rgb(74,222,128)"/><path d=" M 90 483.571 L 85 483.571 L 85 478.571 L 90 478.571 L 90 483.571 Z " fill="rgb(74,222,128)"/><path d=" M 45 483.571 L 40 483.571 L 40 478.571 L 45 478.571 L 45 483.571 Z " fill="rgb(74,222,128)"/></g><g id="Group"><path d=" M 335 521.786 L 330 521.786 L 330 516.786 L 335 516.786 L 335 521.786 Z " fill="rgb(74,222,128)"/><path d=" M 290.714 521.786 L 285.714 521.786 L 285.714 516.786 L 290.714 516.786 L 290.714 521.786 Z " fill="rgb(74,222,128)"/><path d=" M 246.429 521.786 L 241.429 521.786 L 241.429 516.786 L 246.429 516.786 L 246.429 521.786 Z " fill="rgb(74,222,128)"/><path d=" M 202.143 521.786 L 197.143 521.786 L 197.143 516.786 L 202.143 516.786 L 202.143 521.786 Z " fill="rgb(74,222,128)"/><path d=" M 157.857 521.786 L 152.857 521.786 L 152.857 516.786 L 157.857 516.786 L 157.857 521.786 Z " fill="rgb(74,222,128)"/><path d=" M 113.571 521.786 L 108.571 521.786 L 108.571 516.786 L 113.571 516.786 L 113.571 521.786 Z " fill="rgb(74,222,128)"/><path d=" M 69.286 521.786 L 64.286 521.786 L 64.286 516.786 L 69.286 516.786 L 69.286 521.786 Z " fill="rgb(74,222,128)"/><path d=" M 25 521.786 L 20 521.786 L 20 516.786 L 25 516.786 L 25 521.786 Z " fill="rgb(74,222,128)"/></g></g><g id="Group"><path d=" M 20 287.5 L 25 287.5 L 25 292.5 L 20 292.5 L 20 287.5 Z " fill="rgb(74,222,128)"/><path d=" M 64.286 287.5 L 69.286 287.5 L 69.286 292.5 L 64.286 292.5 L 64.286 287.5 Z " fill="rgb(74,222,128)"/><path d=" M 108.571 287.5 L 113.571 287.5 L 113.571 292.5 L 108.571 292.5 L 108.571 287.5 Z " fill="rgb(74,222,128)"/><path d=" M 152.857 287.5 L 157.857 287.5 L 157.857 292.5 L 152.857 292.5 L 152.857 287.5 Z " fill="rgb(74,222,128)"/><path d=" M 197.143 287.5 L 202.143 287.5 L 202.143 292.5 L 197.143 292.5 L 197.143 287.5 Z " fill="rgb(74,222,128)"/><path d=" M 241.429 287.5 L 246.429 287.5 L 246.429 292.5 L 241.429 292.5 L 241.429 287.5 Z " fill="rgb(74,222,128)"/><path d=" M 285.714 287.5 L 290.714 287.5 L 290.714 292.5 L 285.714 292.5 L 285.714 287.5 Z " fill="rgb(74,222,128)"/><path d=" M 330 287.5 L 335 287.5 L 335 292.5 L 330 292.5 L 330 287.5 Z " fill="rgb(74,222,128)"/></g><g id="Group"><g id="Group"><path d=" M 40 249.286 L 45 249.286 L 45 254.286 L 40 254.286 L 40 249.286 Z " fill="rgb(74,222,128)"/><path d=" M 85 249.286 L 90 249.286 L 90 254.286 L 85 254.286 L 85 249.286 Z " fill="rgb(74,222,128)"/><path d=" M 130 249.286 L 135 249.286 L 135 254.286 L 130 254.286 L 130 249.286 Z " fill="rgb(74,222,128)"/><path d=" M 175 249.286 L 180 249.286 L 180 254.286 L 175 254.286 L 175 249.286 Z " fill="rgb(74,222,128)"/><path d=" M 220 249.286 L 225 249.286 L 225 254.286 L 220 254.286 L 220 249.286 Z " fill="rgb(74,222,128)"/><path d=" M 265 249.286 L 270 249.286 L 270 254.286 L 265 254.286 L 265 249.286 Z " fill="rgb(74,222,128)"/><path d=" M 310 249.286 L 315 249.286 L 315 254.286 L 310 254.286 L 310 249.286 Z " fill="rgb(74,222,128)"/></g><g id="Group"><path d=" M 20 211.071 L 25 211.071 L 25 216.071 L 20 216.071 L 20 211.071 Z " fill="rgb(74,222,128)"/><path d=" M 64.286 211.071 L 69.286 211.071 L 69.286 216.071 L 64.286 216.071 L 64.286 211.071 Z " fill="rgb(74,222,128)"/><path d=" M 108.571 211.071 L 113.571 211.071 L 113.571 216.071 L 108.571 216.071 L 108.571 211.071 Z " fill="rgb(74,222,128)"/><path d=" M 152.857 211.071 L 157.857 211.071 L 157.857 216.071 L 152.857 216.071 L 152.857 211.071 Z " fill="rgb(74,222,128)"/><path d=" M 197.143 211.071 L 202.143 211.071 L 202.143 216.071 L 197.143 216.071 L 197.143 211.071 Z " fill="rgb(74,222,128)"/><path d=" M 241.429 211.071 L 246.429 211.071 L 246.429 216.071 L 241.429 216.071 L 241.429 211.071 Z " fill="rgb(74,222,128)"/><path d=" M 285.714 211.071 L 290.714 211.071 L 290.714 216.071 L 285.714 216.071 L 285.714 211.071 Z " fill="rgb(74,222,128)"/><path d=" M 330 211.071 L 335 211.071 L 335 216.071 L 330 216.071 L 330 211.071 Z " fill="rgb(74,222,128)"/></g><g id="Group"><path d=" M 40 172.857 L 45 172.857 L 45 177.857 L 40 177.857 L 40 172.857 Z " fill="rgb(74,222,128)"/><path d=" M 85 172.857 L 90 172.857 L 90 177.857 L 85 177.857 L 85 172.857 Z " fill="rgb(74,222,128)"/><path d=" M 130 172.857 L 135 172.857 L 135 177.857 L 130 177.857 L 130 172.857 Z " fill="rgb(74,222,128)"/><path d=" M 175 172.857 L 180 172.857 L 180 177.857 L 175 177.857 L 175 172.857 Z " fill="rgb(74,222,128)"/><path d=" M 220 172.857 L 225 172.857 L 225 177.857 L 220 177.857 L 220 172.857 Z " fill="rgb(74,222,128)"/><path d=" M 265 172.857 L 270 172.857 L 270 177.857 L 265 177.857 L 265 172.857 Z " fill="rgb(74,222,128)"/><path d=" M 310 172.857 L 315 172.857 L 315 177.857 L 310 177.857 L 310 172.857 Z " fill="rgb(74,222,128)"/></g><g id="Group"><path d=" M 20 134.643 L 25 134.643 L 25 139.643 L 20 139.643 L 20 134.643 Z " fill="rgb(74,222,128)"/><path d=" M 64.286 134.643 L 69.286 134.643 L 69.286 139.643 L 64.286 139.643 L 64.286 134.643 Z " fill="rgb(74,222,128)"/><path d=" M 108.571 134.643 L 113.571 134.643 L 113.571 139.643 L 108.571 139.643 L 108.571 134.643 Z " fill="rgb(74,222,128)"/><path d=" M 152.857 134.643 L 157.857 134.643 L 157.857 139.643 L 152.857 139.643 L 152.857 134.643 Z " fill="rgb(74,222,128)"/><path d=" M 197.143 134.643 L 202.143 134.643 L 202.143 139.643 L 197.143 139.643 L 197.143 134.643 Z " fill="rgb(74,222,128)"/><path d=" M 241.429 134.643 L 246.429 134.643 L 246.429 139.643 L 241.429 139.643 L 241.429 134.643 Z " fill="rgb(74,222,128)"/><path d=" M 285.714 134.643 L 290.714 134.643 L 290.714 139.643 L 285.714 139.643 L 285.714 134.643 Z " fill="rgb(74,222,128)"/><path d=" M 330 134.643 L 335 134.643 L 335 139.643 L 330 139.643 L 330 134.643 Z " fill="rgb(74,222,128)"/></g><g id="Group"><path d=" M 40 96.429 L 45 96.429 L 45 101.429 L 40 101.429 L 40 96.429 Z " fill="rgb(74,222,128)"/><path d=" M 85 96.429 L 90 96.429 L 90 101.429 L 85 101.429 L 85 96.429 Z " fill="rgb(74,222,128)"/><path d=" M 130 96.429 L 135 96.429 L 135 101.429 L 130 101.429 L 130 96.429 Z " fill="rgb(74,222,128)"/><path d=" M 175 96.429 L 180 96.429 L 180 101.429 L 175 101.429 L 175 96.429 Z " fill="rgb(74,222,128)"/><path d=" M 220 96.429 L 225 96.429 L 225 101.429 L 220 101.429 L 220 96.429 Z " fill="rgb(74,222,128)"/><path d=" M 265 96.429 L 270 96.429 L 270 101.429 L 265 101.429 L 265 96.429 Z " fill="rgb(74,222,128)"/><path d=" M 310 96.429 L 315 96.429 L 315 101.429 L 310 101.429 L 310 96.429 Z " fill="rgb(74,222,128)"/></g><g id="Group"><path d=" M 20 58.214 L 25 58.214 L 25 63.214 L 20 63.214 L 20 58.214 Z " fill="rgb(74,222,128)"/><path d=" M 64.286 58.214 L 69.286 58.214 L 69.286 63.214 L 64.286 63.214 L 64.286 58.214 Z " fill="rgb(74,222,128)"/><path d=" M 108.571 58.214 L 113.571 58.214 L 113.571 63.214 L 108.571 63.214 L 108.571 58.214 Z " fill="rgb(74,222,128)"/><path d=" M 152.857 58.214 L 157.857 58.214 L 157.857 63.214 L 152.857 63.214 L 152.857 58.214 Z " fill="rgb(74,222,128)"/><path d=" M 197.143 58.214 L 202.143 58.214 L 202.143 63.214 L 197.143 63.214 L 197.143 58.214 Z " fill="rgb(74,222,128)"/><path d=" M 241.429 58.214 L 246.429 58.214 L 246.429 63.214 L 241.429 63.214 L 241.429 58.214 Z " fill="rgb(74,222,128)"/><path d=" M 285.714 58.214 L 290.714 58.214 L 290.714 63.214 L 285.714 63.214 L 285.714 58.214 Z " fill="rgb(74,222,128)"/><path d=" M 330 58.214 L 335 58.214 L 335 63.214 L 330 63.214 L 330 58.214 Z " fill="rgb(74,222,128)"/></g></g><g id="Group"><path d=" M 40 20 L 45 20 L 45 25 L 40 25 L 40 20 Z " fill="rgb(74,222,128)"/><path d=" M 85 20 L 90 20 L 90 25 L 85 25 L 85 20 Z " fill="rgb(74,222,128)"/><path d=" M 130 20 L 135 20 L 135 25 L 130 25 L 130 20 Z " fill="rgb(74,222,128)"/><path d=" M 175 20 L 180 20 L 180 25 L 175 25 L 175 20 Z " fill="rgb(74,222,128)"/><path d=" M 220 20 L 225 20 L 225 25 L 220 25 L 220 20 Z " fill="rgb(74,222,128)"/><path d=" M 265 20 L 270 20 L 270 25 L 265 25 L 265 20 Z " fill="rgb(74,222,128)"/><path d=" M 310 20 L 315 20 L 315 25 L 310 25 L 310 20 Z " fill="rgb(74,222,128)"/></g></g></g></svg>