<?xml version="1.0" standalone="no"?><!-- Generator: Gravit.io --><svg xmlns="http://www.w3.org/2000/svg" xmlns:xlink="http://www.w3.org/1999/xlink" style="isolation:isolate" viewBox="0 0 1920 1280" width="1920" height="1280"><defs><clipPath id="_clipPath_nB9VTmI5IwRoU7kRc1gFQkn92ZC2roTw"><rect width="1920" height="1280"/></clipPath></defs><g clip-path="url(#_clipPath_nB9VTmI5IwRoU7kRc1gFQkn92ZC2roTw)"><g id="Group"><g id="Group"><path d=" M 70.109 1240 L 80.109 1240 L 80.109 1250 L 70.109 1250 L 70.109 1240 Z " fill="rgb(235,235,235)"/><path d=" M 391.887 1240 L 401.887 1240 L 401.887 1250 L 391.887 1250 L 391.887 1240 Z " fill="rgb(235,235,235)"/><path d=" M 713.666 1240 L 723.666 1240 L 723.666 1250 L 713.666 1250 L 713.666 1240 Z " fill="rgb(235,235,235)"/><path d=" M 1035.445 1240 L 1045.445 1240 L 1045.445 1250 L 1035.445 1250 L 1035.445 1240 Z " fill="rgb(235,235,235)"/><path d=" M 1357.223 1240 L 1367.223 1240 L 1367.223 1250 L 1357.223 1250 L 1357.223 1240 Z " fill="rgb(235,235,235)"/><path d=" M 1679.002 1240 L 1689.002 1240 L 1689.002 1250 L 1679.002 1250 L 1679.002 1240 Z " fill="rgb(235,235,235)"/><path d=" M 230.998 1240 L 240.998 1240 L 240.998 1250 L 230.998 1250 L 230.998 1240 Z " fill="rgb(235,235,235)"/><path d=" M 552.777 1240 L 562.777 1240 L 562.777 1250 L 552.777 1250 L 552.777 1240 Z " fill="rgb(235,235,235)"/><path d=" M 874.555 1240 L 884.555 1240 L 884.555 1250 L 874.555 1250 L 874.555 1240 Z " fill="rgb(235,235,235)"/><path d=" M 1196.334 1240 L 1206.334 1240 L 1206.334 1250 L 1196.334 1250 L 1196.334 1240 Z " fill="rgb(235,235,235)"/><path d=" M 1518.113 1240 L 1528.113 1240 L 1528.113 1250 L 1518.113 1250 L 1518.113 1240 Z " fill="rgb(235,235,235)"/><path d=" M 150.553 1240 L 160.553 1240 L 160.553 1250 L 150.553 1250 L 150.553 1240 Z " fill="rgb(235,235,235)"/><path d=" M 472.332 1240 L 482.332 1240 L 482.332 1250 L 472.332 1250 L 472.332 1240 Z " fill="rgb(235,235,235)"/><path d=" M 794.111 1240 L 804.111 1240 L 804.111 1250 L 794.111 1250 L 794.111 1240 Z " fill="rgb(235,235,235)"/><path d=" M 1115.889 1240 L 1125.889 1240 L 1125.889 1250 L 1115.889 1250 L 1115.889 1240 Z " fill="rgb(235,235,235)"/><path d=" M 1437.668 1240 L 1447.668 1240 L 1447.668 1250 L 1437.668 1250 L 1437.668 1240 Z " fill="rgb(235,235,235)"/><path d=" M 1759.447 1240 L 1769.447 1240 L 1769.447 1250 L 1759.447 1250 L 1759.447 1240 Z " fill="rgb(235,235,235)"/><path d=" M 311.443 1240 L 321.443 1240 L 321.443 1250 L 311.443 1250 L 311.443 1240 Z " fill="rgb(235,235,235)"/><path d=" M 633.221 1240 L 643.221 1240 L 643.221 1250 L 633.221 1250 L 633.221 1240 Z " fill="rgb(235,235,235)"/><path d=" M 955 1240 L 965 1240 L 965 1250 L 955 1250 L 955 1240 Z " fill="rgb(235,235,235)"/><path d=" M 1276.779 1240 L 1286.779 1240 L 1286.779 1250 L 1276.779 1250 L 1276.779 1240 Z " fill="rgb(235,235,235)"/><path d=" M 1598.557 1240 L 1608.557 1240 L 1608.557 1250 L 1598.557 1250 L 1598.557 1240 Z " fill="rgb(235,235,235)"/><path d=" M 1839.891 1240 L 1849.891 1240 L 1849.891 1250 L 1839.891 1250 L 1839.891 1240 Z " fill="rgb(235,235,235)"/></g><g id="Group"><path d=" M 30 1171.667 L 40 1171.667 L 40 1181.667 L 30 1181.667 L 30 1171.667 Z " fill="rgb(235,235,235)"/><path d=" M 351.739 1171.667 L 361.739 1171.667 L 361.739 1181.667 L 351.739 1181.667 L 351.739 1171.667 Z " fill="rgb(235,235,235)"/><path d=" M 673.478 1171.667 L 683.478 1171.667 L 683.478 1181.667 L 673.478 1181.667 L 673.478 1171.667 Z " fill="rgb(235,235,235)"/><path d=" M 995.217 1171.667 L 1005.217 1171.667 L 1005.217 1181.667 L 995.217 1181.667 L 995.217 1171.667 Z " fill="rgb(235,235,235)"/><path d=" M 1316.957 1171.667 L 1326.957 1171.667 L 1326.957 1181.667 L 1316.957 1181.667 L 1316.957 1171.667 Z " fill="rgb(235,235,235)"/><path d=" M 1638.696 1171.667 L 1648.696 1171.667 L 1648.696 1181.667 L 1638.696 1181.667 L 1638.696 1171.667 Z " fill="rgb(235,235,235)"/><path d=" M 190.87 1171.667 L 200.87 1171.667 L 200.87 1181.667 L 190.87 1181.667 L 190.87 1171.667 Z " fill="rgb(235,235,235)"/><path d=" M 512.609 1171.667 L 522.609 1171.667 L 522.609 1181.667 L 512.609 1181.667 L 512.609 1171.667 Z " fill="rgb(235,235,235)"/><path d=" M 834.348 1171.667 L 844.348 1171.667 L 844.348 1181.667 L 834.348 1181.667 L 834.348 1171.667 Z " fill="rgb(235,235,235)"/><path d=" M 1156.087 1171.667 L 1166.087 1171.667 L 1166.087 1181.667 L 1156.087 1181.667 L 1156.087 1171.667 Z " fill="rgb(235,235,235)"/><path d=" M 1477.826 1171.667 L 1487.826 1171.667 L 1487.826 1181.667 L 1477.826 1181.667 L 1477.826 1171.667 Z " fill="rgb(235,235,235)"/><path d=" M 1799.565 1171.667 L 1809.565 1171.667 L 1809.565 1181.667 L 1799.565 1181.667 L 1799.565 1171.667 Z " fill="rgb(235,235,235)"/><path d=" M 110.435 1171.667 L 120.435 1171.667 L 120.435 1181.667 L 110.435 1181.667 L 110.435 1171.667 Z " fill="rgb(235,235,235)"/><path d=" M 432.174 1171.667 L 442.174 1171.667 L 442.174 1181.667 L 432.174 1181.667 L 432.174 1171.667 Z " fill="rgb(235,235,235)"/><path d=" M 753.913 1171.667 L 763.913 1171.667 L 763.913 1181.667 L 753.913 1181.667 L 753.913 1171.667 Z " fill="rgb(235,235,235)"/><path d=" M 1075.652 1171.667 L 1085.652 1171.667 L 1085.652 1181.667 L 1075.652 1181.667 L 1075.652 1171.667 Z " fill="rgb(235,235,235)"/><path d=" M 1397.391 1171.667 L 1407.391 1171.667 L 1407.391 1181.667 L 1397.391 1181.667 L 1397.391 1171.667 Z " fill="rgb(235,235,235)"/><path d=" M 1719.13 1171.667 L 1729.13 1171.667 L 1729.13 1181.667 L 1719.13 1181.667 L 1719.13 1171.667 Z " fill="rgb(235,235,235)"/><path d=" M 271.304 1171.667 L 281.304 1171.667 L 281.304 1181.667 L 271.304 1181.667 L 271.304 1171.667 Z " fill="rgb(235,235,235)"/><path d=" M 593.043 1171.667 L 603.043 1171.667 L 603.043 1181.667 L 593.043 1181.667 L 593.043 1171.667 Z " fill="rgb(235,235,235)"/><path d=" M 914.783 1171.667 L 924.783 1171.667 L 924.783 1181.667 L 914.783 1181.667 L 914.783 1171.667 Z " fill="rgb(235,235,235)"/><path d=" M 1236.522 1171.667 L 1246.522 1171.667 L 1246.522 1181.667 L 1236.522 1181.667 L 1236.522 1171.667 Z " fill="rgb(235,235,235)"/><path d=" M 1558.261 1171.667 L 1568.261 1171.667 L 1568.261 1181.667 L 1558.261 1181.667 L 1558.261 1171.667 Z " fill="rgb(235,235,235)"/><path d=" M 1880 1171.667 L 1890 1171.667 L 1890 1181.667 L 1880 1181.667 L 1880 1171.667 Z " fill="rgb(235,235,235)"/></g><g id="Group"><path d=" M 70.109 1103.333 L 80.109 1103.333 L 80.109 1113.333 L 70.109 1113.333 L 70.109 1103.333 Z " fill="rgb(235,235,235)"/><path d=" M 391.887 1103.333 L 401.887 1103.333 L 401.887 1113.333 L 391.887 1113.333 L 391.887 1103.333 Z " fill="rgb(235,235,235)"/><path d=" M 713.666 1103.333 L 723.666 1103.333 L 723.666 1113.333 L 713.666 1113.333 L 713.666 1103.333 Z " fill="rgb(235,235,235)"/><path d=" M 1035.445 1103.333 L 1045.445 1103.333 L 1045.445 1113.333 L 1035.445 1113.333 L 1035.445 1103.333 Z " fill="rgb(235,235,235)"/><path d=" M 1357.223 1103.333 L 1367.223 1103.333 L 1367.223 1113.333 L 1357.223 1113.333 L 1357.223 1103.333 Z " fill="rgb(235,235,235)"/><path d=" M 1679.002 1103.333 L 1689.002 1103.333 L 1689.002 1113.333 L 1679.002 1113.333 L 1679.002 1103.333 Z " fill="rgb(235,235,235)"/><path d=" M 230.998 1103.333 L 240.998 1103.333 L 240.998 1113.333 L 230.998 1113.333 L 230.998 1103.333 Z " fill="rgb(235,235,235)"/><path d=" M 552.777 1103.333 L 562.777 1103.333 L 562.777 1113.333 L 552.777 1113.333 L 552.777 1103.333 Z " fill="rgb(235,235,235)"/><path d=" M 874.555 1103.333 L 884.555 1103.333 L 884.555 1113.333 L 874.555 1113.333 L 874.555 1103.333 Z " fill="rgb(235,235,235)"/><path d=" M 1196.334 1103.333 L 1206.334 1103.333 L 1206.334 1113.333 L 1196.334 1113.333 L 1196.334 1103.333 Z " fill="rgb(235,235,235)"/><path d=" M 1518.113 1103.333 L 1528.113 1103.333 L 1528.113 1113.333 L 1518.113 1113.333 L 1518.113 1103.333 Z " fill="rgb(235,235,235)"/><path d=" M 150.553 1103.333 L 160.553 1103.333 L 160.553 1113.333 L 150.553 1113.333 L 150.553 1103.333 Z " fill="rgb(235,235,235)"/><path d=" M 472.332 1103.333 L 482.332 1103.333 L 482.332 1113.333 L 472.332 1113.333 L 472.332 1103.333 Z " fill="rgb(235,235,235)"/><path d=" M 794.111 1103.333 L 804.111 1103.333 L 804.111 1113.333 L 794.111 1113.333 L 794.111 1103.333 Z " fill="rgb(235,235,235)"/><path d=" M 1115.889 1103.333 L 1125.889 1103.333 L 1125.889 1113.333 L 1115.889 1113.333 L 1115.889 1103.333 Z " fill="rgb(235,235,235)"/><path d=" M 1437.668 1103.333 L 1447.668 1103.333 L 1447.668 1113.333 L 1437.668 1113.333 L 1437.668 1103.333 Z " fill="rgb(235,235,235)"/><path d=" M 1759.447 1103.333 L 1769.447 1103.333 L 1769.447 1113.333 L 1759.447 1113.333 L 1759.447 1103.333 Z " fill="rgb(235,235,235)"/><path d=" M 311.443 1103.333 L 321.443 1103.333 L 321.443 1113.333 L 311.443 1113.333 L 311.443 1103.333 Z " fill="rgb(235,235,235)"/><path d=" M 633.221 1103.333 L 643.221 1103.333 L 643.221 1113.333 L 633.221 1113.333 L 633.221 1103.333 Z " fill="rgb(235,235,235)"/><path d=" M 955 1103.333 L 965 1103.333 L 965 1113.333 L 955 1113.333 L 955 1103.333 Z " fill="rgb(235,235,235)"/><path d=" M 1276.779 1103.333 L 1286.779 1103.333 L 1286.779 1113.333 L 1276.779 1113.333 L 1276.779 1103.333 Z " fill="rgb(235,235,235)"/><path d=" M 1598.557 1103.333 L 1608.557 1103.333 L 1608.557 1113.333 L 1598.557 1113.333 L 1598.557 1103.333 Z " fill="rgb(235,235,235)"/><path d=" M 1839.891 1103.333 L 1849.891 1103.333 L 1849.891 1113.333 L 1839.891 1113.333 L 1839.891 1103.333 Z " fill="rgb(235,235,235)"/></g><g id="Group"><path d=" M 30 1035 L 40 1035 L 40 1045 L 30 1045 L 30 1035 Z " fill="rgb(235,235,235)"/><path d=" M 351.739 1035 L 361.739 1035 L 361.739 1045 L 351.739 1045 L 351.739 1035 Z " fill="rgb(235,235,235)"/><path d=" M 673.478 1035 L 683.478 1035 L 683.478 1045 L 673.478 1045 L 673.478 1035 Z " fill="rgb(235,235,235)"/><path d=" M 995.217 1035 L 1005.217 1035 L 1005.217 1045 L 995.217 1045 L 995.217 1035 Z " fill="rgb(235,235,235)"/><path d=" M 1316.957 1035 L 1326.957 1035 L 1326.957 1045 L 1316.957 1045 L 1316.957 1035 Z " fill="rgb(235,235,235)"/><path d=" M 1638.696 1035 L 1648.696 1035 L 1648.696 1045 L 1638.696 1045 L 1638.696 1035 Z " fill="rgb(235,235,235)"/><path d=" M 190.87 1035 L 200.87 1035 L 200.87 1045 L 190.87 1045 L 190.87 1035 Z " fill="rgb(235,235,235)"/><path d=" M 512.609 1035 L 522.609 1035 L 522.609 1045 L 512.609 1045 L 512.609 1035 Z " fill="rgb(235,235,235)"/><path d=" M 834.348 1035 L 844.348 1035 L 844.348 1045 L 834.348 1045 L 834.348 1035 Z " fill="rgb(235,235,235)"/><path d=" M 1156.087 1035 L 1166.087 1035 L 1166.087 1045 L 1156.087 1045 L 1156.087 1035 Z " fill="rgb(235,235,235)"/><path d=" M 1477.826 1035 L 1487.826 1035 L 1487.826 1045 L 1477.826 1045 L 1477.826 1035 Z " fill="rgb(235,235,235)"/><path d=" M 1799.565 1035 L 1809.565 1035 L 1809.565 1045 L 1799.565 1045 L 1799.565 1035 Z " fill="rgb(235,235,235)"/><path d=" M 110.435 1035 L 120.435 1035 L 120.435 1045 L 110.435 1045 L 110.435 1035 Z " fill="rgb(235,235,235)"/><path d=" M 432.174 1035 L 442.174 1035 L 442.174 1045 L 432.174 1045 L 432.174 1035 Z " fill="rgb(235,235,235)"/><path d=" M 753.913 1035 L 763.913 1035 L 763.913 1045 L 753.913 1045 L 753.913 1035 Z " fill="rgb(235,235,235)"/><path d=" M 1075.652 1035 L 1085.652 1035 L 1085.652 1045 L 1075.652 1045 L 1075.652 1035 Z " fill="rgb(235,235,235)"/><path d=" M 1397.391 1035 L 1407.391 1035 L 1407.391 1045 L 1397.391 1045 L 1397.391 1035 Z " fill="rgb(235,235,235)"/><path d=" M 1719.13 1035 L 1729.13 1035 L 1729.13 1045 L 1719.13 1045 L 1719.13 1035 Z " fill="rgb(235,235,235)"/><path d=" M 271.304 1035 L 281.304 1035 L 281.304 1045 L 271.304 1045 L 271.304 1035 Z " fill="rgb(235,235,235)"/><path d=" M 593.043 1035 L 603.043 1035 L 603.043 1045 L 593.043 1045 L 593.043 1035 Z " fill="rgb(235,235,235)"/><path d=" M 914.783 1035 L 924.783 1035 L 924.783 1045 L 914.783 1045 L 914.783 1035 Z " fill="rgb(235,235,235)"/><path d=" M 1236.522 1035 L 1246.522 1035 L 1246.522 1045 L 1236.522 1045 L 1236.522 1035 Z " fill="rgb(235,235,235)"/><path d=" M 1558.261 1035 L 1568.261 1035 L 1568.261 1045 L 1558.261 1045 L 1558.261 1035 Z " fill="rgb(235,235,235)"/><path d=" M 1880 1035 L 1890 1035 L 1890 1045 L 1880 1045 L 1880 1035 Z " fill="rgb(235,235,235)"/></g><g id="Group"><path d=" M 70.109 966.667 L 80.109 966.667 L 80.109 976.667 L 70.109 976.667 L 70.109 966.667 Z " fill="rgb(235,235,235)"/><path d=" M 391.887 966.667 L 401.887 966.667 L 401.887 976.667 L 391.887 976.667 L 391.887 966.667 Z " fill="rgb(235,235,235)"/><path d=" M 713.666 966.667 L 723.666 966.667 L 723.666 976.667 L 713.666 976.667 L 713.666 966.667 Z " fill="rgb(235,235,235)"/><path d=" M 1035.445 966.667 L 1045.445 966.667 L 1045.445 976.667 L 1035.445 976.667 L 1035.445 966.667 Z " fill="rgb(235,235,235)"/><path d=" M 1357.223 966.667 L 1367.223 966.667 L 1367.223 976.667 L 1357.223 976.667 L 1357.223 966.667 Z " fill="rgb(235,235,235)"/><path d=" M 1679.002 966.667 L 1689.002 966.667 L 1689.002 976.667 L 1679.002 976.667 L 1679.002 966.667 Z " fill="rgb(235,235,235)"/><path d=" M 230.998 966.667 L 240.998 966.667 L 240.998 976.667 L 230.998 976.667 L 230.998 966.667 Z " fill="rgb(235,235,235)"/><path d=" M 552.777 966.667 L 562.777 966.667 L 562.777 976.667 L 552.777 976.667 L 552.777 966.667 Z " fill="rgb(235,235,235)"/><path d=" M 874.555 966.667 L 884.555 966.667 L 884.555 976.667 L 874.555 976.667 L 874.555 966.667 Z " fill="rgb(235,235,235)"/><path d=" M 1196.334 966.667 L 1206.334 966.667 L 1206.334 976.667 L 1196.334 976.667 L 1196.334 966.667 Z " fill="rgb(235,235,235)"/><path d=" M 1518.113 966.667 L 1528.113 966.667 L 1528.113 976.667 L 1518.113 976.667 L 1518.113 966.667 Z " fill="rgb(235,235,235)"/><path d=" M 150.553 966.667 L 160.553 966.667 L 160.553 976.667 L 150.553 976.667 L 150.553 966.667 Z " fill="rgb(235,235,235)"/><path d=" M 472.332 966.667 L 482.332 966.667 L 482.332 976.667 L 472.332 976.667 L 472.332 966.667 Z " fill="rgb(235,235,235)"/><path d=" M 794.111 966.667 L 804.111 966.667 L 804.111 976.667 L 794.111 976.667 L 794.111 966.667 Z " fill="rgb(235,235,235)"/><path d=" M 1115.889 966.667 L 1125.889 966.667 L 1125.889 976.667 L 1115.889 976.667 L 1115.889 966.667 Z " fill="rgb(235,235,235)"/><path d=" M 1437.668 966.667 L 1447.668 966.667 L 1447.668 976.667 L 1437.668 976.667 L 1437.668 966.667 Z " fill="rgb(235,235,235)"/><path d=" M 1759.447 966.667 L 1769.447 966.667 L 1769.447 976.667 L 1759.447 976.667 L 1759.447 966.667 Z " fill="rgb(235,235,235)"/><path d=" M 311.443 966.667 L 321.443 966.667 L 321.443 976.667 L 311.443 976.667 L 311.443 966.667 Z " fill="rgb(235,235,235)"/><path d=" M 633.221 966.667 L 643.221 966.667 L 643.221 976.667 L 633.221 976.667 L 633.221 966.667 Z " fill="rgb(235,235,235)"/><path d=" M 955 966.667 L 965 966.667 L 965 976.667 L 955 976.667 L 955 966.667 Z " fill="rgb(235,235,235)"/><path d=" M 1276.779 966.667 L 1286.779 966.667 L 1286.779 976.667 L 1276.779 976.667 L 1276.779 966.667 Z " fill="rgb(235,235,235)"/><path d=" M 1598.557 966.667 L 1608.557 966.667 L 1608.557 976.667 L 1598.557 976.667 L 1598.557 966.667 Z " fill="rgb(235,235,235)"/><path d=" M 1839.891 966.667 L 1849.891 966.667 L 1849.891 976.667 L 1839.891 976.667 L 1839.891 966.667 Z " fill="rgb(235,235,235)"/></g><g id="Group"><path d=" M 30 898.333 L 40 898.333 L 40 908.333 L 30 908.333 L 30 898.333 Z " fill="rgb(235,235,235)"/><path d=" M 351.739 898.333 L 361.739 898.333 L 361.739 908.333 L 351.739 908.333 L 351.739 898.333 Z " fill="rgb(235,235,235)"/><path d=" M 673.478 898.333 L 683.478 898.333 L 683.478 908.333 L 673.478 908.333 L 673.478 898.333 Z " fill="rgb(235,235,235)"/><path d=" M 995.217 898.333 L 1005.217 898.333 L 1005.217 908.333 L 995.217 908.333 L 995.217 898.333 Z " fill="rgb(235,235,235)"/><path d=" M 1316.957 898.333 L 1326.957 898.333 L 1326.957 908.333 L 1316.957 908.333 L 1316.957 898.333 Z " fill="rgb(235,235,235)"/><path d=" M 1638.696 898.333 L 1648.696 898.333 L 1648.696 908.333 L 1638.696 908.333 L 1638.696 898.333 Z " fill="rgb(235,235,235)"/><path d=" M 190.87 898.333 L 200.87 898.333 L 200.87 908.333 L 190.87 908.333 L 190.87 898.333 Z " fill="rgb(235,235,235)"/><path d=" M 512.609 898.333 L 522.609 898.333 L 522.609 908.333 L 512.609 908.333 L 512.609 898.333 Z " fill="rgb(235,235,235)"/><path d=" M 834.348 898.333 L 844.348 898.333 L 844.348 908.333 L 834.348 908.333 L 834.348 898.333 Z " fill="rgb(235,235,235)"/><path d=" M 1156.087 898.333 L 1166.087 898.333 L 1166.087 908.333 L 1156.087 908.333 L 1156.087 898.333 Z " fill="rgb(235,235,235)"/><path d=" M 1477.826 898.333 L 1487.826 898.333 L 1487.826 908.333 L 1477.826 908.333 L 1477.826 898.333 Z " fill="rgb(235,235,235)"/><path d=" M 1799.565 898.333 L 1809.565 898.333 L 1809.565 908.333 L 1799.565 908.333 L 1799.565 898.333 Z " fill="rgb(235,235,235)"/><path d=" M 110.435 898.333 L 120.435 898.333 L 120.435 908.333 L 110.435 908.333 L 110.435 898.333 Z " fill="rgb(235,235,235)"/><path d=" M 432.174 898.333 L 442.174 898.333 L 442.174 908.333 L 432.174 908.333 L 432.174 898.333 Z " fill="rgb(235,235,235)"/><path d=" M 753.913 898.333 L 763.913 898.333 L 763.913 908.333 L 753.913 908.333 L 753.913 898.333 Z " fill="rgb(235,235,235)"/><path d=" M 1075.652 898.333 L 1085.652 898.333 L 1085.652 908.333 L 1075.652 908.333 L 1075.652 898.333 Z " fill="rgb(235,235,235)"/><path d=" M 1397.391 898.333 L 1407.391 898.333 L 1407.391 908.333 L 1397.391 908.333 L 1397.391 898.333 Z " fill="rgb(235,235,235)"/><path d=" M 1719.13 898.333 L 1729.13 898.333 L 1729.13 908.333 L 1719.13 908.333 L 1719.13 898.333 Z " fill="rgb(235,235,235)"/><path d=" M 271.304 898.333 L 281.304 898.333 L 281.304 908.333 L 271.304 908.333 L 271.304 898.333 Z " fill="rgb(235,235,235)"/><path d=" M 593.043 898.333 L 603.043 898.333 L 603.043 908.333 L 593.043 908.333 L 593.043 898.333 Z " fill="rgb(235,235,235)"/><path d=" M 914.783 898.333 L 924.783 898.333 L 924.783 908.333 L 914.783 908.333 L 914.783 898.333 Z " fill="rgb(235,235,235)"/><path d=" M 1236.522 898.333 L 1246.522 898.333 L 1246.522 908.333 L 1236.522 908.333 L 1236.522 898.333 Z " fill="rgb(235,235,235)"/><path d=" M 1558.261 898.333 L 1568.261 898.333 L 1568.261 908.333 L 1558.261 908.333 L 1558.261 898.333 Z " fill="rgb(235,235,235)"/><path d=" M 1880 898.333 L 1890 898.333 L 1890 908.333 L 1880 908.333 L 1880 898.333 Z " fill="rgb(235,235,235)"/></g><g id="Group"><path d=" M 70.109 830 L 80.109 830 L 80.109 840 L 70.109 840 L 70.109 830 Z " fill="rgb(235,235,235)"/><path d=" M 391.887 830 L 401.887 830 L 401.887 840 L 391.887 840 L 391.887 830 Z " fill="rgb(235,235,235)"/><path d=" M 713.666 830 L 723.666 830 L 723.666 840 L 713.666 840 L 713.666 830 Z " fill="rgb(235,235,235)"/><path d=" M 1035.445 830 L 1045.445 830 L 1045.445 840 L 1035.445 840 L 1035.445 830 Z " fill="rgb(235,235,235)"/><path d=" M 1357.223 830 L 1367.223 830 L 1367.223 840 L 1357.223 840 L 1357.223 830 Z " fill="rgb(235,235,235)"/><path d=" M 1679.002 830 L 1689.002 830 L 1689.002 840 L 1679.002 840 L 1679.002 830 Z " fill="rgb(235,235,235)"/><path d=" M 230.998 830 L 240.998 830 L 240.998 840 L 230.998 840 L 230.998 830 Z " fill="rgb(235,235,235)"/><path d=" M 552.777 830 L 562.777 830 L 562.777 840 L 552.777 840 L 552.777 830 Z " fill="rgb(235,235,235)"/><path d=" M 874.555 830 L 884.555 830 L 884.555 840 L 874.555 840 L 874.555 830 Z " fill="rgb(235,235,235)"/><path d=" M 1196.334 830 L 1206.334 830 L 1206.334 840 L 1196.334 840 L 1196.334 830 Z " fill="rgb(235,235,235)"/><path d=" M 1518.113 830 L 1528.113 830 L 1528.113 840 L 1518.113 840 L 1518.113 830 Z " fill="rgb(235,235,235)"/><path d=" M 150.553 830 L 160.553 830 L 160.553 840 L 150.553 840 L 150.553 830 Z " fill="rgb(235,235,235)"/><path d=" M 472.332 830 L 482.332 830 L 482.332 840 L 472.332 840 L 472.332 830 Z " fill="rgb(235,235,235)"/><path d=" M 794.111 830 L 804.111 830 L 804.111 840 L 794.111 840 L 794.111 830 Z " fill="rgb(235,235,235)"/><path d=" M 1115.889 830 L 1125.889 830 L 1125.889 840 L 1115.889 840 L 1115.889 830 Z " fill="rgb(235,235,235)"/><path d=" M 1437.668 830 L 1447.668 830 L 1447.668 840 L 1437.668 840 L 1437.668 830 Z " fill="rgb(235,235,235)"/><path d=" M 1759.447 830 L 1769.447 830 L 1769.447 840 L 1759.447 840 L 1759.447 830 Z " fill="rgb(235,235,235)"/><path d=" M 311.443 830 L 321.443 830 L 321.443 840 L 311.443 840 L 311.443 830 Z " fill="rgb(235,235,235)"/><path d=" M 633.221 830 L 643.221 830 L 643.221 840 L 633.221 840 L 633.221 830 Z " fill="rgb(235,235,235)"/><path d=" M 955 830 L 965 830 L 965 840 L 955 840 L 955 830 Z " fill="rgb(235,235,235)"/><path d=" M 1276.779 830 L 1286.779 830 L 1286.779 840 L 1276.779 840 L 1276.779 830 Z " fill="rgb(235,235,235)"/><path d=" M 1598.557 830 L 1608.557 830 L 1608.557 840 L 1598.557 840 L 1598.557 830 Z " fill="rgb(235,235,235)"/><path d=" M 1839.891 830 L 1849.891 830 L 1849.891 840 L 1839.891 840 L 1839.891 830 Z " fill="rgb(235,235,235)"/></g><g id="Group"><path d=" M 30 761.667 L 40 761.667 L 40 771.667 L 30 771.667 L 30 761.667 Z " fill="rgb(235,235,235)"/><path d=" M 351.739 761.667 L 361.739 761.667 L 361.739 771.667 L 351.739 771.667 L 351.739 761.667 Z " fill="rgb(235,235,235)"/><path d=" M 673.478 761.667 L 683.478 761.667 L 683.478 771.667 L 673.478 771.667 L 673.478 761.667 Z " fill="rgb(235,235,235)"/><path d=" M 995.217 761.667 L 1005.217 761.667 L 1005.217 771.667 L 995.217 771.667 L 995.217 761.667 Z " fill="rgb(235,235,235)"/><path d=" M 1316.957 761.667 L 1326.957 761.667 L 1326.957 771.667 L 1316.957 771.667 L 1316.957 761.667 Z " fill="rgb(235,235,235)"/><path d=" M 1638.696 761.667 L 1648.696 761.667 L 1648.696 771.667 L 1638.696 771.667 L 1638.696 761.667 Z " fill="rgb(235,235,235)"/><path d=" M 190.87 761.667 L 200.87 761.667 L 200.87 771.667 L 190.87 771.667 L 190.87 761.667 Z " fill="rgb(235,235,235)"/><path d=" M 512.609 761.667 L 522.609 761.667 L 522.609 771.667 L 512.609 771.667 L 512.609 761.667 Z " fill="rgb(235,235,235)"/><path d=" M 834.348 761.667 L 844.348 761.667 L 844.348 771.667 L 834.348 771.667 L 834.348 761.667 Z " fill="rgb(235,235,235)"/><path d=" M 1156.087 761.667 L 1166.087 761.667 L 1166.087 771.667 L 1156.087 771.667 L 1156.087 761.667 Z " fill="rgb(235,235,235)"/><path d=" M 1477.826 761.667 L 1487.826 761.667 L 1487.826 771.667 L 1477.826 771.667 L 1477.826 761.667 Z " fill="rgb(235,235,235)"/><path d=" M 1799.565 761.667 L 1809.565 761.667 L 1809.565 771.667 L 1799.565 771.667 L 1799.565 761.667 Z " fill="rgb(235,235,235)"/><path d=" M 110.435 761.667 L 120.435 761.667 L 120.435 771.667 L 110.435 771.667 L 110.435 761.667 Z " fill="rgb(235,235,235)"/><path d=" M 432.174 761.667 L 442.174 761.667 L 442.174 771.667 L 432.174 771.667 L 432.174 761.667 Z " fill="rgb(235,235,235)"/><path d=" M 753.913 761.667 L 763.913 761.667 L 763.913 771.667 L 753.913 771.667 L 753.913 761.667 Z " fill="rgb(235,235,235)"/><path d=" M 1075.652 761.667 L 1085.652 761.667 L 1085.652 771.667 L 1075.652 771.667 L 1075.652 761.667 Z " fill="rgb(235,235,235)"/><path d=" M 1397.391 761.667 L 1407.391 761.667 L 1407.391 771.667 L 1397.391 771.667 L 1397.391 761.667 Z " fill="rgb(235,235,235)"/><path d=" M 1719.13 761.667 L 1729.13 761.667 L 1729.13 771.667 L 1719.13 771.667 L 1719.13 761.667 Z " fill="rgb(235,235,235)"/><path d=" M 271.304 761.667 L 281.304 761.667 L 281.304 771.667 L 271.304 771.667 L 271.304 761.667 Z " fill="rgb(235,235,235)"/><path d=" M 593.043 761.667 L 603.043 761.667 L 603.043 771.667 L 593.043 771.667 L 593.043 761.667 Z " fill="rgb(235,235,235)"/><path d=" M 914.783 761.667 L 924.783 761.667 L 924.783 771.667 L 914.783 771.667 L 914.783 761.667 Z " fill="rgb(235,235,235)"/><path d=" M 1236.522 761.667 L 1246.522 761.667 L 1246.522 771.667 L 1236.522 771.667 L 1236.522 761.667 Z " fill="rgb(235,235,235)"/><path d=" M 1558.261 761.667 L 1568.261 761.667 L 1568.261 771.667 L 1558.261 771.667 L 1558.261 761.667 Z " fill="rgb(235,235,235)"/><path d=" M 1880 761.667 L 1890 761.667 L 1890 771.667 L 1880 771.667 L 1880 761.667 Z " fill="rgb(235,235,235)"/></g><g id="Group"><path d=" M 70.109 693.333 L 80.109 693.333 L 80.109 703.333 L 70.109 703.333 L 70.109 693.333 Z " fill="rgb(235,235,235)"/><path d=" M 391.887 693.333 L 401.887 693.333 L 401.887 703.333 L 391.887 703.333 L 391.887 693.333 Z " fill="rgb(235,235,235)"/><path d=" M 713.666 693.333 L 723.666 693.333 L 723.666 703.333 L 713.666 703.333 L 713.666 693.333 Z " fill="rgb(235,235,235)"/><path d=" M 1035.445 693.333 L 1045.445 693.333 L 1045.445 703.333 L 1035.445 703.333 L 1035.445 693.333 Z " fill="rgb(235,235,235)"/><path d=" M 1357.223 693.333 L 1367.223 693.333 L 1367.223 703.333 L 1357.223 703.333 L 1357.223 693.333 Z " fill="rgb(235,235,235)"/><path d=" M 1679.002 693.333 L 1689.002 693.333 L 1689.002 703.333 L 1679.002 703.333 L 1679.002 693.333 Z " fill="rgb(235,235,235)"/><path d=" M 230.998 693.333 L 240.998 693.333 L 240.998 703.333 L 230.998 703.333 L 230.998 693.333 Z " fill="rgb(235,235,235)"/><path d=" M 552.777 693.333 L 562.777 693.333 L 562.777 703.333 L 552.777 703.333 L 552.777 693.333 Z " fill="rgb(235,235,235)"/><path d=" M 874.555 693.333 L 884.555 693.333 L 884.555 703.333 L 874.555 703.333 L 874.555 693.333 Z " fill="rgb(235,235,235)"/><path d=" M 1196.334 693.333 L 1206.334 693.333 L 1206.334 703.333 L 1196.334 703.333 L 1196.334 693.333 Z " fill="rgb(235,235,235)"/><path d=" M 1518.113 693.333 L 1528.113 693.333 L 1528.113 703.333 L 1518.113 703.333 L 1518.113 693.333 Z " fill="rgb(235,235,235)"/><path d=" M 150.553 693.333 L 160.553 693.333 L 160.553 703.333 L 150.553 703.333 L 150.553 693.333 Z " fill="rgb(235,235,235)"/><path d=" M 472.332 693.333 L 482.332 693.333 L 482.332 703.333 L 472.332 703.333 L 472.332 693.333 Z " fill="rgb(235,235,235)"/><path d=" M 794.111 693.333 L 804.111 693.333 L 804.111 703.333 L 794.111 703.333 L 794.111 693.333 Z " fill="rgb(235,235,235)"/><path d=" M 1115.889 693.333 L 1125.889 693.333 L 1125.889 703.333 L 1115.889 703.333 L 1115.889 693.333 Z " fill="rgb(235,235,235)"/><path d=" M 1437.668 693.333 L 1447.668 693.333 L 1447.668 703.333 L 1437.668 703.333 L 1437.668 693.333 Z " fill="rgb(235,235,235)"/><path d=" M 1759.447 693.333 L 1769.447 693.333 L 1769.447 703.333 L 1759.447 703.333 L 1759.447 693.333 Z " fill="rgb(235,235,235)"/><path d=" M 311.443 693.333 L 321.443 693.333 L 321.443 703.333 L 311.443 703.333 L 311.443 693.333 Z " fill="rgb(235,235,235)"/><path d=" M 633.221 693.333 L 643.221 693.333 L 643.221 703.333 L 633.221 703.333 L 633.221 693.333 Z " fill="rgb(235,235,235)"/><path d=" M 955 693.333 L 965 693.333 L 965 703.333 L 955 703.333 L 955 693.333 Z " fill="rgb(235,235,235)"/><path d=" M 1276.779 693.333 L 1286.779 693.333 L 1286.779 703.333 L 1276.779 703.333 L 1276.779 693.333 Z " fill="rgb(235,235,235)"/><path d=" M 1598.557 693.333 L 1608.557 693.333 L 1608.557 703.333 L 1598.557 703.333 L 1598.557 693.333 Z " fill="rgb(235,235,235)"/><path d=" M 1839.891 693.333 L 1849.891 693.333 L 1849.891 703.333 L 1839.891 703.333 L 1839.891 693.333 Z " fill="rgb(235,235,235)"/></g><g id="Group"><path d=" M 30 625 L 40 625 L 40 635 L 30 635 L 30 625 Z " fill="rgb(235,235,235)"/><path d=" M 351.739 625 L 361.739 625 L 361.739 635 L 351.739 635 L 351.739 625 Z " fill="rgb(235,235,235)"/><path d=" M 673.478 625 L 683.478 625 L 683.478 635 L 673.478 635 L 673.478 625 Z " fill="rgb(235,235,235)"/><path d=" M 995.217 625 L 1005.217 625 L 1005.217 635 L 995.217 635 L 995.217 625 Z " fill="rgb(235,235,235)"/><path d=" M 1316.957 625 L 1326.957 625 L 1326.957 635 L 1316.957 635 L 1316.957 625 Z " fill="rgb(235,235,235)"/><path d=" M 1638.696 625 L 1648.696 625 L 1648.696 635 L 1638.696 635 L 1638.696 625 Z " fill="rgb(235,235,235)"/><path d=" M 190.87 625 L 200.87 625 L 200.87 635 L 190.87 635 L 190.87 625 Z " fill="rgb(235,235,235)"/><path d=" M 512.609 625 L 522.609 625 L 522.609 635 L 512.609 635 L 512.609 625 Z " fill="rgb(235,235,235)"/><path d=" M 834.348 625 L 844.348 625 L 844.348 635 L 834.348 635 L 834.348 625 Z " fill="rgb(235,235,235)"/><path d=" M 1156.087 625 L 1166.087 625 L 1166.087 635 L 1156.087 635 L 1156.087 625 Z " fill="rgb(235,235,235)"/><path d=" M 1477.826 625 L 1487.826 625 L 1487.826 635 L 1477.826 635 L 1477.826 625 Z " fill="rgb(235,235,235)"/><path d=" M 1799.565 625 L 1809.565 625 L 1809.565 635 L 1799.565 635 L 1799.565 625 Z " fill="rgb(235,235,235)"/><path d=" M 110.435 625 L 120.435 625 L 120.435 635 L 110.435 635 L 110.435 625 Z " fill="rgb(235,235,235)"/><path d=" M 432.174 625 L 442.174 625 L 442.174 635 L 432.174 635 L 432.174 625 Z " fill="rgb(235,235,235)"/><path d=" M 753.913 625 L 763.913 625 L 763.913 635 L 753.913 635 L 753.913 625 Z " fill="rgb(235,235,235)"/><path d=" M 1075.652 625 L 1085.652 625 L 1085.652 635 L 1075.652 635 L 1075.652 625 Z " fill="rgb(235,235,235)"/><path d=" M 1397.391 625 L 1407.391 625 L 1407.391 635 L 1397.391 635 L 1397.391 625 Z " fill="rgb(235,235,235)"/><path d=" M 1719.13 625 L 1729.13 625 L 1729.13 635 L 1719.13 635 L 1719.13 625 Z " fill="rgb(235,235,235)"/><path d=" M 271.304 625 L 281.304 625 L 281.304 635 L 271.304 635 L 271.304 625 Z " fill="rgb(235,235,235)"/><path d=" M 593.043 625 L 603.043 625 L 603.043 635 L 593.043 635 L 593.043 625 Z " fill="rgb(235,235,235)"/><path d=" M 914.783 625 L 924.783 625 L 924.783 635 L 914.783 635 L 914.783 625 Z " fill="rgb(235,235,235)"/><path d=" M 1236.522 625 L 1246.522 625 L 1246.522 635 L 1236.522 635 L 1236.522 625 Z " fill="rgb(235,235,235)"/><path d=" M 1558.261 625 L 1568.261 625 L 1568.261 635 L 1558.261 635 L 1558.261 625 Z " fill="rgb(235,235,235)"/><path d=" M 1880 625 L 1890 625 L 1890 635 L 1880 635 L 1880 625 Z " fill="rgb(235,235,235)"/></g><g id="Group"><path d=" M 70.109 548.125 L 80.109 548.125 L 80.109 558.125 L 70.109 558.125 L 70.109 548.125 Z " fill="rgb(235,235,235)"/><path d=" M 391.887 548.125 L 401.887 548.125 L 401.887 558.125 L 391.887 558.125 L 391.887 548.125 Z " fill="rgb(235,235,235)"/><path d=" M 713.666 548.125 L 723.666 548.125 L 723.666 558.125 L 713.666 558.125 L 713.666 548.125 Z " fill="rgb(235,235,235)"/><path d=" M 1035.445 548.125 L 1045.445 548.125 L 1045.445 558.125 L 1035.445 558.125 L 1035.445 548.125 Z " fill="rgb(235,235,235)"/><path d=" M 1357.223 548.125 L 1367.223 548.125 L 1367.223 558.125 L 1357.223 558.125 L 1357.223 548.125 Z " fill="rgb(235,235,235)"/><path d=" M 1679.002 548.125 L 1689.002 548.125 L 1689.002 558.125 L 1679.002 558.125 L 1679.002 548.125 Z " fill="rgb(235,235,235)"/><path d=" M 230.998 548.125 L 240.998 548.125 L 240.998 558.125 L 230.998 558.125 L 230.998 548.125 Z " fill="rgb(235,235,235)"/><path d=" M 552.777 548.125 L 562.777 548.125 L 562.777 558.125 L 552.777 558.125 L 552.777 548.125 Z " fill="rgb(235,235,235)"/><path d=" M 874.555 548.125 L 884.555 548.125 L 884.555 558.125 L 874.555 558.125 L 874.555 548.125 Z " fill="rgb(235,235,235)"/><path d=" M 1196.334 548.125 L 1206.334 548.125 L 1206.334 558.125 L 1196.334 558.125 L 1196.334 548.125 Z " fill="rgb(235,235,235)"/><path d=" M 1518.113 548.125 L 1528.113 548.125 L 1528.113 558.125 L 1518.113 558.125 L 1518.113 548.125 Z " fill="rgb(235,235,235)"/><path d=" M 150.553 548.125 L 160.553 548.125 L 160.553 558.125 L 150.553 558.125 L 150.553 548.125 Z " fill="rgb(235,235,235)"/><path d=" M 472.332 548.125 L 482.332 548.125 L 482.332 558.125 L 472.332 558.125 L 472.332 548.125 Z " fill="rgb(235,235,235)"/><path d=" M 794.111 548.125 L 804.111 548.125 L 804.111 558.125 L 794.111 558.125 L 794.111 548.125 Z " fill="rgb(235,235,235)"/><path d=" M 1115.889 548.125 L 1125.889 548.125 L 1125.889 558.125 L 1115.889 558.125 L 1115.889 548.125 Z " fill="rgb(235,235,235)"/><path d=" M 1437.668 548.125 L 1447.668 548.125 L 1447.668 558.125 L 1437.668 558.125 L 1437.668 548.125 Z " fill="rgb(235,235,235)"/><path d=" M 1759.447 548.125 L 1769.447 548.125 L 1769.447 558.125 L 1759.447 558.125 L 1759.447 548.125 Z " fill="rgb(235,235,235)"/><path d=" M 311.443 548.125 L 321.443 548.125 L 321.443 558.125 L 311.443 558.125 L 311.443 548.125 Z " fill="rgb(235,235,235)"/><path d=" M 633.221 548.125 L 643.221 548.125 L 643.221 558.125 L 633.221 558.125 L 633.221 548.125 Z " fill="rgb(235,235,235)"/><path d=" M 955 548.125 L 965 548.125 L 965 558.125 L 955 558.125 L 955 548.125 Z " fill="rgb(235,235,235)"/><path d=" M 1276.779 548.125 L 1286.779 548.125 L 1286.779 558.125 L 1276.779 558.125 L 1276.779 548.125 Z " fill="rgb(235,235,235)"/><path d=" M 1598.557 548.125 L 1608.557 548.125 L 1608.557 558.125 L 1598.557 558.125 L 1598.557 548.125 Z " fill="rgb(235,235,235)"/><path d=" M 1839.891 548.125 L 1849.891 548.125 L 1849.891 558.125 L 1839.891 558.125 L 1839.891 548.125 Z " fill="rgb(235,235,235)"/></g><g id="Group"><path d=" M 30 471.25 L 40 471.25 L 40 481.25 L 30 481.25 L 30 471.25 Z " fill="rgb(235,235,235)"/><path d=" M 351.739 471.25 L 361.739 471.25 L 361.739 481.25 L 351.739 481.25 L 351.739 471.25 Z " fill="rgb(235,235,235)"/><path d=" M 673.478 471.25 L 683.478 471.25 L 683.478 481.25 L 673.478 481.25 L 673.478 471.25 Z " fill="rgb(235,235,235)"/><path d=" M 995.217 471.25 L 1005.217 471.25 L 1005.217 481.25 L 995.217 481.25 L 995.217 471.25 Z " fill="rgb(235,235,235)"/><path d=" M 1316.957 471.25 L 1326.957 471.25 L 1326.957 481.25 L 1316.957 481.25 L 1316.957 471.25 Z " fill="rgb(235,235,235)"/><path d=" M 1638.696 471.25 L 1648.696 471.25 L 1648.696 481.25 L 1638.696 481.25 L 1638.696 471.25 Z " fill="rgb(235,235,235)"/><path d=" M 190.87 471.25 L 200.87 471.25 L 200.87 481.25 L 190.87 481.25 L 190.87 471.25 Z " fill="rgb(235,235,235)"/><path d=" M 512.609 471.25 L 522.609 471.25 L 522.609 481.25 L 512.609 481.25 L 512.609 471.25 Z " fill="rgb(235,235,235)"/><path d=" M 834.348 471.25 L 844.348 471.25 L 844.348 481.25 L 834.348 481.25 L 834.348 471.25 Z " fill="rgb(235,235,235)"/><path d=" M 1156.087 471.25 L 1166.087 471.25 L 1166.087 481.25 L 1156.087 481.25 L 1156.087 471.25 Z " fill="rgb(235,235,235)"/><path d=" M 1477.826 471.25 L 1487.826 471.25 L 1487.826 481.25 L 1477.826 481.25 L 1477.826 471.25 Z " fill="rgb(235,235,235)"/><path d=" M 1799.565 471.25 L 1809.565 471.25 L 1809.565 481.25 L 1799.565 481.25 L 1799.565 471.25 Z " fill="rgb(235,235,235)"/><path d=" M 110.435 471.25 L 120.435 471.25 L 120.435 481.25 L 110.435 481.25 L 110.435 471.25 Z " fill="rgb(235,235,235)"/><path d=" M 432.174 471.25 L 442.174 471.25 L 442.174 481.25 L 432.174 481.25 L 432.174 471.25 Z " fill="rgb(235,235,235)"/><path d=" M 753.913 471.25 L 763.913 471.25 L 763.913 481.25 L 753.913 481.25 L 753.913 471.25 Z " fill="rgb(235,235,235)"/><path d=" M 1075.652 471.25 L 1085.652 471.25 L 1085.652 481.25 L 1075.652 481.25 L 1075.652 471.25 Z " fill="rgb(235,235,235)"/><path d=" M 1397.391 471.25 L 1407.391 471.25 L 1407.391 481.25 L 1397.391 481.25 L 1397.391 471.25 Z " fill="rgb(235,235,235)"/><path d=" M 1719.13 471.25 L 1729.13 471.25 L 1729.13 481.25 L 1719.13 481.25 L 1719.13 471.25 Z " fill="rgb(235,235,235)"/><path d=" M 271.304 471.25 L 281.304 471.25 L 281.304 481.25 L 271.304 481.25 L 271.304 471.25 Z " fill="rgb(235,235,235)"/><path d=" M 593.043 471.25 L 603.043 471.25 L 603.043 481.25 L 593.043 481.25 L 593.043 471.25 Z " fill="rgb(235,235,235)"/><path d=" M 914.783 471.25 L 924.783 471.25 L 924.783 481.25 L 914.783 481.25 L 914.783 471.25 Z " fill="rgb(235,235,235)"/><path d=" M 1236.522 471.25 L 1246.522 471.25 L 1246.522 481.25 L 1236.522 481.25 L 1236.522 471.25 Z " fill="rgb(235,235,235)"/><path d=" M 1558.261 471.25 L 1568.261 471.25 L 1568.261 481.25 L 1558.261 481.25 L 1558.261 471.25 Z " fill="rgb(235,235,235)"/><path d=" M 1880 471.25 L 1890 471.25 L 1890 481.25 L 1880 481.25 L 1880 471.25 Z " fill="rgb(235,235,235)"/></g><g id="Group"><path d=" M 70.109 394.375 L 80.109 394.375 L 80.109 404.375 L 70.109 404.375 L 70.109 394.375 Z " fill="rgb(235,235,235)"/><path d=" M 391.887 394.375 L 401.887 394.375 L 401.887 404.375 L 391.887 404.375 L 391.887 394.375 Z " fill="rgb(235,235,235)"/><path d=" M 713.666 394.375 L 723.666 394.375 L 723.666 404.375 L 713.666 404.375 L 713.666 394.375 Z " fill="rgb(235,235,235)"/><path d=" M 1035.445 394.375 L 1045.445 394.375 L 1045.445 404.375 L 1035.445 404.375 L 1035.445 394.375 Z " fill="rgb(235,235,235)"/><path d=" M 1357.223 394.375 L 1367.223 394.375 L 1367.223 404.375 L 1357.223 404.375 L 1357.223 394.375 Z " fill="rgb(235,235,235)"/><path d=" M 1679.002 394.375 L 1689.002 394.375 L 1689.002 404.375 L 1679.002 404.375 L 1679.002 394.375 Z " fill="rgb(235,235,235)"/><path d=" M 230.998 394.375 L 240.998 394.375 L 240.998 404.375 L 230.998 404.375 L 230.998 394.375 Z " fill="rgb(235,235,235)"/><path d=" M 552.777 394.375 L 562.777 394.375 L 562.777 404.375 L 552.777 404.375 L 552.777 394.375 Z " fill="rgb(235,235,235)"/><path d=" M 874.555 394.375 L 884.555 394.375 L 884.555 404.375 L 874.555 404.375 L 874.555 394.375 Z " fill="rgb(235,235,235)"/><path d=" M 1196.334 394.375 L 1206.334 394.375 L 1206.334 404.375 L 1196.334 404.375 L 1196.334 394.375 Z " fill="rgb(235,235,235)"/><path d=" M 1518.113 394.375 L 1528.113 394.375 L 1528.113 404.375 L 1518.113 404.375 L 1518.113 394.375 Z " fill="rgb(235,235,235)"/><path d=" M 150.553 394.375 L 160.553 394.375 L 160.553 404.375 L 150.553 404.375 L 150.553 394.375 Z " fill="rgb(235,235,235)"/><path d=" M 472.332 394.375 L 482.332 394.375 L 482.332 404.375 L 472.332 404.375 L 472.332 394.375 Z " fill="rgb(235,235,235)"/><path d=" M 794.111 394.375 L 804.111 394.375 L 804.111 404.375 L 794.111 404.375 L 794.111 394.375 Z " fill="rgb(235,235,235)"/><path d=" M 1115.889 394.375 L 1125.889 394.375 L 1125.889 404.375 L 1115.889 404.375 L 1115.889 394.375 Z " fill="rgb(235,235,235)"/><path d=" M 1437.668 394.375 L 1447.668 394.375 L 1447.668 404.375 L 1437.668 404.375 L 1437.668 394.375 Z " fill="rgb(235,235,235)"/><path d=" M 1759.447 394.375 L 1769.447 394.375 L 1769.447 404.375 L 1759.447 404.375 L 1759.447 394.375 Z " fill="rgb(235,235,235)"/><path d=" M 311.443 394.375 L 321.443 394.375 L 321.443 404.375 L 311.443 404.375 L 311.443 394.375 Z " fill="rgb(235,235,235)"/><path d=" M 633.221 394.375 L 643.221 394.375 L 643.221 404.375 L 633.221 404.375 L 633.221 394.375 Z " fill="rgb(235,235,235)"/><path d=" M 955 394.375 L 965 394.375 L 965 404.375 L 955 404.375 L 955 394.375 Z " fill="rgb(235,235,235)"/><path d=" M 1276.779 394.375 L 1286.779 394.375 L 1286.779 404.375 L 1276.779 404.375 L 1276.779 394.375 Z " fill="rgb(235,235,235)"/><path d=" M 1598.557 394.375 L 1608.557 394.375 L 1608.557 404.375 L 1598.557 404.375 L 1598.557 394.375 Z " fill="rgb(235,235,235)"/><path d=" M 1839.891 394.375 L 1849.891 394.375 L 1849.891 404.375 L 1839.891 404.375 L 1839.891 394.375 Z " fill="rgb(235,235,235)"/></g><g id="Group"><path d=" M 30 317.5 L 40 317.5 L 40 327.5 L 30 327.5 L 30 317.5 Z " fill="rgb(235,235,235)"/><path d=" M 351.739 317.5 L 361.739 317.5 L 361.739 327.5 L 351.739 327.5 L 351.739 317.5 Z " fill="rgb(235,235,235)"/><path d=" M 673.478 317.5 L 683.478 317.5 L 683.478 327.5 L 673.478 327.5 L 673.478 317.5 Z " fill="rgb(235,235,235)"/><path d=" M 995.217 317.5 L 1005.217 317.5 L 1005.217 327.5 L 995.217 327.5 L 995.217 317.5 Z " fill="rgb(235,235,235)"/><path d=" M 1316.957 317.5 L 1326.957 317.5 L 1326.957 327.5 L 1316.957 327.5 L 1316.957 317.5 Z " fill="rgb(235,235,235)"/><path d=" M 1638.696 317.5 L 1648.696 317.5 L 1648.696 327.5 L 1638.696 327.5 L 1638.696 317.5 Z " fill="rgb(235,235,235)"/><path d=" M 190.87 317.5 L 200.87 317.5 L 200.87 327.5 L 190.87 327.5 L 190.87 317.5 Z " fill="rgb(235,235,235)"/><path d=" M 512.609 317.5 L 522.609 317.5 L 522.609 327.5 L 512.609 327.5 L 512.609 317.5 Z " fill="rgb(235,235,235)"/><path d=" M 834.348 317.5 L 844.348 317.5 L 844.348 327.5 L 834.348 327.5 L 834.348 317.5 Z " fill="rgb(235,235,235)"/><path d=" M 1156.087 317.5 L 1166.087 317.5 L 1166.087 327.5 L 1156.087 327.5 L 1156.087 317.5 Z " fill="rgb(235,235,235)"/><path d=" M 1477.826 317.5 L 1487.826 317.5 L 1487.826 327.5 L 1477.826 327.5 L 1477.826 317.5 Z " fill="rgb(235,235,235)"/><path d=" M 1799.565 317.5 L 1809.565 317.5 L 1809.565 327.5 L 1799.565 327.5 L 1799.565 317.5 Z " fill="rgb(235,235,235)"/><path d=" M 110.435 317.5 L 120.435 317.5 L 120.435 327.5 L 110.435 327.5 L 110.435 317.5 Z " fill="rgb(235,235,235)"/><path d=" M 432.174 317.5 L 442.174 317.5 L 442.174 327.5 L 432.174 327.5 L 432.174 317.5 Z " fill="rgb(235,235,235)"/><path d=" M 753.913 317.5 L 763.913 317.5 L 763.913 327.5 L 753.913 327.5 L 753.913 317.5 Z " fill="rgb(235,235,235)"/><path d=" M 1075.652 317.5 L 1085.652 317.5 L 1085.652 327.5 L 1075.652 327.5 L 1075.652 317.5 Z " fill="rgb(235,235,235)"/><path d=" M 1397.391 317.5 L 1407.391 317.5 L 1407.391 327.5 L 1397.391 327.5 L 1397.391 317.5 Z " fill="rgb(235,235,235)"/><path d=" M 1719.13 317.5 L 1729.13 317.5 L 1729.13 327.5 L 1719.13 327.5 L 1719.13 317.5 Z " fill="rgb(235,235,235)"/><path d=" M 271.304 317.5 L 281.304 317.5 L 281.304 327.5 L 271.304 327.5 L 271.304 317.5 Z " fill="rgb(235,235,235)"/><path d=" M 593.043 317.5 L 603.043 317.5 L 603.043 327.5 L 593.043 327.5 L 593.043 317.5 Z " fill="rgb(235,235,235)"/><path d=" M 914.783 317.5 L 924.783 317.5 L 924.783 327.5 L 914.783 327.5 L 914.783 317.5 Z " fill="rgb(235,235,235)"/><path d=" M 1236.522 317.5 L 1246.522 317.5 L 1246.522 327.5 L 1236.522 327.5 L 1236.522 317.5 Z " fill="rgb(235,235,235)"/><path d=" M 1558.261 317.5 L 1568.261 317.5 L 1568.261 327.5 L 1558.261 327.5 L 1558.261 317.5 Z " fill="rgb(235,235,235)"/><path d=" M 1880 317.5 L 1890 317.5 L 1890 327.5 L 1880 327.5 L 1880 317.5 Z " fill="rgb(235,235,235)"/></g><g id="Group"><path d=" M 70.109 240.625 L 80.109 240.625 L 80.109 250.625 L 70.109 250.625 L 70.109 240.625 Z " fill="rgb(235,235,235)"/><path d=" M 391.887 240.625 L 401.887 240.625 L 401.887 250.625 L 391.887 250.625 L 391.887 240.625 Z " fill="rgb(235,235,235)"/><path d=" M 713.666 240.625 L 723.666 240.625 L 723.666 250.625 L 713.666 250.625 L 713.666 240.625 Z " fill="rgb(235,235,235)"/><path d=" M 1035.445 240.625 L 1045.445 240.625 L 1045.445 250.625 L 1035.445 250.625 L 1035.445 240.625 Z " fill="rgb(235,235,235)"/><path d=" M 1357.223 240.625 L 1367.223 240.625 L 1367.223 250.625 L 1357.223 250.625 L 1357.223 240.625 Z " fill="rgb(235,235,235)"/><path d=" M 1679.002 240.625 L 1689.002 240.625 L 1689.002 250.625 L 1679.002 250.625 L 1679.002 240.625 Z " fill="rgb(235,235,235)"/><path d=" M 230.998 240.625 L 240.998 240.625 L 240.998 250.625 L 230.998 250.625 L 230.998 240.625 Z " fill="rgb(235,235,235)"/><path d=" M 552.777 240.625 L 562.777 240.625 L 562.777 250.625 L 552.777 250.625 L 552.777 240.625 Z " fill="rgb(235,235,235)"/><path d=" M 874.555 240.625 L 884.555 240.625 L 884.555 250.625 L 874.555 250.625 L 874.555 240.625 Z " fill="rgb(235,235,235)"/><path d=" M 1196.334 240.625 L 1206.334 240.625 L 1206.334 250.625 L 1196.334 250.625 L 1196.334 240.625 Z " fill="rgb(235,235,235)"/><path d=" M 1518.113 240.625 L 1528.113 240.625 L 1528.113 250.625 L 1518.113 250.625 L 1518.113 240.625 Z " fill="rgb(235,235,235)"/><path d=" M 150.553 240.625 L 160.553 240.625 L 160.553 250.625 L 150.553 250.625 L 150.553 240.625 Z " fill="rgb(235,235,235)"/><path d=" M 472.332 240.625 L 482.332 240.625 L 482.332 250.625 L 472.332 250.625 L 472.332 240.625 Z " fill="rgb(235,235,235)"/><path d=" M 794.111 240.625 L 804.111 240.625 L 804.111 250.625 L 794.111 250.625 L 794.111 240.625 Z " fill="rgb(235,235,235)"/><path d=" M 1115.889 240.625 L 1125.889 240.625 L 1125.889 250.625 L 1115.889 250.625 L 1115.889 240.625 Z " fill="rgb(235,235,235)"/><path d=" M 1437.668 240.625 L 1447.668 240.625 L 1447.668 250.625 L 1437.668 250.625 L 1437.668 240.625 Z " fill="rgb(235,235,235)"/><path d=" M 1759.447 240.625 L 1769.447 240.625 L 1769.447 250.625 L 1759.447 250.625 L 1759.447 240.625 Z " fill="rgb(235,235,235)"/><path d=" M 311.443 240.625 L 321.443 240.625 L 321.443 250.625 L 311.443 250.625 L 311.443 240.625 Z " fill="rgb(235,235,235)"/><path d=" M 633.221 240.625 L 643.221 240.625 L 643.221 250.625 L 633.221 250.625 L 633.221 240.625 Z " fill="rgb(235,235,235)"/><path d=" M 955 240.625 L 965 240.625 L 965 250.625 L 955 250.625 L 955 240.625 Z " fill="rgb(235,235,235)"/><path d=" M 1276.779 240.625 L 1286.779 240.625 L 1286.779 250.625 L 1276.779 250.625 L 1276.779 240.625 Z " fill="rgb(235,235,235)"/><path d=" M 1598.557 240.625 L 1608.557 240.625 L 1608.557 250.625 L 1598.557 250.625 L 1598.557 240.625 Z " fill="rgb(235,235,235)"/><path d=" M 1839.891 240.625 L 1849.891 240.625 L 1849.891 250.625 L 1839.891 250.625 L 1839.891 240.625 Z " fill="rgb(235,235,235)"/></g><g id="Group"><path d=" M 30 163.75 L 40 163.75 L 40 173.75 L 30 173.75 L 30 163.75 Z " fill="rgb(235,235,235)"/><path d=" M 351.739 163.75 L 361.739 163.75 L 361.739 173.75 L 351.739 173.75 L 351.739 163.75 Z " fill="rgb(235,235,235)"/><path d=" M 673.478 163.75 L 683.478 163.75 L 683.478 173.75 L 673.478 173.75 L 673.478 163.75 Z " fill="rgb(235,235,235)"/><path d=" M 995.217 163.75 L 1005.217 163.75 L 1005.217 173.75 L 995.217 173.75 L 995.217 163.75 Z " fill="rgb(235,235,235)"/><path d=" M 1316.957 163.75 L 1326.957 163.75 L 1326.957 173.75 L 1316.957 173.75 L 1316.957 163.75 Z " fill="rgb(235,235,235)"/><path d=" M 1638.696 163.75 L 1648.696 163.75 L 1648.696 173.75 L 1638.696 173.75 L 1638.696 163.75 Z " fill="rgb(235,235,235)"/><path d=" M 190.87 163.75 L 200.87 163.75 L 200.87 173.75 L 190.87 173.75 L 190.87 163.75 Z " fill="rgb(235,235,235)"/><path d=" M 512.609 163.75 L 522.609 163.75 L 522.609 173.75 L 512.609 173.75 L 512.609 163.75 Z " fill="rgb(235,235,235)"/><path d=" M 834.348 163.75 L 844.348 163.75 L 844.348 173.75 L 834.348 173.75 L 834.348 163.75 Z " fill="rgb(235,235,235)"/><path d=" M 1156.087 163.75 L 1166.087 163.75 L 1166.087 173.75 L 1156.087 173.75 L 1156.087 163.75 Z " fill="rgb(235,235,235)"/><path d=" M 1477.826 163.75 L 1487.826 163.75 L 1487.826 173.75 L 1477.826 173.75 L 1477.826 163.75 Z " fill="rgb(235,235,235)"/><path d=" M 1799.565 163.75 L 1809.565 163.75 L 1809.565 173.75 L 1799.565 173.75 L 1799.565 163.75 Z " fill="rgb(235,235,235)"/><path d=" M 110.435 163.75 L 120.435 163.75 L 120.435 173.75 L 110.435 173.75 L 110.435 163.75 Z " fill="rgb(235,235,235)"/><path d=" M 432.174 163.75 L 442.174 163.75 L 442.174 173.75 L 432.174 173.75 L 432.174 163.75 Z " fill="rgb(235,235,235)"/><path d=" M 753.913 163.75 L 763.913 163.75 L 763.913 173.75 L 753.913 173.75 L 753.913 163.75 Z " fill="rgb(235,235,235)"/><path d=" M 1075.652 163.75 L 1085.652 163.75 L 1085.652 173.75 L 1075.652 173.75 L 1075.652 163.75 Z " fill="rgb(235,235,235)"/><path d=" M 1397.391 163.75 L 1407.391 163.75 L 1407.391 173.75 L 1397.391 173.75 L 1397.391 163.75 Z " fill="rgb(235,235,235)"/><path d=" M 1719.13 163.75 L 1729.13 163.75 L 1729.13 173.75 L 1719.13 173.75 L 1719.13 163.75 Z " fill="rgb(235,235,235)"/><path d=" M 271.304 163.75 L 281.304 163.75 L 281.304 173.75 L 271.304 173.75 L 271.304 163.75 Z " fill="rgb(235,235,235)"/><path d=" M 593.043 163.75 L 603.043 163.75 L 603.043 173.75 L 593.043 173.75 L 593.043 163.75 Z " fill="rgb(235,235,235)"/><path d=" M 914.783 163.75 L 924.783 163.75 L 924.783 173.75 L 914.783 173.75 L 914.783 163.75 Z " fill="rgb(235,235,235)"/><path d=" M 1236.522 163.75 L 1246.522 163.75 L 1246.522 173.75 L 1236.522 173.75 L 1236.522 163.75 Z " fill="rgb(235,235,235)"/><path d=" M 1558.261 163.75 L 1568.261 163.75 L 1568.261 173.75 L 1558.261 173.75 L 1558.261 163.75 Z " fill="rgb(235,235,235)"/><path d=" M 1880 163.75 L 1890 163.75 L 1890 173.75 L 1880 173.75 L 1880 163.75 Z " fill="rgb(235,235,235)"/></g><g id="Group"><path d=" M 70.109 86.875 L 80.109 86.875 L 80.109 96.875 L 70.109 96.875 L 70.109 86.875 Z " fill="rgb(235,235,235)"/><path d=" M 391.887 86.875 L 401.887 86.875 L 401.887 96.875 L 391.887 96.875 L 391.887 86.875 Z " fill="rgb(235,235,235)"/><path d=" M 713.666 86.875 L 723.666 86.875 L 723.666 96.875 L 713.666 96.875 L 713.666 86.875 Z " fill="rgb(235,235,235)"/><path d=" M 1035.445 86.875 L 1045.445 86.875 L 1045.445 96.875 L 1035.445 96.875 L 1035.445 86.875 Z " fill="rgb(235,235,235)"/><path d=" M 1357.223 86.875 L 1367.223 86.875 L 1367.223 96.875 L 1357.223 96.875 L 1357.223 86.875 Z " fill="rgb(235,235,235)"/><path d=" M 1679.002 86.875 L 1689.002 86.875 L 1689.002 96.875 L 1679.002 96.875 L 1679.002 86.875 Z " fill="rgb(235,235,235)"/><path d=" M 230.998 86.875 L 240.998 86.875 L 240.998 96.875 L 230.998 96.875 L 230.998 86.875 Z " fill="rgb(235,235,235)"/><path d=" M 552.777 86.875 L 562.777 86.875 L 562.777 96.875 L 552.777 96.875 L 552.777 86.875 Z " fill="rgb(235,235,235)"/><path d=" M 874.555 86.875 L 884.555 86.875 L 884.555 96.875 L 874.555 96.875 L 874.555 86.875 Z " fill="rgb(235,235,235)"/><path d=" M 1196.334 86.875 L 1206.334 86.875 L 1206.334 96.875 L 1196.334 96.875 L 1196.334 86.875 Z " fill="rgb(235,235,235)"/><path d=" M 1518.113 86.875 L 1528.113 86.875 L 1528.113 96.875 L 1518.113 96.875 L 1518.113 86.875 Z " fill="rgb(235,235,235)"/><path d=" M 150.553 86.875 L 160.553 86.875 L 160.553 96.875 L 150.553 96.875 L 150.553 86.875 Z " fill="rgb(235,235,235)"/><path d=" M 472.332 86.875 L 482.332 86.875 L 482.332 96.875 L 472.332 96.875 L 472.332 86.875 Z " fill="rgb(235,235,235)"/><path d=" M 794.111 86.875 L 804.111 86.875 L 804.111 96.875 L 794.111 96.875 L 794.111 86.875 Z " fill="rgb(235,235,235)"/><path d=" M 1115.889 86.875 L 1125.889 86.875 L 1125.889 96.875 L 1115.889 96.875 L 1115.889 86.875 Z " fill="rgb(235,235,235)"/><path d=" M 1437.668 86.875 L 1447.668 86.875 L 1447.668 96.875 L 1437.668 96.875 L 1437.668 86.875 Z " fill="rgb(235,235,235)"/><path d=" M 1759.447 86.875 L 1769.447 86.875 L 1769.447 96.875 L 1759.447 96.875 L 1759.447 86.875 Z " fill="rgb(235,235,235)"/><path d=" M 311.443 86.875 L 321.443 86.875 L 321.443 96.875 L 311.443 96.875 L 311.443 86.875 Z " fill="rgb(235,235,235)"/><path d=" M 633.221 86.875 L 643.221 86.875 L 643.221 96.875 L 633.221 96.875 L 633.221 86.875 Z " fill="rgb(235,235,235)"/><path d=" M 955 86.875 L 965 86.875 L 965 96.875 L 955 96.875 L 955 86.875 Z " fill="rgb(235,235,235)"/><path d=" M 1276.779 86.875 L 1286.779 86.875 L 1286.779 96.875 L 1276.779 96.875 L 1276.779 86.875 Z " fill="rgb(235,235,235)"/><path d=" M 1598.557 86.875 L 1608.557 86.875 L 1608.557 96.875 L 1598.557 96.875 L 1598.557 86.875 Z " fill="rgb(235,235,235)"/><path d=" M 1839.891 86.875 L 1849.891 86.875 L 1849.891 96.875 L 1839.891 96.875 L 1839.891 86.875 Z " fill="rgb(235,235,235)"/></g><g id="Group"><path d=" M 30 10 L 40 10 L 40 20 L 30 20 L 30 10 Z " fill="rgb(235,235,235)"/><path d=" M 351.739 10 L 361.739 10 L 361.739 20 L 351.739 20 L 351.739 10 Z " fill="rgb(235,235,235)"/><path d=" M 673.478 10 L 683.478 10 L 683.478 20 L 673.478 20 L 673.478 10 Z " fill="rgb(235,235,235)"/><path d=" M 995.217 10 L 1005.217 10 L 1005.217 20 L 995.217 20 L 995.217 10 Z " fill="rgb(235,235,235)"/><path d=" M 1316.957 10 L 1326.957 10 L 1326.957 20 L 1316.957 20 L 1316.957 10 Z " fill="rgb(235,235,235)"/><path d=" M 1638.696 10 L 1648.696 10 L 1648.696 20 L 1638.696 20 L 1638.696 10 Z " fill="rgb(235,235,235)"/><path d=" M 190.87 10 L 200.87 10 L 200.87 20 L 190.87 20 L 190.87 10 Z " fill="rgb(235,235,235)"/><path d=" M 512.609 10 L 522.609 10 L 522.609 20 L 512.609 20 L 512.609 10 Z " fill="rgb(235,235,235)"/><path d=" M 834.348 10 L 844.348 10 L 844.348 20 L 834.348 20 L 834.348 10 Z " fill="rgb(235,235,235)"/><path d=" M 1156.087 10 L 1166.087 10 L 1166.087 20 L 1156.087 20 L 1156.087 10 Z " fill="rgb(235,235,235)"/><path d=" M 1477.826 10 L 1487.826 10 L 1487.826 20 L 1477.826 20 L 1477.826 10 Z " fill="rgb(235,235,235)"/><path d=" M 1799.565 10 L 1809.565 10 L 1809.565 20 L 1799.565 20 L 1799.565 10 Z " fill="rgb(235,235,235)"/><path d=" M 110.435 10 L 120.435 10 L 120.435 20 L 110.435 20 L 110.435 10 Z " fill="rgb(235,235,235)"/><path d=" M 432.174 10 L 442.174 10 L 442.174 20 L 432.174 20 L 432.174 10 Z " fill="rgb(235,235,235)"/><path d=" M 753.913 10 L 763.913 10 L 763.913 20 L 753.913 20 L 753.913 10 Z " fill="rgb(235,235,235)"/><path d=" M 1075.652 10 L 1085.652 10 L 1085.652 20 L 1075.652 20 L 1075.652 10 Z " fill="rgb(235,235,235)"/><path d=" M 1397.391 10 L 1407.391 10 L 1407.391 20 L 1397.391 20 L 1397.391 10 Z " fill="rgb(235,235,235)"/><path d=" M 1719.13 10 L 1729.13 10 L 1729.13 20 L 1719.13 20 L 1719.13 10 Z " fill="rgb(235,235,235)"/><path d=" M 271.304 10 L 281.304 10 L 281.304 20 L 271.304 20 L 271.304 10 Z " fill="rgb(235,235,235)"/><path d=" M 593.043 10 L 603.043 10 L 603.043 20 L 593.043 20 L 593.043 10 Z " fill="rgb(235,235,235)"/><path d=" M 914.783 10 L 924.783 10 L 924.783 20 L 914.783 20 L 914.783 10 Z " fill="rgb(235,235,235)"/><path d=" M 1236.522 10 L 1246.522 10 L 1246.522 20 L 1236.522 20 L 1236.522 10 Z " fill="rgb(235,235,235)"/><path d=" M 1558.261 10 L 1568.261 10 L 1568.261 20 L 1558.261 20 L 1558.261 10 Z " fill="rgb(235,235,235)"/><path d=" M 1880 10 L 1890 10 L 1890 20 L 1880 20 L 1880 10 Z " fill="rgb(235,235,235)"/></g></g></g></svg>