<?xml version="1.0" standalone="no"?><!-- Generator: Gravit.io --><svg xmlns="http://www.w3.org/2000/svg" xmlns:xlink="http://www.w3.org/1999/xlink" style="isolation:isolate" viewBox="0 0 1024 1366" width="1024" height="1366"><defs><clipPath id="_clipPath_Xu5QsPhWwdQWrUa2zWSWTK7fhJCL10JO"><rect width="1024" height="1366"/></clipPath></defs><g clip-path="url(#_clipPath_Xu5QsPhWwdQWrUa2zWSWTK7fhJCL10JO)"><g id="Group"><g id="Group"><path d=" M 471.8 75.002 L 487.88 75.002 L 487.88 90.962 L 471.8 90.962 L 471.8 75.002 Z " fill="rgb(74,222,128)"/><path d=" M 729.08 75.002 L 745.16 75.002 L 745.16 90.962 L 729.08 90.962 L 729.08 75.002 Z " fill="rgb(74,222,128)"/><path d=" M 214.52 75.002 L 230.6 75.002 L 230.6 90.962 L 214.52 90.962 L 214.52 75.002 Z " fill="rgb(74,222,128)"/><path d=" M 600.44 75.002 L 616.52 75.002 L 616.52 90.962 L 600.44 90.962 L 600.44 75.002 Z " fill="rgb(74,222,128)"/><path d=" M 85.88 75.002 L 101.96 75.002 L 101.96 90.962 L 85.88 90.962 L 85.88 75.002 Z " fill="rgb(74,222,128)"/><path d=" M 857.72 75.002 L 873.8 75.002 L 873.8 90.962 L 857.72 90.962 L 857.72 75.002 Z " fill="rgb(74,222,128)"/><path d=" M 343.16 75.002 L 359.24 75.002 L 359.24 90.962 L 343.16 90.962 L 343.16 75.002 Z " fill="rgb(74,222,128)"/><path d=" M 536.12 75.002 L 552.2 75.002 L 552.2 90.962 L 536.12 90.962 L 536.12 75.002 Z " fill="rgb(74,222,128)"/><path d=" M 793.4 75.002 L 809.48 75.002 L 809.48 90.962 L 793.4 90.962 L 793.4 75.002 Z " fill="rgb(74,222,128)"/><path d=" M 278.84 75.002 L 294.92 75.002 L 294.92 90.962 L 278.84 90.962 L 278.84 75.002 Z " fill="rgb(74,222,128)"/><path d=" M 664.76 75.002 L 680.84 75.002 L 680.84 90.962 L 664.76 90.962 L 664.76 75.002 Z " fill="rgb(74,222,128)"/><path d=" M 150.2 75.002 L 166.28 75.002 L 166.28 90.962 L 150.2 90.962 L 150.2 75.002 Z " fill="rgb(74,222,128)"/><path d=" M 922.04 75.002 L 938.12 75.002 L 938.12 90.962 L 922.04 90.962 L 922.04 75.002 Z " fill="rgb(74,222,128)"/><path d=" M 407.48 75.002 L 423.56 75.002 L 423.56 90.962 L 407.48 90.962 L 407.48 75.002 Z " fill="rgb(74,222,128)"/></g><g id="Group"><path d=" M 471.8 300.009 L 487.88 300.009 L 487.88 315.969 L 471.8 315.969 L 471.8 300.009 Z " fill="rgb(74,222,128)"/><path d=" M 729.08 300.009 L 745.16 300.009 L 745.16 315.969 L 729.08 315.969 L 729.08 300.009 Z " fill="rgb(74,222,128)"/><path d=" M 214.52 300.009 L 230.6 300.009 L 230.6 315.969 L 214.52 315.969 L 214.52 300.009 Z " fill="rgb(74,222,128)"/><path d=" M 600.44 300.009 L 616.52 300.009 L 616.52 315.969 L 600.44 315.969 L 600.44 300.009 Z " fill="rgb(74,222,128)"/><path d=" M 85.88 300.009 L 101.96 300.009 L 101.96 315.969 L 85.88 315.969 L 85.88 300.009 Z " fill="rgb(74,222,128)"/><path d=" M 857.72 300.009 L 873.8 300.009 L 873.8 315.969 L 857.72 315.969 L 857.72 300.009 Z " fill="rgb(74,222,128)"/><path d=" M 343.16 300.009 L 359.24 300.009 L 359.24 315.969 L 343.16 315.969 L 343.16 300.009 Z " fill="rgb(74,222,128)"/><path d=" M 536.12 300.009 L 552.2 300.009 L 552.2 315.969 L 536.12 315.969 L 536.12 300.009 Z " fill="rgb(74,222,128)"/><path d=" M 793.4 300.009 L 809.48 300.009 L 809.48 315.969 L 793.4 315.969 L 793.4 300.009 Z " fill="rgb(74,222,128)"/><path d=" M 278.84 300.009 L 294.92 300.009 L 294.92 315.969 L 278.84 315.969 L 278.84 300.009 Z " fill="rgb(74,222,128)"/><path d=" M 664.76 300.009 L 680.84 300.009 L 680.84 315.969 L 664.76 315.969 L 664.76 300.009 Z " fill="rgb(74,222,128)"/><path d=" M 150.2 300.009 L 166.28 300.009 L 166.28 315.969 L 150.2 315.969 L 150.2 300.009 Z " fill="rgb(74,222,128)"/><path d=" M 922.04 300.009 L 938.12 300.009 L 938.12 315.969 L 922.04 315.969 L 922.04 300.009 Z " fill="rgb(74,222,128)"/><path d=" M 407.48 300.009 L 423.56 300.009 L 423.56 315.969 L 407.48 315.969 L 407.48 300.009 Z " fill="rgb(74,222,128)"/></g><g id="Group"><path d=" M 471.8 225.007 L 487.88 225.007 L 487.88 240.966 L 471.8 240.966 L 471.8 225.007 Z " fill="rgb(74,222,128)"/><path d=" M 729.08 225.007 L 745.16 225.007 L 745.16 240.966 L 729.08 240.966 L 729.08 225.007 Z " fill="rgb(74,222,128)"/><path d=" M 214.52 225.007 L 230.6 225.007 L 230.6 240.966 L 214.52 240.966 L 214.52 225.007 Z " fill="rgb(74,222,128)"/><path d=" M 600.44 225.007 L 616.52 225.007 L 616.52 240.966 L 600.44 240.966 L 600.44 225.007 Z " fill="rgb(74,222,128)"/><path d=" M 85.88 225.007 L 101.96 225.007 L 101.96 240.966 L 85.88 240.966 L 85.88 225.007 Z " fill="rgb(74,222,128)"/><path d=" M 857.72 225.007 L 873.8 225.007 L 873.8 240.966 L 857.72 240.966 L 857.72 225.007 Z " fill="rgb(74,222,128)"/><path d=" M 343.16 225.007 L 359.24 225.007 L 359.24 240.966 L 343.16 240.966 L 343.16 225.007 Z " fill="rgb(74,222,128)"/><path d=" M 536.12 225.007 L 552.2 225.007 L 552.2 240.966 L 536.12 240.966 L 536.12 225.007 Z " fill="rgb(74,222,128)"/><path d=" M 793.4 225.007 L 809.48 225.007 L 809.48 240.966 L 793.4 240.966 L 793.4 225.007 Z " fill="rgb(74,222,128)"/><path d=" M 278.84 225.007 L 294.92 225.007 L 294.92 240.966 L 278.84 240.966 L 278.84 225.007 Z " fill="rgb(74,222,128)"/><path d=" M 664.76 225.007 L 680.84 225.007 L 680.84 240.966 L 664.76 240.966 L 664.76 225.007 Z " fill="rgb(74,222,128)"/><path d=" M 150.2 225.007 L 166.28 225.007 L 166.28 240.966 L 150.2 240.966 L 150.2 225.007 Z " fill="rgb(74,222,128)"/><path d=" M 922.04 225.007 L 938.12 225.007 L 938.12 240.966 L 922.04 240.966 L 922.04 225.007 Z " fill="rgb(74,222,128)"/><path d=" M 407.48 225.007 L 423.56 225.007 L 423.56 240.966 L 407.48 240.966 L 407.48 225.007 Z " fill="rgb(74,222,128)"/></g><g id="Group"><path d=" M 471.8 750.022 L 487.88 750.022 L 487.88 765.982 L 471.8 765.982 L 471.8 750.022 Z " fill="rgb(74,222,128)"/><path d=" M 729.08 750.022 L 745.16 750.022 L 745.16 765.982 L 729.08 765.982 L 729.08 750.022 Z " fill="rgb(74,222,128)"/><path d=" M 214.52 750.022 L 230.6 750.022 L 230.6 765.982 L 214.52 765.982 L 214.52 750.022 Z " fill="rgb(74,222,128)"/><path d=" M 600.44 750.022 L 616.52 750.022 L 616.52 765.982 L 600.44 765.982 L 600.44 750.022 Z " fill="rgb(74,222,128)"/><path d=" M 85.88 750.022 L 101.96 750.022 L 101.96 765.982 L 85.88 765.982 L 85.88 750.022 Z " fill="rgb(74,222,128)"/><path d=" M 857.72 750.022 L 873.8 750.022 L 873.8 765.982 L 857.72 765.982 L 857.72 750.022 Z " fill="rgb(74,222,128)"/><path d=" M 343.16 750.022 L 359.24 750.022 L 359.24 765.982 L 343.16 765.982 L 343.16 750.022 Z " fill="rgb(74,222,128)"/><path d=" M 536.12 750.022 L 552.2 750.022 L 552.2 765.982 L 536.12 765.982 L 536.12 750.022 Z " fill="rgb(74,222,128)"/><path d=" M 793.4 750.022 L 809.48 750.022 L 809.48 765.982 L 793.4 765.982 L 793.4 750.022 Z " fill="rgb(74,222,128)"/><path d=" M 278.84 750.022 L 294.92 750.022 L 294.92 765.982 L 278.84 765.982 L 278.84 750.022 Z " fill="rgb(74,222,128)"/><path d=" M 664.76 750.022 L 680.84 750.022 L 680.84 765.982 L 664.76 765.982 L 664.76 750.022 Z " fill="rgb(74,222,128)"/><path d=" M 150.2 750.022 L 166.28 750.022 L 166.28 765.982 L 150.2 765.982 L 150.2 750.022 Z " fill="rgb(74,222,128)"/><path d=" M 922.04 750.022 L 938.12 750.022 L 938.12 765.982 L 922.04 765.982 L 922.04 750.022 Z " fill="rgb(74,222,128)"/><path d=" M 407.48 750.022 L 423.56 750.022 L 423.56 765.982 L 407.48 765.982 L 407.48 750.022 Z " fill="rgb(74,222,128)"/></g><g id="Group"><path d=" M 471.8 675.02 L 487.88 675.02 L 487.88 690.98 L 471.8 690.98 L 471.8 675.02 Z " fill="rgb(74,222,128)"/><path d=" M 729.08 675.02 L 745.16 675.02 L 745.16 690.98 L 729.08 690.98 L 729.08 675.02 Z " fill="rgb(74,222,128)"/><path d=" M 214.52 675.02 L 230.6 675.02 L 230.6 690.98 L 214.52 690.98 L 214.52 675.02 Z " fill="rgb(74,222,128)"/><path d=" M 600.44 675.02 L 616.52 675.02 L 616.52 690.98 L 600.44 690.98 L 600.44 675.02 Z " fill="rgb(74,222,128)"/><path d=" M 85.88 675.02 L 101.96 675.02 L 101.96 690.98 L 85.88 690.98 L 85.88 675.02 Z " fill="rgb(74,222,128)"/><path d=" M 857.72 675.02 L 873.8 675.02 L 873.8 690.98 L 857.72 690.98 L 857.72 675.02 Z " fill="rgb(74,222,128)"/><path d=" M 343.16 675.02 L 359.24 675.02 L 359.24 690.98 L 343.16 690.98 L 343.16 675.02 Z " fill="rgb(74,222,128)"/><path d=" M 536.12 675.02 L 552.2 675.02 L 552.2 690.98 L 536.12 690.98 L 536.12 675.02 Z " fill="rgb(74,222,128)"/><path d=" M 793.4 675.02 L 809.48 675.02 L 809.48 690.98 L 793.4 690.98 L 793.4 675.02 Z " fill="rgb(74,222,128)"/><path d=" M 278.84 675.02 L 294.92 675.02 L 294.92 690.98 L 278.84 690.98 L 278.84 675.02 Z " fill="rgb(74,222,128)"/><path d=" M 664.76 675.02 L 680.84 675.02 L 680.84 690.98 L 664.76 690.98 L 664.76 675.02 Z " fill="rgb(74,222,128)"/><path d=" M 150.2 675.02 L 166.28 675.02 L 166.28 690.98 L 150.2 690.98 L 150.2 675.02 Z " fill="rgb(74,222,128)"/><path d=" M 922.04 675.02 L 938.12 675.02 L 938.12 690.98 L 922.04 690.98 L 922.04 675.02 Z " fill="rgb(74,222,128)"/><path d=" M 407.48 675.02 L 423.56 675.02 L 423.56 690.98 L 407.48 690.98 L 407.48 675.02 Z " fill="rgb(74,222,128)"/></g><g id="Group"><path d=" M 471.8 450.013 L 487.88 450.013 L 487.88 465.973 L 471.8 465.973 L 471.8 450.013 Z " fill="rgb(74,222,128)"/><path d=" M 729.08 450.013 L 745.16 450.013 L 745.16 465.973 L 729.08 465.973 L 729.08 450.013 Z " fill="rgb(74,222,128)"/><path d=" M 214.52 450.013 L 230.6 450.013 L 230.6 465.973 L 214.52 465.973 L 214.52 450.013 Z " fill="rgb(74,222,128)"/><path d=" M 600.44 450.013 L 616.52 450.013 L 616.52 465.973 L 600.44 465.973 L 600.44 450.013 Z " fill="rgb(74,222,128)"/><path d=" M 85.88 450.013 L 101.96 450.013 L 101.96 465.973 L 85.88 465.973 L 85.88 450.013 Z " fill="rgb(74,222,128)"/><path d=" M 857.72 450.013 L 873.8 450.013 L 873.8 465.973 L 857.72 465.973 L 857.72 450.013 Z " fill="rgb(74,222,128)"/><path d=" M 343.16 450.013 L 359.24 450.013 L 359.24 465.973 L 343.16 465.973 L 343.16 450.013 Z " fill="rgb(74,222,128)"/><path d=" M 536.12 450.013 L 552.2 450.013 L 552.2 465.973 L 536.12 465.973 L 536.12 450.013 Z " fill="rgb(74,222,128)"/><path d=" M 793.4 450.013 L 809.48 450.013 L 809.48 465.973 L 793.4 465.973 L 793.4 450.013 Z " fill="rgb(74,222,128)"/><path d=" M 278.84 450.013 L 294.92 450.013 L 294.92 465.973 L 278.84 465.973 L 278.84 450.013 Z " fill="rgb(74,222,128)"/><path d=" M 664.76 450.013 L 680.84 450.013 L 680.84 465.973 L 664.76 465.973 L 664.76 450.013 Z " fill="rgb(74,222,128)"/><path d=" M 150.2 450.013 L 166.28 450.013 L 166.28 465.973 L 150.2 465.973 L 150.2 450.013 Z " fill="rgb(74,222,128)"/><path d=" M 922.04 450.013 L 938.12 450.013 L 938.12 465.973 L 922.04 465.973 L 922.04 450.013 Z " fill="rgb(74,222,128)"/><path d=" M 407.48 450.013 L 423.56 450.013 L 423.56 465.973 L 407.48 465.973 L 407.48 450.013 Z " fill="rgb(74,222,128)"/></g><g id="Group"><path d=" M 471.8 900.027 L 487.88 900.027 L 487.88 915.987 L 471.8 915.987 L 471.8 900.027 Z " fill="rgb(74,222,128)"/><path d=" M 729.08 900.027 L 745.16 900.027 L 745.16 915.987 L 729.08 915.987 L 729.08 900.027 Z " fill="rgb(74,222,128)"/><path d=" M 214.52 900.027 L 230.6 900.027 L 230.6 915.987 L 214.52 915.987 L 214.52 900.027 Z " fill="rgb(74,222,128)"/><path d=" M 600.44 900.027 L 616.52 900.027 L 616.52 915.987 L 600.44 915.987 L 600.44 900.027 Z " fill="rgb(74,222,128)"/><path d=" M 85.88 900.027 L 101.96 900.027 L 101.96 915.987 L 85.88 915.987 L 85.88 900.027 Z " fill="rgb(74,222,128)"/><path d=" M 857.72 900.027 L 873.8 900.027 L 873.8 915.987 L 857.72 915.987 L 857.72 900.027 Z " fill="rgb(74,222,128)"/><path d=" M 343.16 900.027 L 359.24 900.027 L 359.24 915.987 L 343.16 915.987 L 343.16 900.027 Z " fill="rgb(74,222,128)"/><path d=" M 536.12 900.027 L 552.2 900.027 L 552.2 915.987 L 536.12 915.987 L 536.12 900.027 Z " fill="rgb(74,222,128)"/><path d=" M 793.4 900.027 L 809.48 900.027 L 809.48 915.987 L 793.4 915.987 L 793.4 900.027 Z " fill="rgb(74,222,128)"/><path d=" M 278.84 900.027 L 294.92 900.027 L 294.92 915.987 L 278.84 915.987 L 278.84 900.027 Z " fill="rgb(74,222,128)"/><path d=" M 664.76 900.027 L 680.84 900.027 L 680.84 915.987 L 664.76 915.987 L 664.76 900.027 Z " fill="rgb(74,222,128)"/><path d=" M 150.2 900.027 L 166.28 900.027 L 166.28 915.987 L 150.2 915.987 L 150.2 900.027 Z " fill="rgb(74,222,128)"/><path d=" M 922.04 900.027 L 938.12 900.027 L 938.12 915.987 L 922.04 915.987 L 922.04 900.027 Z " fill="rgb(74,222,128)"/><path d=" M 407.48 900.027 L 423.56 900.027 L 423.56 915.987 L 407.48 915.987 L 407.48 900.027 Z " fill="rgb(74,222,128)"/></g><g id="Group"><path d=" M 471.8 1050.031 L 487.88 1050.031 L 487.88 1065.991 L 471.8 1065.991 L 471.8 1050.031 Z " fill="rgb(74,222,128)"/><path d=" M 729.08 1050.031 L 745.16 1050.031 L 745.16 1065.991 L 729.08 1065.991 L 729.08 1050.031 Z " fill="rgb(74,222,128)"/><path d=" M 214.52 1050.031 L 230.6 1050.031 L 230.6 1065.991 L 214.52 1065.991 L 214.52 1050.031 Z " fill="rgb(74,222,128)"/><path d=" M 600.44 1050.031 L 616.52 1050.031 L 616.52 1065.991 L 600.44 1065.991 L 600.44 1050.031 Z " fill="rgb(74,222,128)"/><path d=" M 85.88 1050.031 L 101.96 1050.031 L 101.96 1065.991 L 85.88 1065.991 L 85.88 1050.031 Z " fill="rgb(74,222,128)"/><path d=" M 857.72 1050.031 L 873.8 1050.031 L 873.8 1065.991 L 857.72 1065.991 L 857.72 1050.031 Z " fill="rgb(74,222,128)"/><path d=" M 343.16 1050.031 L 359.24 1050.031 L 359.24 1065.991 L 343.16 1065.991 L 343.16 1050.031 Z " fill="rgb(74,222,128)"/><path d=" M 536.12 1050.031 L 552.2 1050.031 L 552.2 1065.991 L 536.12 1065.991 L 536.12 1050.031 Z " fill="rgb(74,222,128)"/><path d=" M 793.4 1050.031 L 809.48 1050.031 L 809.48 1065.991 L 793.4 1065.991 L 793.4 1050.031 Z " fill="rgb(74,222,128)"/><path d=" M 278.84 1050.031 L 294.92 1050.031 L 294.92 1065.991 L 278.84 1065.991 L 278.84 1050.031 Z " fill="rgb(74,222,128)"/><path d=" M 664.76 1050.031 L 680.84 1050.031 L 680.84 1065.991 L 664.76 1065.991 L 664.76 1050.031 Z " fill="rgb(74,222,128)"/><path d=" M 150.2 1050.031 L 166.28 1050.031 L 166.28 1065.991 L 150.2 1065.991 L 150.2 1050.031 Z " fill="rgb(74,222,128)"/><path d=" M 922.04 1050.031 L 938.12 1050.031 L 938.12 1065.991 L 922.04 1065.991 L 922.04 1050.031 Z " fill="rgb(74,222,128)"/><path d=" M 407.48 1050.031 L 423.56 1050.031 L 423.56 1065.991 L 407.48 1065.991 L 407.48 1050.031 Z " fill="rgb(74,222,128)"/></g><g id="Group"><path d=" M 471.8 1200.036 L 487.88 1200.036 L 487.88 1215.996 L 471.8 1215.996 L 471.8 1200.036 Z " fill="rgb(74,222,128)"/><path d=" M 729.08 1200.036 L 745.16 1200.036 L 745.16 1215.996 L 729.08 1215.996 L 729.08 1200.036 Z " fill="rgb(74,222,128)"/><path d=" M 214.52 1200.036 L 230.6 1200.036 L 230.6 1215.996 L 214.52 1215.996 L 214.52 1200.036 Z " fill="rgb(74,222,128)"/><path d=" M 600.44 1200.036 L 616.52 1200.036 L 616.52 1215.996 L 600.44 1215.996 L 600.44 1200.036 Z " fill="rgb(74,222,128)"/><path d=" M 85.88 1200.036 L 101.96 1200.036 L 101.96 1215.996 L 85.88 1215.996 L 85.88 1200.036 Z " fill="rgb(74,222,128)"/><path d=" M 857.72 1200.036 L 873.8 1200.036 L 873.8 1215.996 L 857.72 1215.996 L 857.72 1200.036 Z " fill="rgb(74,222,128)"/><path d=" M 343.16 1200.036 L 359.24 1200.036 L 359.24 1215.996 L 343.16 1215.996 L 343.16 1200.036 Z " fill="rgb(74,222,128)"/><path d=" M 536.12 1200.036 L 552.2 1200.036 L 552.2 1215.996 L 536.12 1215.996 L 536.12 1200.036 Z " fill="rgb(74,222,128)"/><path d=" M 793.4 1200.036 L 809.48 1200.036 L 809.48 1215.996 L 793.4 1215.996 L 793.4 1200.036 Z " fill="rgb(74,222,128)"/><path d=" M 278.84 1200.036 L 294.92 1200.036 L 294.92 1215.996 L 278.84 1215.996 L 278.84 1200.036 Z " fill="rgb(74,222,128)"/><path d=" M 664.76 1200.036 L 680.84 1200.036 L 680.84 1215.996 L 664.76 1215.996 L 664.76 1200.036 Z " fill="rgb(74,222,128)"/><path d=" M 150.2 1200.036 L 166.28 1200.036 L 166.28 1215.996 L 150.2 1215.996 L 150.2 1200.036 Z " fill="rgb(74,222,128)"/><path d=" M 922.04 1200.036 L 938.12 1200.036 L 938.12 1215.996 L 922.04 1215.996 L 922.04 1200.036 Z " fill="rgb(74,222,128)"/><path d=" M 407.48 1200.036 L 423.56 1200.036 L 423.56 1215.996 L 407.48 1215.996 L 407.48 1200.036 Z " fill="rgb(74,222,128)"/></g><g id="Group"><path d=" M 471.8 0 L 487.88 0 L 487.88 15.96 L 471.8 15.96 L 471.8 0 Z " fill="rgb(74,222,128)"/><path d=" M 986.36 0 L 1002.44 0 L 1002.44 15.96 L 986.36 15.96 L 986.36 0 Z " fill="rgb(74,222,128)"/><path d=" M 729.08 0 L 745.16 0 L 745.16 15.96 L 729.08 15.96 L 729.08 0 Z " fill="rgb(74,222,128)"/><path d=" M 214.52 0 L 230.6 0 L 230.6 15.96 L 214.52 15.96 L 214.52 0 Z " fill="rgb(74,222,128)"/><path d=" M 600.44 0 L 616.52 0 L 616.52 15.96 L 600.44 15.96 L 600.44 0 Z " fill="rgb(74,222,128)"/><path d=" M 85.88 0 L 101.96 0 L 101.96 15.96 L 85.88 15.96 L 85.88 0 Z " fill="rgb(74,222,128)"/><path d=" M 857.72 0 L 873.8 0 L 873.8 15.96 L 857.72 15.96 L 857.72 0 Z " fill="rgb(74,222,128)"/><path d=" M 343.16 0 L 359.24 0 L 359.24 15.96 L 343.16 15.96 L 343.16 0 Z " fill="rgb(74,222,128)"/><path d=" M 536.12 0 L 552.2 0 L 552.2 15.96 L 536.12 15.96 L 536.12 0 Z " fill="rgb(74,222,128)"/><path d=" M 21.56 0 L 37.64 0 L 37.64 15.96 L 21.56 15.96 L 21.56 0 Z " fill="rgb(74,222,128)"/><path d=" M 793.4 0 L 809.48 0 L 809.48 15.96 L 793.4 15.96 L 793.4 0 Z " fill="rgb(74,222,128)"/><path d=" M 278.84 0 L 294.92 0 L 294.92 15.96 L 278.84 15.96 L 278.84 0 Z " fill="rgb(74,222,128)"/><path d=" M 664.76 0 L 680.84 0 L 680.84 15.96 L 664.76 15.96 L 664.76 0 Z " fill="rgb(74,222,128)"/><path d=" M 150.2 0 L 166.28 0 L 166.28 15.96 L 150.2 15.96 L 150.2 0 Z " fill="rgb(74,222,128)"/><path d=" M 922.04 0 L 938.12 0 L 938.12 15.96 L 922.04 15.96 L 922.04 0 Z " fill="rgb(74,222,128)"/><path d=" M 407.48 0 L 423.56 0 L 423.56 15.96 L 407.48 15.96 L 407.48 0 Z " fill="rgb(74,222,128)"/></g><g id="Group"><path d=" M 471.8 150.004 L 487.88 150.004 L 487.88 165.964 L 471.8 165.964 L 471.8 150.004 Z " fill="rgb(74,222,128)"/><path d=" M 986.36 150.004 L 1002.44 150.004 L 1002.44 165.964 L 986.36 165.964 L 986.36 150.004 Z " fill="rgb(74,222,128)"/><path d=" M 729.08 150.004 L 745.16 150.004 L 745.16 165.964 L 729.08 165.964 L 729.08 150.004 Z " fill="rgb(74,222,128)"/><path d=" M 214.52 150.004 L 230.6 150.004 L 230.6 165.964 L 214.52 165.964 L 214.52 150.004 Z " fill="rgb(74,222,128)"/><path d=" M 600.44 150.004 L 616.52 150.004 L 616.52 165.964 L 600.44 165.964 L 600.44 150.004 Z " fill="rgb(74,222,128)"/><path d=" M 85.88 150.004 L 101.96 150.004 L 101.96 165.964 L 85.88 165.964 L 85.88 150.004 Z " fill="rgb(74,222,128)"/><path d=" M 857.72 150.004 L 873.8 150.004 L 873.8 165.964 L 857.72 165.964 L 857.72 150.004 Z " fill="rgb(74,222,128)"/><path d=" M 343.16 150.004 L 359.24 150.004 L 359.24 165.964 L 343.16 165.964 L 343.16 150.004 Z " fill="rgb(74,222,128)"/><path d=" M 536.12 150.004 L 552.2 150.004 L 552.2 165.964 L 536.12 165.964 L 536.12 150.004 Z " fill="rgb(74,222,128)"/><path d=" M 21.56 150.004 L 37.64 150.004 L 37.64 165.964 L 21.56 165.964 L 21.56 150.004 Z " fill="rgb(74,222,128)"/><path d=" M 793.4 150.004 L 809.48 150.004 L 809.48 165.964 L 793.4 165.964 L 793.4 150.004 Z " fill="rgb(74,222,128)"/><path d=" M 278.84 150.004 L 294.92 150.004 L 294.92 165.964 L 278.84 165.964 L 278.84 150.004 Z " fill="rgb(74,222,128)"/><path d=" M 664.76 150.004 L 680.84 150.004 L 680.84 165.964 L 664.76 165.964 L 664.76 150.004 Z " fill="rgb(74,222,128)"/><path d=" M 150.2 150.004 L 166.28 150.004 L 166.28 165.964 L 150.2 165.964 L 150.2 150.004 Z " fill="rgb(74,222,128)"/><path d=" M 922.04 150.004 L 938.12 150.004 L 938.12 165.964 L 922.04 165.964 L 922.04 150.004 Z " fill="rgb(74,222,128)"/><path d=" M 407.48 150.004 L 423.56 150.004 L 423.56 165.964 L 407.48 165.964 L 407.48 150.004 Z " fill="rgb(74,222,128)"/></g><g id="Group"><path d=" M 471.8 600.018 L 487.88 600.018 L 487.88 615.978 L 471.8 615.978 L 471.8 600.018 Z " fill="rgb(74,222,128)"/><path d=" M 986.36 600.018 L 1002.44 600.018 L 1002.44 615.978 L 986.36 615.978 L 986.36 600.018 Z " fill="rgb(74,222,128)"/><path d=" M 729.08 600.018 L 745.16 600.018 L 745.16 615.978 L 729.08 615.978 L 729.08 600.018 Z " fill="rgb(74,222,128)"/><path d=" M 214.52 600.018 L 230.6 600.018 L 230.6 615.978 L 214.52 615.978 L 214.52 600.018 Z " fill="rgb(74,222,128)"/><path d=" M 600.44 600.018 L 616.52 600.018 L 616.52 615.978 L 600.44 615.978 L 600.44 600.018 Z " fill="rgb(74,222,128)"/><path d=" M 85.88 600.018 L 101.96 600.018 L 101.96 615.978 L 85.88 615.978 L 85.88 600.018 Z " fill="rgb(74,222,128)"/><path d=" M 857.72 600.018 L 873.8 600.018 L 873.8 615.978 L 857.72 615.978 L 857.72 600.018 Z " fill="rgb(74,222,128)"/><path d=" M 343.16 600.018 L 359.24 600.018 L 359.24 615.978 L 343.16 615.978 L 343.16 600.018 Z " fill="rgb(74,222,128)"/><path d=" M 536.12 600.018 L 552.2 600.018 L 552.2 615.978 L 536.12 615.978 L 536.12 600.018 Z " fill="rgb(74,222,128)"/><path d=" M 21.56 600.018 L 37.64 600.018 L 37.64 615.978 L 21.56 615.978 L 21.56 600.018 Z " fill="rgb(74,222,128)"/><path d=" M 793.4 600.018 L 809.48 600.018 L 809.48 615.978 L 793.4 615.978 L 793.4 600.018 Z " fill="rgb(74,222,128)"/><path d=" M 278.84 600.018 L 294.92 600.018 L 294.92 615.978 L 278.84 615.978 L 278.84 600.018 Z " fill="rgb(74,222,128)"/><path d=" M 664.76 600.018 L 680.84 600.018 L 680.84 615.978 L 664.76 615.978 L 664.76 600.018 Z " fill="rgb(74,222,128)"/><path d=" M 150.2 600.018 L 166.28 600.018 L 166.28 615.978 L 150.2 615.978 L 150.2 600.018 Z " fill="rgb(74,222,128)"/><path d=" M 922.04 600.018 L 938.12 600.018 L 938.12 615.978 L 922.04 615.978 L 922.04 600.018 Z " fill="rgb(74,222,128)"/><path d=" M 407.48 600.018 L 423.56 600.018 L 423.56 615.978 L 407.48 615.978 L 407.48 600.018 Z " fill="rgb(74,222,128)"/></g><g id="Group"><path d=" M 471.8 375.011 L 487.88 375.011 L 487.88 390.971 L 471.8 390.971 L 471.8 375.011 Z " fill="rgb(74,222,128)"/><path d=" M 986.36 375.011 L 1002.44 375.011 L 1002.44 390.971 L 986.36 390.971 L 986.36 375.011 Z " fill="rgb(74,222,128)"/><path d=" M 729.08 375.011 L 745.16 375.011 L 745.16 390.971 L 729.08 390.971 L 729.08 375.011 Z " fill="rgb(74,222,128)"/><path d=" M 214.52 375.011 L 230.6 375.011 L 230.6 390.971 L 214.52 390.971 L 214.52 375.011 Z " fill="rgb(74,222,128)"/><path d=" M 600.44 375.011 L 616.52 375.011 L 616.52 390.971 L 600.44 390.971 L 600.44 375.011 Z " fill="rgb(74,222,128)"/><path d=" M 85.88 375.011 L 101.96 375.011 L 101.96 390.971 L 85.88 390.971 L 85.88 375.011 Z " fill="rgb(74,222,128)"/><path d=" M 857.72 375.011 L 873.8 375.011 L 873.8 390.971 L 857.72 390.971 L 857.72 375.011 Z " fill="rgb(74,222,128)"/><path d=" M 343.16 375.011 L 359.24 375.011 L 359.24 390.971 L 343.16 390.971 L 343.16 375.011 Z " fill="rgb(74,222,128)"/><path d=" M 536.12 375.011 L 552.2 375.011 L 552.2 390.971 L 536.12 390.971 L 536.12 375.011 Z " fill="rgb(74,222,128)"/><path d=" M 21.56 375.011 L 37.64 375.011 L 37.64 390.971 L 21.56 390.971 L 21.56 375.011 Z " fill="rgb(74,222,128)"/><path d=" M 793.4 375.011 L 809.48 375.011 L 809.48 390.971 L 793.4 390.971 L 793.4 375.011 Z " fill="rgb(74,222,128)"/><path d=" M 278.84 375.011 L 294.92 375.011 L 294.92 390.971 L 278.84 390.971 L 278.84 375.011 Z " fill="rgb(74,222,128)"/><path d=" M 664.76 375.011 L 680.84 375.011 L 680.84 390.971 L 664.76 390.971 L 664.76 375.011 Z " fill="rgb(74,222,128)"/><path d=" M 150.2 375.011 L 166.28 375.011 L 166.28 390.971 L 150.2 390.971 L 150.2 375.011 Z " fill="rgb(74,222,128)"/><path d=" M 922.04 375.011 L 938.12 375.011 L 938.12 390.971 L 922.04 390.971 L 922.04 375.011 Z " fill="rgb(74,222,128)"/><path d=" M 407.48 375.011 L 423.56 375.011 L 423.56 390.971 L 407.48 390.971 L 407.48 375.011 Z " fill="rgb(74,222,128)"/></g><g id="Group"><path d=" M 471.8 525.016 L 487.88 525.016 L 487.88 540.975 L 471.8 540.975 L 471.8 525.016 Z " fill="rgb(74,222,128)"/><path d=" M 986.36 525.016 L 1002.44 525.016 L 1002.44 540.975 L 986.36 540.975 L 986.36 525.016 Z " fill="rgb(74,222,128)"/><path d=" M 729.08 525.016 L 745.16 525.016 L 745.16 540.975 L 729.08 540.975 L 729.08 525.016 Z " fill="rgb(74,222,128)"/><path d=" M 214.52 525.016 L 230.6 525.016 L 230.6 540.975 L 214.52 540.975 L 214.52 525.016 Z " fill="rgb(74,222,128)"/><path d=" M 600.44 525.016 L 616.52 525.016 L 616.52 540.975 L 600.44 540.975 L 600.44 525.016 Z " fill="rgb(74,222,128)"/><path d=" M 85.88 525.016 L 101.96 525.016 L 101.96 540.975 L 85.88 540.975 L 85.88 525.016 Z " fill="rgb(74,222,128)"/><path d=" M 857.72 525.016 L 873.8 525.016 L 873.8 540.975 L 857.72 540.975 L 857.72 525.016 Z " fill="rgb(74,222,128)"/><path d=" M 343.16 525.016 L 359.24 525.016 L 359.24 540.975 L 343.16 540.975 L 343.16 525.016 Z " fill="rgb(74,222,128)"/><path d=" M 536.12 525.016 L 552.2 525.016 L 552.2 540.975 L 536.12 540.975 L 536.12 525.016 Z " fill="rgb(74,222,128)"/><path d=" M 21.56 525.016 L 37.64 525.016 L 37.64 540.975 L 21.56 540.975 L 21.56 525.016 Z " fill="rgb(74,222,128)"/><path d=" M 793.4 525.016 L 809.48 525.016 L 809.48 540.975 L 793.4 540.975 L 793.4 525.016 Z " fill="rgb(74,222,128)"/><path d=" M 278.84 525.016 L 294.92 525.016 L 294.92 540.975 L 278.84 540.975 L 278.84 525.016 Z " fill="rgb(74,222,128)"/><path d=" M 664.76 525.016 L 680.84 525.016 L 680.84 540.975 L 664.76 540.975 L 664.76 525.016 Z " fill="rgb(74,222,128)"/><path d=" M 150.2 525.016 L 166.28 525.016 L 166.28 540.975 L 150.2 540.975 L 150.2 525.016 Z " fill="rgb(74,222,128)"/><path d=" M 922.04 525.016 L 938.12 525.016 L 938.12 540.975 L 922.04 540.975 L 922.04 525.016 Z " fill="rgb(74,222,128)"/><path d=" M 407.48 525.016 L 423.56 525.016 L 423.56 540.975 L 407.48 540.975 L 407.48 525.016 Z " fill="rgb(74,222,128)"/></g><g id="Group"><path d=" M 471.8 825.025 L 487.88 825.025 L 487.88 840.984 L 471.8 840.984 L 471.8 825.025 Z " fill="rgb(74,222,128)"/><path d=" M 986.36 825.025 L 1002.44 825.025 L 1002.44 840.984 L 986.36 840.984 L 986.36 825.025 Z " fill="rgb(74,222,128)"/><path d=" M 729.08 825.025 L 745.16 825.025 L 745.16 840.984 L 729.08 840.984 L 729.08 825.025 Z " fill="rgb(74,222,128)"/><path d=" M 214.52 825.025 L 230.6 825.025 L 230.6 840.984 L 214.52 840.984 L 214.52 825.025 Z " fill="rgb(74,222,128)"/><path d=" M 600.44 825.025 L 616.52 825.025 L 616.52 840.984 L 600.44 840.984 L 600.44 825.025 Z " fill="rgb(74,222,128)"/><path d=" M 85.88 825.025 L 101.96 825.025 L 101.96 840.984 L 85.88 840.984 L 85.88 825.025 Z " fill="rgb(74,222,128)"/><path d=" M 857.72 825.025 L 873.8 825.025 L 873.8 840.984 L 857.72 840.984 L 857.72 825.025 Z " fill="rgb(74,222,128)"/><path d=" M 343.16 825.025 L 359.24 825.025 L 359.24 840.984 L 343.16 840.984 L 343.16 825.025 Z " fill="rgb(74,222,128)"/><path d=" M 536.12 825.025 L 552.2 825.025 L 552.2 840.984 L 536.12 840.984 L 536.12 825.025 Z " fill="rgb(74,222,128)"/><path d=" M 21.56 825.025 L 37.64 825.025 L 37.64 840.984 L 21.56 840.984 L 21.56 825.025 Z " fill="rgb(74,222,128)"/><path d=" M 793.4 825.025 L 809.48 825.025 L 809.48 840.984 L 793.4 840.984 L 793.4 825.025 Z " fill="rgb(74,222,128)"/><path d=" M 278.84 825.025 L 294.92 825.025 L 294.92 840.984 L 278.84 840.984 L 278.84 825.025 Z " fill="rgb(74,222,128)"/><path d=" M 664.76 825.025 L 680.84 825.025 L 680.84 840.984 L 664.76 840.984 L 664.76 825.025 Z " fill="rgb(74,222,128)"/><path d=" M 150.2 825.025 L 166.28 825.025 L 166.28 840.984 L 150.2 840.984 L 150.2 825.025 Z " fill="rgb(74,222,128)"/><path d=" M 922.04 825.025 L 938.12 825.025 L 938.12 840.984 L 922.04 840.984 L 922.04 825.025 Z " fill="rgb(74,222,128)"/><path d=" M 407.48 825.025 L 423.56 825.025 L 423.56 840.984 L 407.48 840.984 L 407.48 825.025 Z " fill="rgb(74,222,128)"/></g><g id="Group"><path d=" M 471.8 975.029 L 487.88 975.029 L 487.88 990.989 L 471.8 990.989 L 471.8 975.029 Z " fill="rgb(74,222,128)"/><path d=" M 986.36 975.029 L 1002.44 975.029 L 1002.44 990.989 L 986.36 990.989 L 986.36 975.029 Z " fill="rgb(74,222,128)"/><path d=" M 729.08 975.029 L 745.16 975.029 L 745.16 990.989 L 729.08 990.989 L 729.08 975.029 Z " fill="rgb(74,222,128)"/><path d=" M 214.52 975.029 L 230.6 975.029 L 230.6 990.989 L 214.52 990.989 L 214.52 975.029 Z " fill="rgb(74,222,128)"/><path d=" M 600.44 975.029 L 616.52 975.029 L 616.52 990.989 L 600.44 990.989 L 600.44 975.029 Z " fill="rgb(74,222,128)"/><path d=" M 85.88 975.029 L 101.96 975.029 L 101.96 990.989 L 85.88 990.989 L 85.88 975.029 Z " fill="rgb(74,222,128)"/><path d=" M 857.72 975.029 L 873.8 975.029 L 873.8 990.989 L 857.72 990.989 L 857.72 975.029 Z " fill="rgb(74,222,128)"/><path d=" M 343.16 975.029 L 359.24 975.029 L 359.24 990.989 L 343.16 990.989 L 343.16 975.029 Z " fill="rgb(74,222,128)"/><path d=" M 536.12 975.029 L 552.2 975.029 L 552.2 990.989 L 536.12 990.989 L 536.12 975.029 Z " fill="rgb(74,222,128)"/><path d=" M 21.56 975.029 L 37.64 975.029 L 37.64 990.989 L 21.56 990.989 L 21.56 975.029 Z " fill="rgb(74,222,128)"/><path d=" M 793.4 975.029 L 809.48 975.029 L 809.48 990.989 L 793.4 990.989 L 793.4 975.029 Z " fill="rgb(74,222,128)"/><path d=" M 278.84 975.029 L 294.92 975.029 L 294.92 990.989 L 278.84 990.989 L 278.84 975.029 Z " fill="rgb(74,222,128)"/><path d=" M 664.76 975.029 L 680.84 975.029 L 680.84 990.989 L 664.76 990.989 L 664.76 975.029 Z " fill="rgb(74,222,128)"/><path d=" M 150.2 975.029 L 166.28 975.029 L 166.28 990.989 L 150.2 990.989 L 150.2 975.029 Z " fill="rgb(74,222,128)"/><path d=" M 922.04 975.029 L 938.12 975.029 L 938.12 990.989 L 922.04 990.989 L 922.04 975.029 Z " fill="rgb(74,222,128)"/><path d=" M 407.48 975.029 L 423.56 975.029 L 423.56 990.989 L 407.48 990.989 L 407.48 975.029 Z " fill="rgb(74,222,128)"/></g><g id="Group"><path d=" M 471.8 1125.034 L 487.88 1125.034 L 487.88 1140.993 L 471.8 1140.993 L 471.8 1125.034 Z " fill="rgb(74,222,128)"/><path d=" M 986.36 1125.034 L 1002.44 1125.034 L 1002.44 1140.993 L 986.36 1140.993 L 986.36 1125.034 Z " fill="rgb(74,222,128)"/><path d=" M 729.08 1125.034 L 745.16 1125.034 L 745.16 1140.993 L 729.08 1140.993 L 729.08 1125.034 Z " fill="rgb(74,222,128)"/><path d=" M 214.52 1125.034 L 230.6 1125.034 L 230.6 1140.993 L 214.52 1140.993 L 214.52 1125.034 Z " fill="rgb(74,222,128)"/><path d=" M 600.44 1125.034 L 616.52 1125.034 L 616.52 1140.993 L 600.44 1140.993 L 600.44 1125.034 Z " fill="rgb(74,222,128)"/><path d=" M 85.88 1125.034 L 101.96 1125.034 L 101.96 1140.993 L 85.88 1140.993 L 85.88 1125.034 Z " fill="rgb(74,222,128)"/><path d=" M 857.72 1125.034 L 873.8 1125.034 L 873.8 1140.993 L 857.72 1140.993 L 857.72 1125.034 Z " fill="rgb(74,222,128)"/><path d=" M 343.16 1125.034 L 359.24 1125.034 L 359.24 1140.993 L 343.16 1140.993 L 343.16 1125.034 Z " fill="rgb(74,222,128)"/><path d=" M 536.12 1125.034 L 552.2 1125.034 L 552.2 1140.993 L 536.12 1140.993 L 536.12 1125.034 Z " fill="rgb(74,222,128)"/><path d=" M 21.56 1125.034 L 37.64 1125.034 L 37.64 1140.993 L 21.56 1140.993 L 21.56 1125.034 Z " fill="rgb(74,222,128)"/><path d=" M 793.4 1125.034 L 809.48 1125.034 L 809.48 1140.993 L 793.4 1140.993 L 793.4 1125.034 Z " fill="rgb(74,222,128)"/><path d=" M 278.84 1125.034 L 294.92 1125.034 L 294.92 1140.993 L 278.84 1140.993 L 278.84 1125.034 Z " fill="rgb(74,222,128)"/><path d=" M 664.76 1125.034 L 680.84 1125.034 L 680.84 1140.993 L 664.76 1140.993 L 664.76 1125.034 Z " fill="rgb(74,222,128)"/><path d=" M 150.2 1125.034 L 166.28 1125.034 L 166.28 1140.993 L 150.2 1140.993 L 150.2 1125.034 Z " fill="rgb(74,222,128)"/><path d=" M 922.04 1125.034 L 938.12 1125.034 L 938.12 1140.993 L 922.04 1140.993 L 922.04 1125.034 Z " fill="rgb(74,222,128)"/><path d=" M 407.48 1125.034 L 423.56 1125.034 L 423.56 1140.993 L 407.48 1140.993 L 407.48 1125.034 Z " fill="rgb(74,222,128)"/></g><g id="Group"><path d=" M 471.8 1275.038 L 487.88 1275.038 L 487.88 1290.998 L 471.8 1290.998 L 471.8 1275.038 Z " fill="rgb(74,222,128)"/><path d=" M 986.36 1275.038 L 1002.44 1275.038 L 1002.44 1290.998 L 986.36 1290.998 L 986.36 1275.038 Z " fill="rgb(74,222,128)"/><path d=" M 729.08 1275.038 L 745.16 1275.038 L 745.16 1290.998 L 729.08 1290.998 L 729.08 1275.038 Z " fill="rgb(74,222,128)"/><path d=" M 214.52 1275.038 L 230.6 1275.038 L 230.6 1290.998 L 214.52 1290.998 L 214.52 1275.038 Z " fill="rgb(74,222,128)"/><path d=" M 600.44 1275.038 L 616.52 1275.038 L 616.52 1290.998 L 600.44 1290.998 L 600.44 1275.038 Z " fill="rgb(74,222,128)"/><path d=" M 85.88 1275.038 L 101.96 1275.038 L 101.96 1290.998 L 85.88 1290.998 L 85.88 1275.038 Z " fill="rgb(74,222,128)"/><path d=" M 857.72 1275.038 L 873.8 1275.038 L 873.8 1290.998 L 857.72 1290.998 L 857.72 1275.038 Z " fill="rgb(74,222,128)"/><path d=" M 343.16 1275.038 L 359.24 1275.038 L 359.24 1290.998 L 343.16 1290.998 L 343.16 1275.038 Z " fill="rgb(74,222,128)"/><path d=" M 536.12 1275.038 L 552.2 1275.038 L 552.2 1290.998 L 536.12 1290.998 L 536.12 1275.038 Z " fill="rgb(74,222,128)"/><path d=" M 21.56 1275.038 L 37.64 1275.038 L 37.64 1290.998 L 21.56 1290.998 L 21.56 1275.038 Z " fill="rgb(74,222,128)"/><path d=" M 793.4 1275.038 L 809.48 1275.038 L 809.48 1290.998 L 793.4 1290.998 L 793.4 1275.038 Z " fill="rgb(74,222,128)"/><path d=" M 278.84 1275.038 L 294.92 1275.038 L 294.92 1290.998 L 278.84 1290.998 L 278.84 1275.038 Z " fill="rgb(74,222,128)"/><path d=" M 664.76 1275.038 L 680.84 1275.038 L 680.84 1290.998 L 664.76 1290.998 L 664.76 1275.038 Z " fill="rgb(74,222,128)"/><path d=" M 150.2 1275.038 L 166.28 1275.038 L 166.28 1290.998 L 150.2 1290.998 L 150.2 1275.038 Z " fill="rgb(74,222,128)"/><path d=" M 922.04 1275.038 L 938.12 1275.038 L 938.12 1290.998 L 922.04 1290.998 L 922.04 1275.038 Z " fill="rgb(74,222,128)"/><path d=" M 407.48 1275.038 L 423.56 1275.038 L 423.56 1290.998 L 407.48 1290.998 L 407.48 1275.038 Z " fill="rgb(74,222,128)"/></g><g id="Group"><path d=" M 471.8 1350.04 L 487.88 1350.04 L 487.88 1366 L 471.8 1366 L 471.8 1350.04 Z " fill="rgb(74,222,128)"/><path d=" M 729.08 1350.04 L 745.16 1350.04 L 745.16 1366 L 729.08 1366 L 729.08 1350.04 Z " fill="rgb(74,222,128)"/><path d=" M 214.52 1350.04 L 230.6 1350.04 L 230.6 1366 L 214.52 1366 L 214.52 1350.04 Z " fill="rgb(74,222,128)"/><path d=" M 600.44 1350.04 L 616.52 1350.04 L 616.52 1366 L 600.44 1366 L 600.44 1350.04 Z " fill="rgb(74,222,128)"/><path d=" M 85.88 1350.04 L 101.96 1350.04 L 101.96 1366 L 85.88 1366 L 85.88 1350.04 Z " fill="rgb(74,222,128)"/><path d=" M 857.72 1350.04 L 873.8 1350.04 L 873.8 1366 L 857.72 1366 L 857.72 1350.04 Z " fill="rgb(74,222,128)"/><path d=" M 343.16 1350.04 L 359.24 1350.04 L 359.24 1366 L 343.16 1366 L 343.16 1350.04 Z " fill="rgb(74,222,128)"/><path d=" M 536.12 1350.04 L 552.2 1350.04 L 552.2 1366 L 536.12 1366 L 536.12 1350.04 Z " fill="rgb(74,222,128)"/><path d=" M 793.4 1350.04 L 809.48 1350.04 L 809.48 1366 L 793.4 1366 L 793.4 1350.04 Z " fill="rgb(74,222,128)"/><path d=" M 278.84 1350.04 L 294.92 1350.04 L 294.92 1366 L 278.84 1366 L 278.84 1350.04 Z " fill="rgb(74,222,128)"/><path d=" M 664.76 1350.04 L 680.84 1350.04 L 680.84 1366 L 664.76 1366 L 664.76 1350.04 Z " fill="rgb(74,222,128)"/><path d=" M 150.2 1350.04 L 166.28 1350.04 L 166.28 1366 L 150.2 1366 L 150.2 1350.04 Z " fill="rgb(74,222,128)"/><path d=" M 922.04 1350.04 L 938.12 1350.04 L 938.12 1366 L 922.04 1366 L 922.04 1350.04 Z " fill="rgb(74,222,128)"/><path d=" M 407.48 1350.04 L 423.56 1350.04 L 423.56 1366 L 407.48 1366 L 407.48 1350.04 Z " fill="rgb(74,222,128)"/></g></g></g></svg>